<svg xmlns="http://www.w3.org/2000/svg" viewBox="0 0 577.63 894.82">
  <defs>
    <style>
      .blueberry-vanilla-a {
        fill: #3bb2bf;
      }

      .blueberry-vanilla-b {
        fill: #fff7e9;
      }

      .blueberry-vanilla-c {
        fill: #f2e1c2;
      }

      .blueberry-vanilla-d {
        fill: #f25e5e;
      }

      .blueberry-vanilla-e {
        fill: #604343;
      }

      .blueberry-vanilla-f {
        fill: #dff6f7;
      }

      .blueberry-vanilla-g {
        fill: #ffe4dc;
      }

      .blueberry-vanilla-h {
        fill: #ffd394;
      }

      .blueberry-vanilla-i {
        fill: #0fbcd8;
      }

      .blueberry-vanilla-j {
        fill: #fff;
      }

      .blueberry-vanilla-k {
        fill: #e5cfca;
      }

      .blueberry-vanilla-l {
        fill: none;
        stroke: #f25e5e;
        stroke-miterlimit: 10;
        stroke-width: 4px;
      }

      .blueberry-vanilla-m {
        fill: #fab0bf;
      }
    </style>
  </defs>
  <title>blueberry-vanilla-doll</title>
  <path class="blueberry-vanilla-a" d="M577.19,617.3c0,179.92-129,277.52-288.08,277.52h-3c-9.59-.08-19.08-.51-28.42-1.3C128.08,882.65,24.28,804,4.46,666.44a333.14,333.14,0,0,1-3.1-33.64v0c-.09-2.29-.17-4.6-.22-6.92Q1,621.61,1,617.3q0-6.51.23-13c2-57.82,17.33-111.77,42.61-158a.13.13,0,0,1,0-.05c.66-1.2,1.32-2.4,2-3.59h0q2.76-4.9,5.67-9.69,3.34-6.27,6.28-12.78c.51-1.1,1-2.2,1.46-3.31.12-.25.22-.5.33-.75,1-2.41,2-4.83,3-7.28.55-1.39,1.07-2.8,1.59-4.21q.94-2.6,1.82-5.2c.18-.52.35-1.05.52-1.57,0-.11.07-.22.11-.33l.39-1.22q.38-1.14.72-2.28c.28-.9.55-1.79.81-2.69s.45-1.54.67-2.31c.08-.29.17-.59.25-.89.2-.73.41-1.48.6-2.22q1.41-5.25,2.55-10.59c.18-.83.36-1.68.52-2.52,0-.08,0-.15,0-.23s.09-.43.13-.64c.17-.86.33-1.72.5-2.59,0-.09,0-.17,0-.26q.2-1,.36-2c0-.19.07-.37.1-.56.15-.91.31-1.83.46-2.75l.12-.79c.1-.68.21-1.37.31-2.06q.88-6,1.44-12.08c.12-1.24.22-2.48.31-3.73,0-.44.07-.87.09-1.31.06-.74.11-1.48.14-2.23s.08-1.27.11-1.91.06-1.19.08-1.79.06-1.28.08-1.92q0-1.28.06-2.55c0-1.7.07-3.4.07-5.11a224.45,224.45,0,0,0-4.81-46.32q-1.15-4.45-2.1-9a224.3,224.3,0,0,1-4.81-46.32c0-97,61.91-179.6,148.38-210.36a224.26,224.26,0,0,1,149.73,0c86.45,30.78,148.33,113.34,148.33,210.35A224.3,224.3,0,0,1,507.52,273c-.77,3-1.46,6-2.09,9a223.76,223.76,0,0,0-4.82,46.32c0,1.8,0,3.6.07,5.39,0,.72,0,1.43.06,2.14,0,.89.06,1.78.1,2.66,0,.23,0,.45,0,.67,0,1,.09,1.91.15,2.86s.13,2.16.22,3.23.15,2,.24,2.92c0,.39.06.78.1,1.17.12,1.26.25,2.51.39,3.77s.31,2.71.49,4.06.36,2.7.56,4a.07.07,0,0,0,0,.05q.81,5.56,1.92,11c.14.77.3,1.53.47,2.29s.32,1.53.49,2.29.28,1.29.44,1.93.25,1.09.38,1.64l.66,2.69c.28,1.1.56,2.19.86,3.28s.52,1.91.79,2.87.49,1.71.75,2.56c.17.61.36,1.22.54,1.82.85,2.78,1.76,5.53,2.71,8.26.26.75.53,1.5.8,2.24.53,1.45,1.06,2.89,1.63,4.33q1.54,4.08,3.29,8.07,3.6,8.4,7.89,16.44,3.6,6.8,7.66,13.29a.13.13,0,0,1,0,.05C561.52,496,577.19,554.59,577.19,617.3Z"/>
  <path class="blueberry-vanilla-b" d="M288.08,373.3v260c-49.82,0-71.4-52.17-152.94-52.17h-.22v.07s-48-.43-71.73,52.17c-7.37,16.36-21,25.22-36.72,29.62a101,101,0,0,1-18.88,3.29q-1.56.15-3.12.24c-.25-1.73-.51-3.46-.78-5.21-.34-2.25-.69-4.52-1-6.8A204.85,204.85,0,0,1,.36,632.8v0c-.08-2.14-.16-4.29-.21-6.46l0,0Q0,622.1,0,617.79A363.23,363.23,0,0,1,17.09,507.05q2.75-8.64,5.92-17a342.07,342.07,0,0,1,19.83-43.23.13.13,0,0,1,0-.05c.66-1.2,1.32-2.4,2-3.59h0q2.76-4.9,5.67-9.69,3.34-6.27,6.28-12.78c.51-1.1,1-2.2,1.46-3.31.12-.25.22-.5.33-.75,1.63-3.78,3.14-7.61,4.56-11.49q.95-2.6,1.82-5.2c.18-.52.35-1.05.52-1.57,0-.11.07-.22.11-.33L66,396.8q.38-1.14.72-2.28c.28-.9.55-1.79.81-2.69s.45-1.54.67-2.31c.08-.29.17-.59.25-.89.2-.73.41-1.48.6-2.22q1.41-5.25,2.55-10.59c.18-.83.36-1.68.52-2.52Z"/>
  <path class="blueberry-vanilla-b" d="M577.63,617.79q0,4.31-.1,8.54l0,0c0,2.17-.13,4.32-.21,6.46v0a333.14,333.14,0,0,1-3.1,33.64c-24.14-1.49-49-9.37-59.73-33.08-12.8-28.42-32.71-41.36-48.31-47.24a78.3,78.3,0,0,0-19.36-4.68c-2.58-.26-4.06-.25-4.06-.25v-.07h-.22c-29.4,0-51.48,6.78-70,15.46-2.71,1.26-5.34,2.57-7.9,3.89h0c-28.62,14.85-49.37,32.82-78.61,32.82V373.56l219.56-.26c.16.84.34,1.69.52,2.52q1.14,5.34,2.55,10.59c.19.74.4,1.49.6,2.22.08.3.17.6.25.89.22.77.44,1.54.67,2.31s.53,1.79.81,2.69.47,1.52.72,2.28L512,398l.11.33c.17.52.34,1,.52,1.57q.87,2.61,1.82,5.2c1.42,3.88,2.93,7.71,4.56,11.49.11.25.21.5.33.75.47,1.11.95,2.21,1.46,3.31q2.94,6.51,6.28,12.78,2.91,4.79,5.67,9.69h0c.67,1.19,1.33,2.39,2,3.59a.13.13,0,0,1,0,.05C562,496.5,577.63,555.08,577.63,617.79Z"/>
  <path class="blueberry-vanilla-c" d="M515.69,407.23c-.27-.75-.55-1.51-.81-2.27-1-2.78-1.87-5.57-2.73-8.4-.18-.61-.37-1.23-.55-1.85-.26-.86-.51-1.74-.75-2.6s-.55-1.94-.8-2.92-.58-2.21-.87-3.33l-.66-2.73c-.13-.56-.26-1.11-.38-1.67s-.31-1.31-.45-2-.34-1.56-.49-2.33l-.48-2.33q-1.1-5.55-1.93-11.21a.07.07,0,0,1,0-.05c-.2-1.36-.39-2.73-.57-4.1s-.34-2.75-.49-4.13-.27-2.55-.39-3.83c0-.4-.07-.8-.1-1.19-.09-1-.18-2-.25-3s-.16-2.18-.22-3.28-.11-1.93-.15-2.91c0-.22,0-.45,0-.68,0-.89-.08-1.8-.1-2.7,0-.73-.05-1.45-.06-2.18-.05-1.82-.07-3.65-.07-5.48a228.8,228.8,0,0,1,4.86-47.07q.94-4.57,2.11-9.11a230.14,230.14,0,0,0,4.84-47.08C514.15,101.58,413.41,0,289.11,0s-225,101.58-225,226.87A229.45,229.45,0,0,0,68.92,274c.63,3.05,1.34,6.09,2.11,9.11a229.49,229.49,0,0,1,4.85,47.07c0,1.74,0,3.47-.07,5.2,0,.86,0,1.72-.06,2.59,0,.65,0,1.3-.08,1.95s0,1.22-.08,1.82-.06,1.3-.11,1.94-.08,1.51-.14,2.27c0,.44,0,.88-.09,1.33-.09,1.27-.19,2.53-.32,3.79q-.56,6.19-1.45,12.28c-.1.7-.21,1.4-.31,2.09l-.12.8c-.15.94-.31,1.87-.46,2.8,0,.19-.08.37-.11.57q-.17,1-.36,2.07c0,.09,0,.17-.05.26-.17.89-.33,1.76-.5,2.64,0,.21-.09.43-.13.65-.19.93-.38,1.86-.58,2.79q-1.14,5.43-2.57,10.77c-.19.75-.4,1.51-.6,2.25-.09.31-.18.61-.26.91-.22.78-.44,1.56-.67,2.34s-.54,1.82-.82,2.74c-.23.77-.47,1.54-.72,2.32-.14.41-.27.82-.4,1.24l-.11.33c-.17.54-.35,1.07-.52,1.6-.59,1.76-2.81,7.23-3.44,9-1.43,3.94-1.35,4.13-3,8-.12.25-.22.51-.34.76a29.58,29.58,0,0,0,5.94,3.87,27.33,27.33,0,0,0,4.41,1.79h.08A30.52,30.52,0,0,1,72.73,427h0a30.65,30.65,0,0,0,4.09.27,30.13,30.13,0,0,0,18.6-6.38h0A30,30,0,0,1,98.67,418h0a30.31,30.31,0,0,1,38,.6s0,0,0,0a31.08,31.08,0,0,1,5.53,6h0a30.28,30.28,0,0,0,19.4,7,29.28,29.28,0,0,0,3.64-.23,28.66,28.66,0,0,1,6.32-1.46,31.34,31.34,0,0,1,3.64-.22,30.39,30.39,0,0,1,25.89,14.5l0,0c.21.4.44.77.67,1.16l0,0A30.37,30.37,0,0,0,227.43,460h0c.29,0,.58,0,.87,0h.3c14.81.13,18.9.09,29.7,14.5s10.08,22.46,30.52,22.46c20.12,0,30.16-21.76,30.47-22.44-.1.14-.72,1.15-1.43,2.28l1.44-2.34c7.88-12.78,14.9-14.33,29.68-14.46h.3c.3,0,.59,0,.88,0h0a30.41,30.41,0,0,0,25.34-14.13l.06-.1c.3-.55.62-1.1,1-1.62a30.4,30.4,0,0,1,25.81-14.38A31.34,31.34,0,0,1,406,430h0a28.66,28.66,0,0,1,6.29,1.46h0a29.44,29.44,0,0,0,3.65.23,30.31,30.31,0,0,0,19.41-7h0a29.87,29.87,0,0,1,5.53-6h0s0,0,0,0a30.31,30.31,0,0,1,38-.61h0a30.35,30.35,0,0,1,3.23,2.88h0a30.09,30.09,0,0,0,18.59,6.37,30.54,30.54,0,0,0,4.09-.27h0a30.64,30.64,0,0,1,4.89-1.08h.07a29,29,0,0,0,4.41-1.78,30.87,30.87,0,0,0,6.36-4.23C518.86,415.7,517.22,411.49,515.69,407.23ZM316.93,478.34c.18-.31.39-.64.64-1C317.35,477.66,317.14,478,316.93,478.34Z"/>
  <g>
    <path class="blueberry-vanilla-c" d="M294.85,650.51H284.07c-15.59,0-32.93-11.45-32.93-24.06l6.59-63.27c0-12.61,16.14-22.17,31.73-22.17h.41c15.58,0,30.88,9.56,30.88,22.17l6,61.53C326.74,637.32,310.43,650.51,294.85,650.51Z"/>
    <path class="blueberry-vanilla-d" d="M300.26,650.51H278.65a23,23,0,0,1-21.57-15.21,21.34,21.34,0,0,1-.81-10.84l9.5-56c.4-2.39.64-4.8.92-7.21A23,23,0,0,1,289.46,541h.33a23,23,0,0,1,22.77,20.25c.28,2.45.52,4.91.92,7.34l9.59,58.31a7.83,7.83,0,0,1,.1,1.37A23,23,0,0,1,300.26,650.51Z"/>
  </g>
  <circle class="blueberry-vanilla-e" cx="394.79" cy="525.78" r="8.64"/>
  <circle class="blueberry-vanilla-e" cx="458.84" cy="489.79" r="5.76"/>
  <circle class="blueberry-vanilla-e" cx="493.39" cy="540.89" r="6.48"/>
  <circle class="blueberry-vanilla-e" cx="532.25" cy="576.16" r="5.04"/>
  <circle class="blueberry-vanilla-e" cx="536.57" cy="497.71" r="6.48"/>
  <circle class="blueberry-vanilla-e" cx="386.16" cy="463.17" r="5.76"/>
  <circle class="blueberry-vanilla-e" cx="324.99" cy="520.74" r="5.04"/>
  <circle class="blueberry-vanilla-e" cx="235.03" cy="560.32" r="5.76"/>
  <path class="blueberry-vanilla-e" d="M373.2,593.43a7.08,7.08,0,0,1-.73,3.15c-2.71,1.26-5.34,2.57-7.9,3.89h0a7.19,7.19,0,1,1,8.64-7Z"/>
  <path class="blueberry-vanilla-e" d="M470.36,576.87a12.19,12.19,0,0,1-4.23,9.25,78.3,78.3,0,0,0-19.36-4.68,12.24,12.24,0,1,1,23.59-4.57Z"/>
  <circle class="blueberry-vanilla-e" cx="551.68" cy="648.12" r="10.8"/>
  <circle class="blueberry-vanilla-e" cx="504.9" cy="442.3" r="12.95"/>
  <circle class="blueberry-vanilla-e" cx="219.19" cy="499.87" r="9.36"/>
  <circle class="blueberry-vanilla-e" cx="182.49" cy="552.41" r="6.48"/>
  <circle class="blueberry-vanilla-e" cx="99.73" cy="566.08" r="7.92"/>
  <circle class="blueberry-vanilla-e" cx="100.45" cy="503.47" r="7.92"/>
  <circle class="blueberry-vanilla-e" cx="142.19" cy="512.1" r="5.04"/>
  <g>
    <g>
      <circle class="blueberry-vanilla-b" cx="430.63" cy="138.51" r="14.83"/>
      <circle class="blueberry-vanilla-b" cx="418.06" cy="160.62" r="14.83"/>
      <circle class="blueberry-vanilla-b" cx="402.78" cy="143.48" r="14.83"/>
    </g>
    <circle class="blueberry-vanilla-e" cx="417.78" cy="146.37" r="5.04"/>
  </g>
  <g>
    <path class="blueberry-vanilla-d" d="M515.62,403.47c-.17-.48-.35-1-.52-1.44-.1-.27-.19-.55-.29-.82q-1.12-3.21-2.14-6.48c-.21-.61-.4-1.23-.59-1.85s-.37-1.22-.54-1.84c-.27-.85-.52-1.72-.76-2.58s-.54-1.92-.8-2.89-.58-2.2-.86-3.31c-.22-.9-.45-1.8-.67-2.71-.13-.56-.26-1.1-.38-1.66l-.06-.26c-.14-.55-.26-1.12-.38-1.68-.18-.77-.35-1.55-.5-2.31s-.33-1.53-.47-2.31q-1.12-5.5-1.94-11.12a.07.07,0,0,1,0,0c-.2-1.35-.39-2.72-.56-4.08s-.34-2.72-.49-4.09-.28-2.53-.4-3.8c0-.4-.07-.79-.1-1.18-.09-1-.17-2-.24-2.95s-.16-2.16-.22-3.25-.11-1.92-.15-2.89c0-.22,0-.44,0-.67,0-.89-.08-1.79-.1-2.68,0-.72-.05-1.44-.07-2.16,0-1.81-.07-3.62-.07-5.44a225.84,225.84,0,0,1,4.09-42.86c.24-1.28.5-2.56.77-3.84.64-3,1.33-6,2.11-9,.74-3.54,1.41-7.12,2-10.72l.27-1.69h0c.43-2.8.81-5.61,1.12-8.44q1.1-9.41,1.37-19.05c.06-1.7.09-3.4.1-5.1,0-.56,0-1.13,0-1.7q0-1.34,0-2.67a219.89,219.89,0,0,0-1.6-24.49A225.2,225.2,0,0,0,391,23.78a222,222,0,0,0-26.38-11.36l-.9-.31a235.57,235.57,0,0,0-150,.3A225.16,225.16,0,0,0,64.14,222.16c0,.79,0,1.58,0,2.36a226.27,226.27,0,0,0,1.47,25.79q1.2,10.62,3.38,20.92c.64,3,1.34,6,2.12,9A226.67,226.67,0,0,1,76,327c0,1.73,0,3.44-.07,5.15q0,1.29-.06,2.58c0,.64,0,1.29-.08,1.93l-.09,1.81c0,.64-.06,1.29-.11,1.92s-.08,1.51-.14,2.25c0,.45-.05.88-.09,1.32-.09,1.26-.19,2.51-.31,3.76q-.56,6.15-1.45,12.18c-.1.7-.21,1.4-.31,2.08,0,.26-.09.54-.13.8-.15.93-.31,1.85-.46,2.77,0,.19-.07.37-.1.57-.11.68-.23,1.37-.36,2.05,0,.09,0,.17,0,.27L71.63,371c0,.21-.09.43-.13.64s0,.15,0,.23c-.16.85-.34,1.71-.52,2.55q-1.16,5.37-2.57,10.67c-.19.75-.41,1.51-.61,2.24-.08.3-.17.61-.25.9-.22.78-.44,1.55-.67,2.33s-.54,1.8-.82,2.71-.47,1.53-.73,2.3l-.39,1.23-.11.33c-.17.53-.34,1.06-.52,1.59q-.89,2.63-1.84,5.24c-.52,1.42-1.05,2.84-1.6,4.25a29.41,29.41,0,0,0,7.33,5,28.18,28.18,0,0,0,4.31,1.7h.07a30.06,30.06,0,0,1,4.78,1h0a31.17,31.17,0,0,0,4,.26,30.08,30.08,0,0,0,18.2-6.07h0a30,30,0,0,1,3.14-2.72h0a30.38,30.38,0,0,1,37.2.57s0,0,0,0a29.49,29.49,0,0,1,5.42,5.74h0a30.13,30.13,0,0,0,19,6.68,27.89,27.89,0,0,0,3.56-.22,29.36,29.36,0,0,1,6.18-1.39A30.2,30.2,0,0,1,203,432.41l0,0c.21.37.43.73.66,1.09,0,0,0,0,0,0a29.91,29.91,0,0,0,25,13.8h0c.28,0,.55,0,.85,0h.29c14.49.13,18.5.09,29.07,13.78s9.86,21.35,29.88,21.35c19.06,0,28.85-19.35,29.74-21.21-.05.07-.11.17-.19.27l.27-.44c7.71-12.16,14.59-13.62,29.06-13.75H348c.29,0,.58,0,.86,0h0a30,30,0,0,0,24.81-13.43.41.41,0,0,0,0-.09c.3-.53.61-1,1-1.56a30.19,30.19,0,0,1,28.82-13.45h0a29,29,0,0,1,6.16,1.39h0a28.44,28.44,0,0,0,3.58.22,30.13,30.13,0,0,0,19-6.68h0a29.19,29.19,0,0,1,5.42-5.74h0s0,0,0,0a30.37,30.37,0,0,1,37.18-.58h0a29.52,29.52,0,0,1,3.17,2.74h0a30,30,0,0,0,18.19,6.06,31.17,31.17,0,0,0,4-.26h0a30.06,30.06,0,0,1,4.78-1h.07a29.69,29.69,0,0,0,4.18-1.63l.13-.06a29.85,29.85,0,0,0,7.75-5.4C516.69,406.38,516.15,404.93,515.62,403.47Z"/>
    <g>
      <g>
        <ellipse class="blueberry-vanilla-b" cx="131.9" cy="339.65" rx="14.83" ry="14.95"/>
        <ellipse class="blueberry-vanilla-b" cx="140.03" cy="363.94" rx="14.83" ry="14.95"/>
        <ellipse class="blueberry-vanilla-b" cx="117.07" cy="363.94" rx="14.83" ry="14.95"/>
      </g>
      <ellipse class="blueberry-vanilla-e" cx="129.21" cy="354.6" rx="5.04" ry="5.08"/>
    </g>
    <g>
      <g>
        <ellipse class="blueberry-vanilla-b" cx="97.68" cy="230.97" rx="14.83" ry="14.95"/>
        <ellipse class="blueberry-vanilla-b" cx="85.1" cy="253.26" rx="14.83" ry="14.95"/>
        <path class="blueberry-vanilla-b" d="M84.52,237.87a3.47,3.47,0,0,1-.06.45,14.61,14.61,0,0,1-1.81,5.15,14.93,14.93,0,0,1-3,3.67,14.67,14.67,0,0,1-9.23,3.78,15.09,15.09,0,0,1-4.86-.61,226.27,226.27,0,0,1-1.47-25.79c0-.78,0-1.57,0-2.36A14.86,14.86,0,0,1,83,229.07a15.13,15.13,0,0,1,1.52,4.76A14.77,14.77,0,0,1,84.52,237.87Z"/>
      </g>
      <ellipse class="blueberry-vanilla-e" cx="84.82" cy="238.9" rx="5.04" ry="5.08"/>
    </g>
    <g>
      <g>
        <ellipse class="blueberry-vanilla-b" cx="202.9" cy="118.82" rx="14.83" ry="14.95"/>
        <ellipse class="blueberry-vanilla-b" cx="190.32" cy="141.11" rx="14.83" ry="14.95"/>
        <ellipse class="blueberry-vanilla-b" cx="175.04" cy="123.83" rx="14.83" ry="14.95"/>
      </g>
      <ellipse class="blueberry-vanilla-e" cx="190.04" cy="126.75" rx="5.04" ry="5.08"/>
    </g>
    <g>
      <g>
        <path class="blueberry-vanilla-b" d="M391,23.78a14.85,14.85,0,0,1-4,5.89,14.74,14.74,0,0,1-19.23.42,13.71,13.71,0,0,1-1.7-1.63,15.24,15.24,0,0,1-1.85-2.6l-.24-.44a15,15,0,0,1-1.34-3.78,14.65,14.65,0,0,1-.2-5,14.49,14.49,0,0,1,1.3-4.5l.9.31A222,222,0,0,1,391,23.78Z"/>
        <ellipse class="blueberry-vanilla-b" cx="364.51" cy="40.8" rx="14.83" ry="14.95"/>
        <ellipse class="blueberry-vanilla-b" cx="349.23" cy="23.52" rx="14.83" ry="14.95"/>
      </g>
      <ellipse class="blueberry-vanilla-e" cx="364.23" cy="26.44" rx="5.04" ry="5.08"/>
    </g>
    <g>
      <g>
        <path class="blueberry-vanilla-b" d="M514.09,224.52c0,.57,0,1.14,0,1.7a14.35,14.35,0,0,1-4-1.46,15.25,15.25,0,0,1-2-1.28,15,15,0,0,1-2.3-2.2l-.31-.36a14.82,14.82,0,0,1-2.05-3.46h0a15.14,15.14,0,0,1-1.17-4.89v0a15,15,0,0,1,3-10,14.64,14.64,0,0,1,7.22-5.17,219.89,219.89,0,0,1,1.6,24.49Q514.09,223.19,514.09,224.52Z"/>
        <path class="blueberry-vanilla-b" d="M514.09,224.52c0,.57,0,1.14,0,1.7,0,1.7,0,3.4-.1,5.1q-.29,9.63-1.37,19.05A14.68,14.68,0,0,1,500,247.8a15,15,0,0,1-5.85-11.38h0a15.07,15.07,0,0,1,7-13.22,14.69,14.69,0,0,1,4.39-1.84l.29-.07a14.74,14.74,0,0,1,5.13-.22,14,14,0,0,1,3.15.79Q514.09,223.19,514.09,224.52Z"/>
        <ellipse class="blueberry-vanilla-b" cx="490.67" cy="221.88" rx="14.83" ry="14.95"/>
      </g>
      <ellipse class="blueberry-vanilla-e" cx="505.94" cy="221.85" rx="5.04" ry="5.08"/>
    </g>
    <g>
      <g>
        <ellipse class="blueberry-vanilla-b" cx="282" cy="404.52" rx="14.83" ry="14.95"/>
        <ellipse class="blueberry-vanilla-b" cx="273.9" cy="428.83" rx="14.83" ry="14.95"/>
        <ellipse class="blueberry-vanilla-b" cx="255.61" cy="414.83" rx="14.83" ry="14.95"/>
      </g>
      <ellipse class="blueberry-vanilla-e" cx="270.89" cy="414.79" rx="5.04" ry="5.08"/>
    </g>
    <g>
      <g>
        <ellipse class="blueberry-vanilla-b" cx="407.98" cy="333" rx="14.83" ry="14.95"/>
        <ellipse class="blueberry-vanilla-b" cx="399.89" cy="357.31" rx="14.83" ry="14.95"/>
        <ellipse class="blueberry-vanilla-b" cx="381.6" cy="343.31" rx="14.83" ry="14.95"/>
      </g>
      <ellipse class="blueberry-vanilla-e" cx="396.88" cy="343.27" rx="5.04" ry="5.08"/>
    </g>
    <g>
      <path class="blueberry-vanilla-b" d="M517.26,407.83a29.85,29.85,0,0,1-7.75,5.4l-.13.06a15,15,0,0,1,3.29-18.56q1,3.27,2.14,6.48c.1.27.19.55.29.82.17.49.35,1,.52,1.44C516.15,404.93,516.69,406.38,517.26,407.83Z"/>
      <path class="blueberry-vanilla-b" d="M515.1,402a14.75,14.75,0,0,1-20,1.93A15,15,0,0,1,492.26,383,14.74,14.74,0,0,1,508,377.63l.06.26c.12.56.25,1.1.38,1.66.22.91.45,1.81.67,2.71.28,1.11.56,2.21.86,3.31s.53,1.92.8,2.89.49,1.73.76,2.58c.17.62.36,1.23.54,1.84s.38,1.24.59,1.85q1,3.27,2.14,6.48C514.91,401.48,515,401.76,515.1,402Z"/>
    </g>
  </g>
  <circle class="blueberry-vanilla-e" cx="140.03" cy="442.3" r="13.67"/>
  <circle class="blueberry-vanilla-e" cx="67.34" cy="460.29" r="7.2"/>
  <path class="blueberry-vanilla-e" d="M27,497.71a9.36,9.36,0,0,1-9.35,9.36l-.6,0q2.75-8.64,5.92-17A9.35,9.35,0,0,1,27,497.71Z"/>
  <circle class="blueberry-vanilla-e" cx="27.04" cy="559.6" r="9.36"/>
  <circle class="blueberry-vanilla-e" cx="50.07" cy="608.54" r="13.67"/>
  <path class="blueberry-vanilla-e" d="M28.48,656a12.93,12.93,0,0,1-2,6.94,101,101,0,0,1-18.88,3.29,12.78,12.78,0,0,1-3.9-5c-.34-2.25-.69-4.52-1-6.8A13,13,0,0,1,28.48,656Z"/>
  <circle class="blueberry-vanilla-f" cx="124.77" cy="680.45" r="20.73"/>
  <circle class="blueberry-vanilla-f" cx="216.72" cy="785.93" r="20.73"/>
  <circle class="blueberry-vanilla-f" cx="282.53" cy="681.35" r="21.64"/>
  <circle class="blueberry-vanilla-f" cx="367.27" cy="801.25" r="20.73"/>
  <circle class="blueberry-vanilla-f" cx="415.05" cy="717.41" r="20.73"/>
  <circle class="blueberry-vanilla-f" cx="475.45" cy="633.57" r="18.93"/>
  <circle class="blueberry-vanilla-f" cx="527.74" cy="738.15" r="18.93"/>
  <path class="blueberry-vanilla-f" d="M294.25,877.88a21.57,21.57,0,0,1-8.17,16.93c-9.59-.08-19.08-.51-28.42-1.3a21.63,21.63,0,1,1,36.59-15.63Z"/>
  <circle class="blueberry-vanilla-f" cx="87.8" cy="776.91" r="18.93"/>
  <path class="blueberry-vanilla-g" d="M426.51,230.78q0,6.21-.54,12.29a135.93,135.93,0,0,1-20.35,60.43,137,137,0,0,1-232.15,0,136,136,0,0,1-17.61-42.82,137,137,0,1,1,270.65-29.9Z"/>
  <path class="blueberry-vanilla-h" d="M426.51,230.78q0,6.21-.54,12.29c-161.86-50.47-170.05-124.8-170.05-124.8-24.61,107.66-100,142.44-100,142.44l0,0a137,137,0,1,1,270.65-29.9Z"/>
  <g>
    <circle class="blueberry-vanilla-i" cx="364.04" cy="248.46" r="22.44"/>
    <circle class="blueberry-vanilla-i" cx="215.06" cy="248.46" r="22.44"/>
  </g>
  <path class="blueberry-vanilla-i" d="M385,243.37s.69-8.84,5.31-11.21c0,0-6.78-1.42-8.25,3.26,0,0,1.75-5.58,5.05-7.29,0,0-8.07-.2-12.49,6.46S385,243.37,385,243.37Z"/>
  <path class="blueberry-vanilla-i" d="M193.93,243.37s-.69-8.84-5.31-11.21c0,0,6.79-1.42,8.26,3.26,0,0-1.76-5.58-5.06-7.29,0,0,8.07-.2,12.49,6.46S193.93,243.37,193.93,243.37Z"/>
  <circle class="blueberry-vanilla-j" cx="373.81" cy="238.35" r="4.49"/>
  <ellipse class="blueberry-vanilla-j" cx="378.64" cy="248.02" rx="6.53" ry="3.81" transform="translate(7.01 506.42) rotate(-68.04)"/>
  <circle class="blueberry-vanilla-j" cx="201.29" cy="239.55" r="3.82"/>
  <ellipse class="blueberry-vanilla-j" cx="197.47" cy="248.46" rx="2.69" ry="5.09"/>
  <path class="blueberry-vanilla-k" d="M289.5,300.1a111.47,111.47,0,0,0,11.38-2.46l5.38,6.72c.89,1.12-17.48,5.15-17.48,5.15Z"/>
  <path class="blueberry-vanilla-l" d="M276.83,324.51a23.77,23.77,0,0,0,33.63,0"/>
  <g>
    <path class="blueberry-vanilla-m" d="M223.35,327.54a30.65,30.65,0,0,1-6.72,19.19,137.66,137.66,0,0,1-43.16-43.23,30.74,30.74,0,0,1,49.88,24Z"/>
    <path class="blueberry-vanilla-m" d="M405.62,303.5a137.49,137.49,0,0,1-43.14,43.23,30.73,30.73,0,0,1,43.14-43.23Z"/>
  </g>
</svg>
