<svg xmlns="http://www.w3.org/2000/svg" viewBox="0 0 576.15 891.38">
  <defs>
    <style>
      .mint-strawberry-a {
        fill: #7ff3c2;
      }

      .mint-strawberry-b {
        fill: #f8d68e;
      }

      .mint-strawberry-c {
        fill: #f1ae67;
      }

      .mint-strawberry-d {
        fill: #5fca9e;
      }

      .mint-strawberry-e {
        fill: #ff8280;
      }

      .mint-strawberry-f {
        fill: #fff1b5;
      }

      .mint-strawberry-g {
        fill: #fac9cd;
      }

      .mint-strawberry-h {
        fill: #4bc999;
      }

      .mint-strawberry-i {
        fill: #ffe4dc;
      }

      .mint-strawberry-j {
        fill: #3c8c66;
      }

      .mint-strawberry-k {
        fill: #40a37b;
      }

      .mint-strawberry-l {
        fill: #fd8783;
      }

      .mint-strawberry-m {
        fill: #fab0bf;
      }

      .mint-strawberry-n {
        fill: #e5cfca;
      }

      .mint-strawberry-o {
        fill: #80573b;
      }

      .mint-strawberry-p {
        fill: #fff;
      }

      .mint-strawberry-q {
        opacity: 0.15;
      }
    </style>
  </defs>
  <title>mint-strawberry-doll</title>
  <g>
    <path class="mint-strawberry-a" d="M576.15,612.41v1.45q0,4.6-.11,9.13-.09,3.32-.22,6.59c0,.15,0,.3,0,.45q-.21,4.71-.54,9.33-.27,3.72-.61,7.4-.27,2.93-.59,5.8-1.42,12.78-3.77,24.91t-5.64,23.83c-.18.64-.36,1.28-.55,1.92q-2.37,8.19-5.18,16-1.14,3.18-2.35,6.3-1.35,3.51-2.79,6.94c-1,2.34-2,4.64-3,6.93q-3.35,7.35-7.09,14.36l-.8,1.47a244.54,244.54,0,0,1-36.24,50.3l-2.24,2.34c-1.93,2-3.9,4-5.9,5.91q-3.25,3.18-6.63,6.21l-.83.74c-2,1.77-4,3.5-6,5.21q-4.58,3.82-9.34,7.42c-2,1.49-3.94,3-5.94,4.36s-4.12,2.91-6.22,4.31a264.43,264.43,0,0,1-25.71,15.17h0a278,278,0,0,1-27,12.17A300.52,300.52,0,0,1,378,880.08q-10.08,2.67-20.46,4.71l-2.59.5q-12.29,2.33-25,3.76-6.7.76-13.52,1.27-5.76.43-11.57.69-4.69.21-9.43.3-3.69.08-7.41.07-4.24,0-8.46-.1-3.53-.07-7-.22-7.48-.3-14.87-.9-8.49-.67-16.83-1.76-16.84-2.16-33-5.89a311.32,311.32,0,0,1-36.88-11,285.82,285.82,0,0,1-28.39-12.17,266.35,266.35,0,0,1-29.22-16.83q-3.16-2.09-6.25-4.29-3.29-2.31-6.48-4.74Q96,830,91.46,826.22q-2.85-2.36-5.62-4.84-.51-.42-1-.9-3.42-3-6.73-6.25-3-2.88-5.89-5.88c-.7-.72-1.39-1.44-2.06-2.16A238.14,238.14,0,0,1,52,784.6h0A242.19,242.19,0,0,1,33.72,756c-.25-.45-.5-.9-.74-1.36q-3.85-7.14-7.29-14.64-1.57-3.43-3.06-6.93-1.74-4.11-3.36-8.33c-.79-2.08-1.56-4.17-2.31-6.29q-2.39-6.71-4.45-13.66c-.5-1.72-1-3.44-1.47-5.18a1.21,1.21,0,0,1,0-.18q-2.53-9.18-4.49-18.78c-.29-1.38-.56-2.77-.82-4.17h0Q3.48,664.9,2.11,652.7c-.22-2-.43-4-.61-5.94-.23-2.49-.44-5-.62-7.52q-.31-4.47-.52-9c0-.29,0-.58,0-.87h0q-.12-3-.2-6.07Q0,618.62,0,613.86v-1.35q0-3.15.08-6.28.06-3.36.2-6.7.36-9.71,1.24-19.24c.15-1.75.32-3.5.51-5.24q.66-6.39,1.55-12.69c.07-.51.14-1,.22-1.53q1.41-9.8,3.35-19.38,1.95-9.8,4.44-19.36c.43-1.66.87-3.3,1.32-4.94.64-2.35,1.3-4.68,2-7h0c.69-2.4,1.43-4.77,2.19-7.13.11-.37.23-.74.35-1.1a.08.08,0,0,1,0-.05q1.24-3.9,2.61-7.74,1.15-3.35,2.4-6.66c.61-1.65,1.23-3.29,1.88-4.92q2.4-6.19,5.05-12.26c.57-1.34,1.16-2.66,1.77-4h0q1.2-2.68,2.46-5.34c1.09-2.34,2.22-4.67,3.38-7,.26-.55.53-1.09.81-1.63l.49-1c.66-1.29,1.32-2.56,2-3.83q1.23-2.37,2.51-4.69s0,0,0,0l.15-.27c.31-.57.62-1.14.94-1.7q3.18-5.74,6.58-11.32c.44-.82.87-1.64,1.29-2.47.76-1.47,1.51-2.94,2.22-4.43h0q3.06-6.23,5.71-12.66a2.6,2.6,0,0,0,.1-.25q.39-.92.75-1.83,1.65-4.12,3.14-8.33c.49-1.36,1-2.73,1.42-4.11a221,221,0,0,0,8.3-33.31c.22-1.27.42-2.55.61-3.84.46-3,.86-6.09,1.19-9.16,0-.35.08-.7.1-1h0c.52-4.9.87-9.86,1-14.84h0q.16-4.19.16-8.4c0-1.95,0-3.9-.08-5.85,0-1.37-.08-2.73-.14-4.09-.07-1.74-.17-3.47-.29-5.19h0c-.08-1.4-.19-2.79-.32-4.18,0-.34,0-.67-.09-1h0c0-.27,0-.53-.07-.81q-.33-3.56-.78-7.1c-.18-1.48-.39-3-.61-4.44-.18-1.28-.38-2.56-.59-3.83q-.81-4.94-1.84-9.8c-.77-3-1.46-6-2.09-9l-.15-.74c-.27-1.28-.53-2.56-.76-3.85q-.89-4.57-1.56-9.22c0-.25-.07-.5-.1-.75Q66,247.47,65.46,239.8q-.52-7.08-.59-14.28c0-.76,0-1.53,0-2.3s0-1.27,0-1.91c0-1.64,0-3.27.09-4.9h0c0-1.42.1-2.83.17-4.24,0-.28,0-.56,0-.85,0-.75.09-1.51.13-2.27q.22-3.45.54-6.87c.12-1.26.25-2.52.39-3.77s.29-2.6.46-3.9q.9-7,2.23-13.87c.25-1.28.5-2.56.78-3.83q1.14-5.42,2.55-10.74h0l.33-1.24q1.29-4.78,2.8-9.48c.31-1,.63-2,1-3q2.31-6.91,5.06-13.62c.5-1.24,1-2.46,1.54-3.68q2.52-5.87,5.37-11.55l.09-.18c.36-.72.72-1.43,1.09-2.14h0q1.74-3.39,3.6-6.7c.63-1.14,1.28-2.27,1.94-3.4q3.18-5.47,6.66-10.75c.72-1.08,1.44-2.15,2.17-3.22s1.64-2.36,2.48-3.53c1.31-1.84,2.66-3.67,4-5.47.56-.76,1.14-1.51,1.72-2.25l.54-.69c.74-.93,1.48-1.86,2.23-2.78q1.53-1.87,3.1-3.72c.45-.54.91-1.07,1.37-1.6q4.71-5.43,9.75-10.55,2.34-2.39,4.76-4.68h0c1.61-1.55,3.24-3.06,4.9-4.55.64-.59,1.29-1.16,1.95-1.73l1-.88q3.5-3,7.12-5.93,1.51-1.21,3.06-2.4,4.24-3.27,8.64-6.34c1.07-.75,2.14-1.48,3.22-2.2q3-2,6-3.9l2.4-1.48.59-.36q5.13-3.12,10.45-5.95h0c.86-.46,1.73-.92,2.6-1.36q6.5-3.36,13.24-6.3c1.1-.48,2.2-.95,3.31-1.4,1.52-.64,3.06-1.26,4.6-1.86,1.11-.44,2.23-.86,3.36-1.28l.61-.23,2.74-1q3.26-1.16,6.57-2.2c1.17-.38,2.33-.74,3.51-1.1h0c1.24-.37,2.49-.73,3.74-1.08Q237,5.63,246.89,3.8c1.27-.24,2.54-.47,3.82-.68q4.17-.7,8.4-1.26l1.45-.18c.9-.11,1.8-.22,2.71-.31q3.6-.4,7.24-.69h0c2-.15,4-.28,6-.38h0c3.84-.2,7.69-.3,11.58-.3l2.77,0q2.64,0,5.28.12,5.31.2,10.55.63c.13,0,.26,0,.38,0l1,.08q4.33.39,8.61.93c1.28.17,2.56.34,3.84.53q10,1.46,19.73,3.79c1.26.3,2.52.61,3.77.94s2.73.71,4.08,1.09q3,.83,5.92,1.73h0c1,.32,2.05.65,3.06,1h0q.32.09.63.21c1.78.57,3.54,1.17,5.3,1.8h0c1.35.48,2.69,1,4,1.49.66.24,1.33.5,2,.76q6.82,2.66,13.44,5.75h0c1.13.53,2.24,1.06,3.36,1.62q4.86,2.35,9.59,5h0l.39.21,1,.57Q401,30.56,405,33l3.29,2.06q6.76,4.34,13.19,9.13c1.05.78,2.09,1.57,3.12,2.38q3.62,2.79,7.1,5.73l.36.3q6.71,5.66,12.94,11.82,5,4.91,9.64,10.14c.56.62,1.11,1.25,1.66,1.88q1.61,1.83,3.15,3.69,1.41,1.67,2.76,3.36c.2.25.4.49.59.74.47.58.93,1.17,1.39,1.76,1.39,1.78,2.74,3.57,4.09,5.39h0c.8,1.09,1.59,2.19,2.36,3.29s1.5,2.14,2.24,3.23c2.29,3.37,4.5,6.82,6.61,10.32.67,1.12,1.34,2.25,2,3.38q2.28,3.93,4.39,7.95l.66,1.28.27.52c1.73,3.37,3.38,6.77,4.93,10.24h0q1,2.15,1.9,4.32,2.78,6.51,5.13,13.21c.19.54.37,1.08.55,1.62.63,1.81,1.23,3.62,1.81,5.45,0,0,0,0,0,0,.43,1.39.86,2.78,1.26,4.18a3.31,3.31,0,0,1,.12.42h0c.66,2.26,1.28,4.52,1.86,6.8q.78,3,1.45,6c.29,1.27.57,2.55.84,3.83q1.18,5.73,2.09,11.56c.19,1.28.38,2.57.55,3.86s.35,2.64.5,4c.26,2.13.48,4.27.68,6.43l.21,2.62c0,.25,0,.51.05.77.12,1.62.23,3.26.31,4.89s.14,3,.19,4.57c0,1.18.06,2.37.08,3.55s0,2.36,0,3.54q0,5.57-.28,11.07-.36,7.53-1.21,14.91l-.12,1q-.56,4.57-1.29,9.07c-.2,1.29-.42,2.56-.66,3.84h0c-.38,2.16-.8,4.3-1.25,6.44q-1.15,4.45-2.1,9c-.42,2-.81,4-1.17,6-.24,1.27-.46,2.55-.66,3.83s-.39,2.34-.56,3.52c-.3,2-.58,4.06-.82,6.1-.15,1.23-.28,2.47-.41,3.7a1.49,1.49,0,0,0,0,.21c-.19,1.83-.35,3.66-.5,5.5-.11,1.42-.2,2.85-.28,4.29-.07,1.13-.13,2.27-.17,3.41q-.23,4.86-.22,9.77c0,1.6,0,3.2.06,4.79.1,5,.37,10,.81,15,0,.21,0,.41.05.61.29,3.16.64,6.31,1.06,9.43.17,1.29.35,2.57.55,3.85a221,221,0,0,0,9,37.37c.46,1.38.94,2.75,1.43,4.11q1.59,4.46,3.37,8.83c.17.43.35.87.53,1.3q3.66,8.87,8.06,17.32c.36.71.74,1.42,1.11,2.12,2.16,4.09,4.48,8.12,6.91,12.06q.36.62.75,1.23s0,0,0,0,.09.17.13.25c.83,1.5,1.64,3,2.43,4.54s1.59,3,2.37,4.57a.91.91,0,0,0,.07.14c.57,1.14,1.14,2.27,1.69,3.42q1.62,3.25,3.15,6.56,1,2.22,2,4.45c.6,1.32,1.18,2.65,1.75,4q2.41,5.55,4.63,11.22,1,2.46,1.9,4.93c1.07,2.87,2.11,5.76,3.1,8.67.63,1.8,1.23,3.6,1.82,5.41l.59,1.83q2.22,6.9,4.15,13.95c.47,1.67.92,3.36,1.35,5.05q2.46,9.39,4.4,19c.25,1.22.49,2.44.73,3.66,1,5,1.83,10.11,2.58,15.23h0a2.51,2.51,0,0,1,0,.27l.09.57h0q1,7,1.76,14.06c.19,1.75.36,3.5.52,5.26q.9,9.75,1.27,19.67.14,3.35.2,6.71Q576.13,609.35,576.15,612.41Z"/>
    <g>
      <path class="mint-strawberry-b" d="M133.21,793.13a71.29,71.29,0,0,1-19.81,49.43q-3.16-2.09-6.25-4.29-3.29-2.31-6.48-4.74Q96,830,91.46,826.22q-2.85-2.36-5.62-4.84-.51-.42-1-.9-3.42-3-6.73-6.25-3-2.88-5.89-5.88c-.7-.72-1.39-1.44-2.06-2.16A238.14,238.14,0,0,1,52,784.6h0A242.19,242.19,0,0,1,33.72,756c-.25-.45-.5-.9-.74-1.36q-3.85-7.14-7.29-14.64-1.57-3.43-3.06-6.93a71.59,71.59,0,0,1,110.58,60Z"/>
      <path class="mint-strawberry-c" d="M125.73,793.13a63.88,63.88,0,0,1-18.58,45.14q-3.29-2.31-6.48-4.74Q96,830,91.46,826.22q-2.85-2.36-5.62-4.84-.51-.42-1-.9-3.42-3-6.73-6.25-3-2.88-5.89-5.88c-.7-.72-1.39-1.44-2.06-2.16A238.14,238.14,0,0,1,52,784.6h0A242.19,242.19,0,0,1,33.72,756c-.25-.45-.5-.9-.74-1.36q-3.85-7.14-7.29-14.64a64.12,64.12,0,0,1,100,53.09Z"/>
      <g>
        <g>
          <path class="mint-strawberry-d" d="M81.67,756.88a17.43,17.43,0,1,1-34.85,0c0-9.62,3.3-21,17.31-21C78.37,735.92,81.67,747.26,81.67,756.88Z"/>
          <circle class="mint-strawberry-e" cx="64.24" cy="756.88" r="9.16"/>
        </g>
        <g>
          <path class="mint-strawberry-d" d="M106.59,800.37a17.43,17.43,0,0,1-17.24-30.29c8.37-4.76,19.86-7.5,26.79,4.67C123.18,787.13,115,795.61,106.59,800.37Z"/>
          <circle class="mint-strawberry-e" cx="97.97" cy="785.22" r="9.16"/>
        </g>
        <g>
          <path class="mint-strawberry-d" d="M100.67,833.53Q96,830,91.46,826.22q-2.85-2.36-5.62-4.84-.51-.42-1-.9-3.42-3-6.73-6.25-3-2.88-5.89-5.88A17.42,17.42,0,0,1,99,813.49c.2.38.39.76.58,1.15.32.66.62,1.34.91,2C102.75,822.13,103.7,828.32,100.67,833.53Z"/>
          <path class="mint-strawberry-e" d="M91.46,826.22q-2.85-2.36-5.62-4.84-.51-.42-1-.9-3.42-3-6.73-6.25a8.55,8.55,0,0,1,1.23-.78,9.17,9.17,0,0,1,12.36,3.87,7.69,7.69,0,0,1,.4.88,8.45,8.45,0,0,1,.47,1.61A9.17,9.17,0,0,1,91.46,826.22Z"/>
        </g>
        <g>
          <path class="mint-strawberry-f" d="M107.17,802.92a16.82,16.82,0,0,1-6.67,13.76,17.26,17.26,0,0,1-7.82,3.11l-.13,0a34.69,34.69,0,0,0-6.71,1.57q-.51-.42-1-.9-3.42-3-6.73-6.25-3-2.88-5.89-5.88c-.7-.72-1.39-1.44-2.06-2.16A238.14,238.14,0,0,1,52,784.6h0A242.19,242.19,0,0,1,33.72,756c-.25-.45-.5-.9-.74-1.36a16.38,16.38,0,0,1,14.57-5.14h0A17.43,17.43,0,0,1,53,751.39c1,.52,2,1,3,1.49a21.42,21.42,0,0,0,8.63,2.23,11.41,11.41,0,0,0,4.66-1c.23-.1.45-.21.67-.33s.68-.35,1-.5.94-.42,1.41-.6a21,21,0,0,1,8.87-1.36c8.58.55,15.93,6.49,16.63,15.24a18.29,18.29,0,0,1-.22,4.57,45.31,45.31,0,0,0-.6,4.94c0,.55,0,1.1,0,1.65,0,3.68.79,7.17,3.23,9.89.16.18.33.36.51.53a20.8,20.8,0,0,1,3.21,4,20.09,20.09,0,0,1,3,8A19.71,19.71,0,0,1,107.17,802.92Z"/>
          <path class="mint-strawberry-g" d="M106.14,800.61v.15a18,18,0,0,1-6.55,13.88,17.42,17.42,0,0,1-7.51,3.56c-.37.08-.75.14-1.13.2a17.81,17.81,0,0,0-6.13,2.08q-3.42-3-6.73-6.25-3-2.88-5.89-5.88c-.7-.72-1.39-1.44-2.06-2.16A238.14,238.14,0,0,1,52,784.6h0A242.19,242.19,0,0,1,33.72,756a17.5,17.5,0,0,1,19.76-2.22,16.66,16.66,0,0,0,1.88.85,17.74,17.74,0,0,0,13.94-.52c.23-.1.45-.21.67-.33s.68-.35,1-.5,1-.41,1.43-.57a17.11,17.11,0,0,1,8.94-.71,17.82,17.82,0,0,1,14.45,15.14,18.29,18.29,0,0,1-.13,5.31,17.88,17.88,0,0,0-.26,3c0,.31,0,.62,0,.93a17.72,17.72,0,0,0,4.82,11.23c.16.18.33.36.51.53a17.81,17.81,0,0,1,3.12,4A17.09,17.09,0,0,1,106.14,800.61Z"/>
          <path class="mint-strawberry-f" d="M75.85,794.85a14.1,14.1,0,0,1-5.71,11.34A238.14,238.14,0,0,1,52,784.6h0a14.13,14.13,0,0,1,23.83,10.26Z"/>
        </g>
      </g>
    </g>
    <g>
      <path class="mint-strawberry-b" d="M553.78,732.5c-1,2.34-2,4.64-3,6.93q-3.35,7.35-7.09,14.36l-.8,1.47a244.54,244.54,0,0,1-36.24,50.3l-2.24,2.34c-1.93,2-3.9,4-5.9,5.91q-3.25,3.18-6.63,6.21l-.83.74c-2,1.77-4,3.5-6,5.21q-4.58,3.82-9.34,7.42c-2,1.49-3.94,3-5.94,4.36s-4.12,2.91-6.22,4.31A71.58,71.58,0,0,1,553.78,732.5Z"/>
      <path class="mint-strawberry-c" d="M550.75,739.43q-3.35,7.35-7.09,14.36l-.8,1.47a244.54,244.54,0,0,1-36.24,50.3l-2.24,2.34c-1.93,2-3.9,4-5.9,5.91q-3.25,3.18-6.63,6.21l-.83.74c-2,1.77-4,3.5-6,5.21q-4.58,3.82-9.34,7.42c-2,1.49-3.94,3-5.94,4.36a64.11,64.11,0,0,1,81-98.32Z"/>
      <g>
        <g>
          <path class="mint-strawberry-d" d="M535.78,756.88a17.43,17.43,0,1,1-34.86,0c0-9.62,3.31-21,17.31-21C532.47,735.92,535.78,747.26,535.78,756.88Z"/>
          <circle class="mint-strawberry-e" cx="518.35" cy="756.88" r="9.16"/>
        </g>
        <g>
          <path class="mint-strawberry-d" d="M490.29,768.12a17.43,17.43,0,0,1-16.4,30.76c-8.5-4.53-16.95-12.79-10.36-25.14C470.23,761.17,481.8,763.59,490.29,768.12Z"/>
          <circle class="mint-strawberry-e" cx="482.09" cy="783.5" r="9.16"/>
        </g>
        <g>
          <path class="mint-strawberry-d" d="M504.38,807.9c-1.93,2-3.9,4-5.9,5.91q-3.25,3.18-6.63,6.21l-.83.74c-2,1.77-4,3.5-6,5.21q-4.58,3.82-9.34,7.42c-6.25-6.51-5.07-13.95-1.66-20.22.3-.56.63-1.12,1-1.66a37.48,37.48,0,0,1,2.19-3.15,17.43,17.43,0,0,1,24.45-3.14A17.24,17.24,0,0,1,504.38,807.9Z"/>
          <path class="mint-strawberry-e" d="M498.48,813.81q-3.25,3.18-6.63,6.21l-.83.74c-2,1.77-4,3.5-6,5.21a9.12,9.12,0,0,1-3.06-8.56,1.8,1.8,0,0,1,.06-.32,9,9,0,0,1,1.71-3.68,9.15,9.15,0,0,1,14.78.4Z"/>
        </g>
        <g>
          <path class="mint-strawberry-f" d="M543.66,753.79l-.8,1.47a244.54,244.54,0,0,1-36.24,50.3l-2.24,2.34c-1.93,2-3.9,4-5.9,5.91q-3.25,3.18-6.63,6.21l-.83.74a17.3,17.3,0,0,0-4.88-2.44,12.45,12.45,0,0,0-1.88-.43h-.07a20.08,20.08,0,0,1-2.26-.47,18.36,18.36,0,0,1-7.94-4.24A16.55,16.55,0,0,1,468.61,801a16.78,16.78,0,0,1,.74-4.92,19.17,19.17,0,0,1,4.82-7.94l.31-.31c3.94-3.84,7.57-8.15,7.57-13.36v-.08c0-.29,0-.58,0-.87A4.1,4.1,0,0,0,482,773c0-.16,0-.33-.07-.49l-.14-.94a22,22,0,0,1-.18-2.78,21,21,0,0,1,.35-3.83c1.79-9.77,10.3-16.93,19.75-15.39a17.43,17.43,0,0,1,5.44,1.84c1,.52,2,1,3,1.48h0a21.23,21.23,0,0,0,8.62,2.24,11.41,11.41,0,0,0,4.66-1c.23-.1.45-.21.67-.33s.68-.35,1-.5.94-.42,1.41-.6a21,21,0,0,1,8.88-1.36A19.32,19.32,0,0,1,543.66,753.79Z"/>
          <path class="mint-strawberry-g" d="M542.86,755.26a244.54,244.54,0,0,1-36.24,50.3l-2.24,2.34c-1.93,2-3.9,4-5.9,5.91q-3.25,3.18-6.63,6.21a17.72,17.72,0,0,0-5.25-1.62l-.46-.08a17.29,17.29,0,0,1-1.95-.44,15.94,15.94,0,0,1-2.2-.79,17.29,17.29,0,0,1-7-5.58,18.06,18.06,0,0,1-3.55-10.74,16.6,16.6,0,0,1,.29-3.14h0a17.21,17.21,0,0,1,3.67-7.9,18.35,18.35,0,0,1,1.41-1.54,17.71,17.71,0,0,0,5.35-12.7c0-.38,0-.76,0-1.14a8.52,8.52,0,0,0-.08-.87A4.1,4.1,0,0,0,482,773c0-.16,0-.33-.07-.49l-.14-.94a18,18,0,0,1-.13-2.18,16.94,16.94,0,0,1,.56-4.37,17.66,17.66,0,0,1,25.42-11.18,18.49,18.49,0,0,0,1.87.85,17.74,17.74,0,0,0,13.94-.52c.23-.1.45-.21.67-.33s.68-.35,1-.5.95-.41,1.43-.57a17.15,17.15,0,0,1,9-.71A17.78,17.78,0,0,1,542.86,755.26Z"/>
          <path class="mint-strawberry-f" d="M524.68,783.84a242.34,242.34,0,0,1-18.06,21.72,14.13,14.13,0,0,1,18.06-21.72Z"/>
        </g>
      </g>
    </g>
    <g>
      <path class="mint-strawberry-b" d="M64.1,663.63a64.12,64.12,0,0,1-44.83,61.15c-.79-2.08-1.56-4.17-2.31-6.29q-2.39-6.71-4.45-13.66c-.5-1.72-1-3.44-1.47-5.18a1.21,1.21,0,0,1,0-.18q-2.53-9.18-4.49-18.78c-.29-1.38-.56-2.77-.82-4.17h0Q3.48,664.9,2.11,652.7c-.22-2-.43-4-.61-5.94-.23-2.49-.44-5-.62-7.52q-.31-4.47-.52-9c0-.29,0-.58,0-.87h0q-.12-3-.2-6.07Q0,618.62,0,613.86v-1.35q0-3.15.08-6.28.06-3.36.2-6.7A64.1,64.1,0,0,1,64.1,663.63Z"/>
      <path class="mint-strawberry-c" d="M57.4,663.63A57.43,57.43,0,0,1,17,718.49q-2.39-6.71-4.45-13.66c-.5-1.72-1-3.44-1.47-5.18a1.21,1.21,0,0,1,0-.18q-2.53-9.18-4.49-18.78c-.29-1.38-.56-2.77-.82-4.17h0Q3.48,664.9,2.11,652.7c-.22-2-.43-4-.61-5.94-.23-2.49-.44-5-.62-7.52q-.31-4.47-.52-9c0-.29,0-.58,0-.87h0q-.12-3-.2-6.07Q0,618.62,0,613.86v-1.35q0-3.15.08-6.28A57.4,57.4,0,0,1,57.4,663.63Z"/>
      <g>
        <g>
          <path class="mint-strawberry-d" d="M18,631.17A15.61,15.61,0,0,1,2.34,646.78l-.84,0c-.23-2.49-.44-5-.62-7.52q-.31-4.47-.52-9c0-.29,0-.58,0-.87h0q-.12-3-.2-6.07Q0,618.62,0,613.86v-1.35a20.06,20.06,0,0,1,2.24-.12c10.35,0,14.25,6.7,15.35,13.83l.09.6A33.86,33.86,0,0,1,18,631.17Z"/>
          <path class="mint-strawberry-e" d="M10.54,631.17a8.2,8.2,0,0,1-8.2,8.2,7.77,7.77,0,0,1-1.46-.13q-.31-4.47-.52-9c0-.29,0-.58,0-.87h0q-.12-3-.2-6.07a8.18,8.18,0,0,1,9.52,4.16l0,0A8.2,8.2,0,0,1,10.54,631.17Z"/>
        </g>
        <g>
          <path class="mint-strawberry-d" d="M40.27,670.12A15.61,15.61,0,1,1,24.83,643c7.49-4.27,17.78-6.72,24,4.18C55.12,658.26,47.76,665.85,40.27,670.12Z"/>
          <circle class="mint-strawberry-e" cx="32.55" cy="656.55" r="8.2"/>
        </g>
        <g>
          <path class="mint-strawberry-d" d="M28.44,705.68c-6.63,3.48-11.9,2.28-15.93-.85-.5-1.72-1-3.44-1.47-5.18a1.21,1.21,0,0,1,0-.18q-2.53-9.18-4.49-18.78a15.6,15.6,0,0,1,27,1.17c.18.34.36.69.52,1,.29.59.57,1.19.82,1.81C37.78,691.92,38.22,700.57,28.44,705.68Z"/>
          <circle class="mint-strawberry-e" cx="19.64" cy="689.1" r="8.2"/>
        </g>
        <g>
          <path class="mint-strawberry-f" d="M40.79,672.4a15,15,0,0,1-6,12.32,15.37,15.37,0,0,1-7,2.78l-.12,0a27.74,27.74,0,0,0-7.77,2.14,12,12,0,0,0-5,4.26c-.19.34-.4.67-.58,1,0,.09-.09.17-.14.26s0,0,0,0A18.93,18.93,0,0,1,11,699.65a1.21,1.21,0,0,1,0-.18q-2.53-9.18-4.49-18.78c-.29-1.38-.56-2.77-.82-4.17h0Q3.48,664.9,2.11,652.7c-.22-2-.43-4-.61-5.94-.23-2.49-.44-5-.62-7.52q-.31-4.47-.52-9c0-.29,0-.58,0-.87a13.55,13.55,0,0,0,2.36.22,10.23,10.23,0,0,0,4.18-.86c.21-.09.41-.19.61-.3s.64-.32,1-.47.81-.36,1.22-.51a18.84,18.84,0,0,1,8-1.22c7.67.5,14.26,5.82,14.89,13.65a16.4,16.4,0,0,1-.19,4.1,41.36,41.36,0,0,0-.55,4.42c0,.5,0,1,0,1.49,0,3.27.7,6.38,2.86,8.8.15.18.32.34.49.51l.7.72a19.1,19.1,0,0,1,2.18,2.83,18.24,18.24,0,0,1,2.68,7.19A17.1,17.1,0,0,1,40.79,672.4Z"/>
          <path class="mint-strawberry-g" d="M39.86,670.34v.12A16.11,16.11,0,0,1,34,682.91a15.64,15.64,0,0,1-6.72,3.17c-.33.07-.67.13-1,.18a15.87,15.87,0,0,0-12,8.68c0,.09-.09.17-.14.26s0,0,0,0A15.51,15.51,0,0,1,11,699.47q-2.53-9.18-4.49-18.78c-.29-1.38-.56-2.77-.82-4.17h0Q3.48,664.9,2.11,652.7c-.22-2-.43-4-.61-5.94-.23-2.49-.44-5-.62-7.52q-.31-4.47-.52-9a15.62,15.62,0,0,0,6.5-1.51c.21-.09.41-.19.61-.3s.64-.32,1-.47.82-.34,1.24-.48a15.41,15.41,0,0,1,8-.65,15.84,15.84,0,0,1,12.81,18.33,16.17,16.17,0,0,0-.23,2.68c0,.28,0,.56,0,.84a15.8,15.8,0,0,0,4.28,10c.15.18.32.34.49.51l.7.72a15.81,15.81,0,0,1,4.11,10.43Z"/>
          <path class="mint-strawberry-f" d="M12.73,665.17a12.61,12.61,0,0,1-7,11.34Q3.48,664.9,2.11,652.7A12.63,12.63,0,0,1,12.73,665.17Z"/>
        </g>
      </g>
    </g>
    <g>
      <path class="mint-strawberry-b" d="M576.15,612.41v1.45q0,4.6-.11,9.13-.09,3.32-.22,6.59c0,.15,0,.3,0,.45q-.21,4.71-.54,9.33-.27,3.72-.61,7.4-.27,2.93-.59,5.8-1.42,12.78-3.77,24.91t-5.64,23.83c-.18.64-.36,1.28-.55,1.92q-2.37,8.19-5.18,16-1.14,3.18-2.35,6.3a64.1,64.1,0,0,1,16.57-126q1.38,0,2.73.06.14,3.35.2,6.71Q576.13,609.35,576.15,612.41Z"/>
      <path class="mint-strawberry-c" d="M576.15,612.41v1.45q0,4.6-.11,9.13-.09,3.32-.22,6.59c0,.15,0,.3,0,.45q-.21,4.71-.54,9.33-.27,3.72-.61,7.4-.27,2.93-.59,5.8-1.42,12.78-3.77,24.91t-5.64,23.83c-.18.64-.36,1.28-.55,1.92q-2.37,8.19-5.18,16a57.41,57.41,0,0,1,14.22-113c1,0,2,0,2.93.07Q576.13,609.35,576.15,612.41Z"/>
      <g>
        <g>
          <path class="mint-strawberry-d" d="M576.15,612.41v1.45q0,4.6-.11,9.13-.09,3.32-.22,6.59c0,.15,0,.3,0,.45q-.21,4.71-.54,9.33-.27,3.72-.61,7.4a15.61,15.61,0,0,1-14.78-15.59,32.85,32.85,0,0,1,.3-4.51c.09-.69.21-1.38.36-2.06,1.42-6.5,5.43-12.21,14.84-12.21C575.64,612.39,575.9,612.39,576.15,612.41Z"/>
          <path class="mint-strawberry-e" d="M576,623q-.09,3.32-.22,6.59c0,.15,0,.3,0,.45q-.21,4.71-.54,9.33a8.18,8.18,0,0,1-8-8.19,7.64,7.64,0,0,1,.25-2,8,8,0,0,1,.57-1.6,8.21,8.21,0,0,1,7.38-4.61Z"/>
        </g>
        <g>
          <path class="mint-strawberry-d" d="M550.35,641.24a15.61,15.61,0,1,1-14.69,27.54c-7.6-4.06-15.17-11.45-9.27-22.52C532.39,635,542.75,637.18,550.35,641.24Z"/>
          <circle class="mint-strawberry-e" cx="543.01" cy="655.01" r="8.2"/>
        </g>
        <g>
          <path class="mint-strawberry-d" d="M538.59,677.27a15.61,15.61,0,1,1,24.7,19.08c-5.27,6.82-13.82,13-23.75,5.38C529.45,693.94,533.32,684.09,538.59,677.27Z"/>
          <circle class="mint-strawberry-e" cx="550.94" cy="686.81" r="8.2"/>
        </g>
        <g>
          <path class="mint-strawberry-f" d="M575.82,629.58c0,.15,0,.3,0,.45q-.21,4.71-.54,9.33-.27,3.72-.61,7.4-.27,2.93-.59,5.8-1.42,12.78-3.77,24.91t-5.64,23.83c-.18.64-.36,1.28-.55,1.92a14,14,0,0,1-3.91-3.37,16,16,0,0,1-2-3.16,21.25,21.25,0,0,0-2.15-3.44,23.25,23.25,0,0,0-3.32-3.56,16.84,16.84,0,0,0-6-3.49h0a11.25,11.25,0,0,0-1.7-.38h0a21,21,0,0,1-2.07-.42,16.47,16.47,0,0,1-7.12-3.82,14.84,14.84,0,0,1-4.81-10.94,15.23,15.23,0,0,1,.65-4.4,17.27,17.27,0,0,1,4.32-7.11l.28-.28c3.53-3.44,6.78-7.3,6.78-12v-.08a9.37,9.37,0,0,0-.15-1.65l-.18-1.41a17.9,17.9,0,0,1-.1-1.92,19.36,19.36,0,0,1,.31-3.43c1.6-8.75,9.22-15.16,17.68-13.79a15.6,15.6,0,0,1,4.87,1.65c.89.47,1.79.92,2.7,1.33A19.07,19.07,0,0,0,575.82,629.58Z"/>
          <path class="mint-strawberry-g" d="M573.22,630.24a16,16,0,0,0,2.58-.21q-.21,4.71-.54,9.33-.27,3.72-.61,7.4-.27,2.93-.59,5.8-1.42,12.78-3.77,24.91t-5.64,23.83a14.86,14.86,0,0,1-3.21-2.74,15.53,15.53,0,0,1-2.44-3.62,16,16,0,0,0-1.8-2.83,15.8,15.8,0,0,0-10.15-5.85l-.38-.06h0a13.14,13.14,0,0,1-1.7-.38h0a13.31,13.31,0,0,1-2-.72,15.34,15.34,0,0,1-6.31-5,16.29,16.29,0,0,1-3.17-9.63,14.74,14.74,0,0,1,.26-2.8,15.38,15.38,0,0,1,3.28-7.08,16.44,16.44,0,0,1,1.27-1.39,15.84,15.84,0,0,0,4.79-11.36c0-.34,0-.69,0-1a15.44,15.44,0,0,0-.19-1.65l-.18-1.41q-.06-.69-.06-1.38a15.31,15.31,0,0,1,.5-3.92,15.82,15.82,0,0,1,22.76-10,14.12,14.12,0,0,0,1.69.76A15.72,15.72,0,0,0,573.22,630.24Z"/>
          <path class="mint-strawberry-f" d="M574.06,652.56q-1.42,12.78-3.77,24.91a12.64,12.64,0,0,1,2.93-24.94Z"/>
        </g>
      </g>
    </g>
    <g>
      <path class="mint-strawberry-b" d="M59.49,530.53a50.35,50.35,0,0,1-58,49.76c.15-1.75.32-3.5.51-5.24q.66-6.39,1.55-12.69c.07-.51.14-1,.22-1.53q1.41-9.8,3.35-19.38,1.95-9.8,4.44-19.36c.43-1.66.87-3.3,1.32-4.94.64-2.35,1.3-4.68,2-7h0c.69-2.4,1.43-4.77,2.19-7.13.11-.37.23-.74.35-1.1a.08.08,0,0,1,0-.05q1.24-3.9,2.61-7.74,1.15-3.35,2.4-6.66c.61-1.65,1.23-3.29,1.88-4.92A50.36,50.36,0,0,1,59.49,530.53Z"/>
      <path class="mint-strawberry-c" d="M54.24,530.53A45.12,45.12,0,0,1,2,575.05q.66-6.39,1.55-12.69c.07-.51.14-1,.22-1.53q1.41-9.8,3.35-19.38,1.95-9.8,4.44-19.36c.43-1.66.87-3.3,1.32-4.94.64-2.35,1.3-4.68,2-7h0c.69-2.4,1.43-4.77,2.19-7.13.11-.37.23-.74.35-1.1a.08.08,0,0,1,0-.05q1.24-3.9,2.61-7.74,1.15-3.35,2.4-6.66A45.1,45.1,0,0,1,54.24,530.53Z"/>
      <g>
        <g>
          <path class="mint-strawberry-d" d="M23.26,505a12.26,12.26,0,0,1-10.35,12.11c.64-2.35,1.3-4.68,2-7h0c.69-2.4,1.43-4.77,2.19-7.13.11-.37.23-.74.35-1.1a.08.08,0,0,1,0-.05q1.24-3.9,2.61-7.74a14.37,14.37,0,0,1,2.89,7l.06.47A24.6,24.6,0,0,1,23.26,505Z"/>
          <path class="mint-strawberry-e" d="M17.44,505a6.38,6.38,0,0,1-2.52,5.1c.69-2.4,1.43-4.77,2.19-7.13A6.22,6.22,0,0,1,17.44,505Z"/>
        </g>
        <g>
          <path class="mint-strawberry-d" d="M40.78,535.62a12.25,12.25,0,1,1-12.12-21.3c5.88-3.35,14-5.27,18.83,3.29S46.66,532.28,40.78,535.62Z"/>
          <circle class="mint-strawberry-e" cx="34.72" cy="524.97" r="6.44"/>
        </g>
        <g>
          <path class="mint-strawberry-d" d="M13.73,556.21a12.25,12.25,0,1,1,21.71-11.36c3.14,6,4.78,14.14-3.95,18.7S16.86,562.21,13.73,556.21Z"/>
          <circle class="mint-strawberry-e" cx="24.58" cy="550.53" r="6.44"/>
        </g>
        <g>
          <path class="mint-strawberry-f" d="M41.19,537.41a11.81,11.81,0,0,1-4.7,9.68A12.13,12.13,0,0,1,31,549.28h-.09a21.5,21.5,0,0,0-6.1,1.68,9.33,9.33,0,0,0-3.92,3.28c0,.08-.1.15-.14.23a2.53,2.53,0,0,0-.13.22l-.22.41a2.12,2.12,0,0,1-.11.21c-.11.22-.22.43-.34.63a14.44,14.44,0,0,1-3.65,4.25,13.46,13.46,0,0,1-8.35,3,11.66,11.66,0,0,1-4.37-.83c.07-.51.14-1,.22-1.53q1.41-9.8,3.35-19.38,1.95-9.8,4.44-19.36c.43-1.66.87-3.3,1.32-4.94.64-2.35,1.3-4.68,2-7h0c.69-2.4,1.43-4.77,2.19-7.13.11-.37.23-.74.35-1.1a.08.08,0,0,1,0-.05,14.6,14.6,0,0,1,5.5-.7c6,.4,11.19,4.56,11.68,10.71a12.64,12.64,0,0,1-.15,3.22,33.53,33.53,0,0,0-.42,3.47c0,.39,0,.77,0,1.15a10,10,0,0,0,2.27,7l.36.37.91,1A13.33,13.33,0,0,1,39,529.82a14.38,14.38,0,0,1,2.1,5.64A14.21,14.21,0,0,1,41.19,537.41Z"/>
          <path class="mint-strawberry-g" d="M40.46,535.79v.1a12.65,12.65,0,0,1-4.61,9.78,12.4,12.4,0,0,1-5.27,2.49l-.8.14a12.5,12.5,0,0,0-5.53,2.25,12.3,12.3,0,0,0-3.63,4.15l-.22.41a2.12,2.12,0,0,1-.11.21c-.11.22-.22.43-.34.63a12.07,12.07,0,0,1-3.82,4,12.56,12.56,0,0,1-12.33.84q1.41-9.8,3.35-19.38,1.95-9.8,4.44-19.36c.43-1.66.87-3.3,1.32-4.94.64-2.35,1.3-4.68,2-7h0c.69-2.4,1.43-4.77,2.19-7.13.11-.37.23-.74.35-1.1a12.07,12.07,0,0,1,5.58-.28,12.53,12.53,0,0,1,10.15,10.65A12.76,12.76,0,0,1,33.1,516a12.41,12.41,0,0,0-.18,2.1c0,.22,0,.44,0,.66a12.43,12.43,0,0,0,3.39,7.9l.36.37.91,1a12.49,12.49,0,0,1,1.28,1.85A12.15,12.15,0,0,1,40.46,535.79Z"/>
          <path class="mint-strawberry-f" d="M19.16,531.74a9.93,9.93,0,0,1-9.93,9.93,9.54,9.54,0,0,1-2.08-.22q1.95-9.8,4.44-19.36A9.94,9.94,0,0,1,19.16,531.74Z"/>
        </g>
      </g>
    </g>
    <g>
      <path class="mint-strawberry-b" d="M574.6,579.92a49.65,49.65,0,0,1-9.74,1A50.34,50.34,0,0,1,551.57,482q1,2.46,1.9,4.93c1.07,2.87,2.11,5.76,3.1,8.67.63,1.8,1.23,3.6,1.82,5.41l.59,1.83q2.22,6.9,4.15,13.95c.47,1.67.92,3.36,1.35,5.05q2.46,9.39,4.4,19c.25,1.22.49,2.44.73,3.66,1,5,1.83,10.11,2.58,15.23h0a2.51,2.51,0,0,1,0,.27l.09.57h0q1,7,1.76,14.06C574.27,576.41,574.44,578.16,574.6,579.92Z"/>
      <path class="mint-strawberry-c" d="M574.08,574.66a45.08,45.08,0,0,1-20.61-87.75c1.07,2.87,2.11,5.76,3.1,8.67.63,1.8,1.23,3.6,1.82,5.41l.59,1.83q2.22,6.9,4.15,13.95c.47,1.67.92,3.36,1.35,5.05q2.46,9.39,4.4,19c.25,1.22.49,2.44.73,3.66,1,5,1.83,10.11,2.58,15.23h0a2.51,2.51,0,0,1,0,.27l.09.57h0Q573.33,567.59,574.08,574.66Z"/>
      <g>
        <path class="mint-strawberry-d" d="M558.39,501c-.59-1.81-1.19-3.61-1.82-5.41a14.8,14.8,0,0,0-1.61,4.31c-.12.53-.21,1.07-.29,1.62a26.37,26.37,0,0,0-.23,3.53,12.26,12.26,0,0,0,8.69,11.73q-1.92-7-4.15-13.95Z"/>
        <path class="mint-strawberry-d" d="M572.32,560.59l-.32-.39-.17-.21a24.87,24.87,0,0,1-2.41-3.78,12.2,12.2,0,0,1,.19-11.7c1,5,1.83,10.11,2.58,15.23h0a2.51,2.51,0,0,1,0,.27Z"/>
        <g>
          <path class="mint-strawberry-d" d="M547,513a12.25,12.25,0,0,1-11.54,21.62c-6-3.18-11.92-9-7.28-17.68S541,509.76,547,513Z"/>
          <circle class="mint-strawberry-e" cx="541.2" cy="523.76" r="6.44"/>
        </g>
        <g>
          <path class="mint-strawberry-d" d="M537.73,541.24a12.25,12.25,0,1,1,19.39,15c-4.13,5.36-10.85,10.25-18.64,4.23S533.59,546.6,537.73,541.24Z"/>
          <circle class="mint-strawberry-e" cx="547.43" cy="548.73" r="6.44"/>
        </g>
        <g>
          <path class="mint-strawberry-f" d="M572.23,560a1.3,1.3,0,0,1-.23.18,13.49,13.49,0,0,1-8.36,3,11.37,11.37,0,0,1-9-4.22,12.85,12.85,0,0,1-1.59-2.48,16.32,16.32,0,0,0-1.69-2.7,17.63,17.63,0,0,0-2.6-2.8,13.26,13.26,0,0,0-4.79-2.75,7.31,7.31,0,0,0-1.29-.3l-.1,0h0a11.55,11.55,0,0,1-1.49-.3,12.89,12.89,0,0,1-5.57-3,11.64,11.64,0,0,1-3.79-8.6,11.85,11.85,0,0,1,.52-3.46,13.54,13.54,0,0,1,3.38-5.58l.22-.22c2.77-2.7,5.33-5.73,5.33-9.39v-.06c0-.2,0-.41,0-.62s0-.45-.09-.68-.06-.37-.08-.56-.07-.57-.09-.85,0-.8,0-1.21a14.87,14.87,0,0,1,.24-2.69c1.26-6.87,7.24-11.91,13.89-10.82a11.6,11.6,0,0,1,3.43,1.1l.59,1.83q2.22,6.9,4.15,13.95c.47,1.67.92,3.36,1.35,5.05q2.46,9.39,4.4,19c.25,1.22.49,2.44.73,3.66,1,5,1.83,10.11,2.58,15.23h0A2.51,2.51,0,0,1,572.23,560Z"/>
          <path class="mint-strawberry-g" d="M572.19,559.74h0l-.36.24a12.46,12.46,0,0,1-6.91,2.07,12.42,12.42,0,0,1-11.17-6.95,13,13,0,0,0-1.41-2.22,12,12,0,0,0-2.44-2.34,12.5,12.5,0,0,0-5.53-2.25l-.36-.06a12.24,12.24,0,0,1-1.39-.32h0a11.2,11.2,0,0,1-1.44-.53,12,12,0,0,1-4.94-3.93,12.67,12.67,0,0,1-2.5-7.55,11.73,11.73,0,0,1,.21-2.21,11.91,11.91,0,0,1,2.58-5.55,11.2,11.2,0,0,1,1-1.09,12.51,12.51,0,0,0,3.76-8.93c0-.27,0-.53,0-.8s0-.41-.06-.62,0-.45-.09-.68-.06-.37-.08-.56-.07-.57-.09-.85,0-.53,0-.79a12.36,12.36,0,0,1,.39-3.07,12.55,12.55,0,0,1,13.42-9.24,12.16,12.16,0,0,1,4.31,1.31q2.22,6.9,4.15,13.95c.47,1.67.92,3.36,1.35,5.05q2.46,9.39,4.4,19c.25,1.22.49,2.44.73,3.66C570.57,549.54,571.44,554.62,572.19,559.74Z"/>
          <path class="mint-strawberry-f" d="M568.88,540.85a9.93,9.93,0,1,1-4.4-19Q566.94,531.21,568.88,540.85Z"/>
        </g>
      </g>
    </g>
    <g>
      <path class="mint-strawberry-b" d="M91.14,434a41.56,41.56,0,0,1-61.72,36.32c.57-1.34,1.16-2.66,1.77-4h0q1.2-2.68,2.46-5.34c1.09-2.34,2.22-4.67,3.38-7,.26-.55.53-1.09.81-1.63l.49-1c.66-1.29,1.32-2.56,2-3.83q1.23-2.37,2.51-4.69s0,0,0,0l.15-.27c.31-.57.62-1.14.94-1.7q3.18-5.74,6.58-11.32c.44-.82.87-1.64,1.29-2.47.76-1.47,1.51-2.94,2.22-4.43h0q3.06-6.23,5.71-12.66a2.6,2.6,0,0,0,.1-.25q.39-.92.75-1.83,1.65-4.12,3.14-8.33c.49-1.36,1-2.73,1.42-4.11A41.56,41.56,0,0,1,91.14,434Z"/>
      <path class="mint-strawberry-c" d="M86.8,434a37.21,37.21,0,0,1-55.61,32.33h0q1.2-2.68,2.46-5.34c1.09-2.34,2.22-4.67,3.38-7,.26-.55.53-1.09.81-1.63l.49-1c.66-1.29,1.32-2.56,2-3.83q1.23-2.37,2.51-4.69s0,0,0,0l.15-.27c.31-.57.62-1.14.94-1.7q3.18-5.74,6.58-11.32c.44-.82.87-1.64,1.29-2.47.76-1.47,1.51-2.94,2.22-4.43h0q3.06-6.23,5.71-12.66a2.6,2.6,0,0,0,.1-.25q.39-.92.75-1.83,1.65-4.12,3.14-8.33A37.22,37.22,0,0,1,86.8,434Z"/>
      <g>
        <path class="mint-strawberry-d" d="M61.23,412.92A10.12,10.12,0,0,1,54,422.61q3.06-6.23,5.71-12.66a2.6,2.6,0,0,0,.1-.25q.39-.92.75-1.83a16,16,0,0,1,.4,1.85c0,.13,0,.26,0,.39A20.6,20.6,0,0,1,61.23,412.92Z"/>
        <g>
          <path class="mint-strawberry-d" d="M75.69,438.16a10.11,10.11,0,0,1-10-17.58c4.86-2.76,11.53-4.35,15.54,2.71S80.55,435.4,75.69,438.16Z"/>
          <circle class="mint-strawberry-e" cx="70.69" cy="429.37" r="5.32"/>
        </g>
        <g>
          <path class="mint-strawberry-d" d="M53.37,455.15a10.11,10.11,0,1,1,17.92-9.38c2.59,5,3.94,11.67-3.26,15.44S56,460.1,53.37,455.15Z"/>
          <circle class="mint-strawberry-e" cx="62.33" cy="450.46" r="5.32"/>
        </g>
        <g>
          <path class="mint-strawberry-d" d="M43.22,455.16c-.38.48-.78,1-1.2,1.43q-.39.42-.81.84c-2.09,2-4.66,3.56-7.56,3.51,1.09-2.34,2.22-4.67,3.38-7,.26-.55.53-1.09.81-1.63l.49-1c.66-1.29,1.32-2.56,2-3.83q1.23-2.37,2.51-4.69s0,0,0,0l.15-.27A10.12,10.12,0,0,1,43.22,455.16Z"/>
          <path class="mint-strawberry-e" d="M39.42,452.23a1.14,1.14,0,0,1-.15.17,4.2,4.2,0,0,1-.77.75A5.07,5.07,0,0,1,37,454c.26-.55.53-1.09.81-1.63l.49-1c.66-1.29,1.32-2.56,2-3.83A5.27,5.27,0,0,1,39.42,452.23Z"/>
        </g>
        <g>
          <path class="mint-strawberry-f" d="M76,439.63a9.79,9.79,0,0,1-3.88,8,10,10,0,0,1-4.53,1.8h-.08a17.5,17.5,0,0,0-5,1.38,7.48,7.48,0,0,0-3.63,3.42,1.62,1.62,0,0,1-.1.18c-.08.18-.18.35-.27.51a11.77,11.77,0,0,1-3,3.51,11.07,11.07,0,0,1-6.89,2.47,9.36,9.36,0,0,1-7.39-3.48,10.3,10.3,0,0,1-1.32-2.05,13.68,13.68,0,0,0-1.39-2.23q-.31-.42-.66-.81l.49-1c.66-1.29,1.32-2.56,2-3.83q1.23-2.37,2.51-4.69s0,0,0,0l.15-.27c.31-.57.62-1.14.94-1.7q3.18-5.74,6.58-11.32c.44-.82.87-1.64,1.29-2.47.76-1.47,1.51-2.94,2.22-4.43h0q3.06-6.23,5.71-12.66a2.6,2.6,0,0,0,.1-.25,8.83,8.83,0,0,1,1.15,0c5,.32,9.24,3.77,9.65,8.84h0a10.35,10.35,0,0,1-.13,2.64,25.24,25.24,0,0,0-.34,2.87c0,.32,0,.64,0,.95a8.07,8.07,0,0,0,2.17,6.05l.75.81.31.38a10.35,10.35,0,0,1,.8,1.11A11.58,11.58,0,0,1,75.91,438,10.77,10.77,0,0,1,76,439.63Z"/>
          <path class="mint-strawberry-g" d="M75.43,438.3v.08a10.42,10.42,0,0,1-3.81,8.06,10,10,0,0,1-4.35,2.06c-.21.05-.43.09-.65.12a10.29,10.29,0,0,0-4.57,1.85,10.19,10.19,0,0,0-3.17,3.77,1.62,1.62,0,0,1-.1.18c-.08.18-.18.35-.27.51a10,10,0,0,1-3.15,3.34A10.36,10.36,0,0,1,42,456.59a10.39,10.39,0,0,1-1.58-2.35,10.26,10.26,0,0,0-1.17-1.84,9.19,9.19,0,0,0-.94-1c.66-1.29,1.32-2.56,2-3.83q1.23-2.37,2.51-4.69s0,0,0,0l.15-.27c.31-.57.62-1.14.94-1.7q3.18-5.74,6.58-11.32c.44-.82.87-1.64,1.29-2.47.76-1.47,1.51-2.94,2.22-4.43h0q3.06-6.23,5.71-12.66a11,11,0,0,1,1.3.16,10.37,10.37,0,0,1,8.39,8.79,10.68,10.68,0,0,1-.08,3.08,10.22,10.22,0,0,0-.15,1.74c0,.18,0,.36,0,.54a10.25,10.25,0,0,0,3.1,6.82l.75.81a10.3,10.3,0,0,1,1.06,1.54A10,10,0,0,1,75.43,438.3Z"/>
          <path class="mint-strawberry-f" d="M57.85,435A8.2,8.2,0,0,1,44,440.84q3.18-5.74,6.58-11.32c.44-.82.87-1.64,1.29-2.47A8.21,8.21,0,0,1,57.85,435Z"/>
        </g>
      </g>
    </g>
    <g>
      <path class="mint-strawberry-b" d="M546.94,470.76a41.55,41.55,0,1,1-35.81-74.92c.46,1.38.94,2.75,1.43,4.11q1.59,4.46,3.37,8.83c.17.43.35.87.53,1.3q3.66,8.87,8.06,17.32c.36.71.74,1.42,1.11,2.12,2.16,4.09,4.48,8.12,6.91,12.06q.36.62.75,1.23s0,0,0,0,.09.17.13.25c.83,1.5,1.64,3,2.43,4.54s1.59,3,2.37,4.57a.91.91,0,0,0,.07.14c.57,1.14,1.14,2.27,1.69,3.42q1.62,3.25,3.15,6.56,1,2.22,2,4.45C545.79,468.1,546.37,469.43,546.94,470.76Z"/>
      <path class="mint-strawberry-c" d="M545.19,466.78A37.21,37.21,0,1,1,512.56,400q1.59,4.46,3.37,8.83c.17.43.35.87.53,1.3q3.66,8.87,8.06,17.32c.36.71.74,1.42,1.11,2.12,2.16,4.09,4.48,8.12,6.91,12.06q.36.62.75,1.23s0,0,0,0,.09.17.13.25c.83,1.5,1.64,3,2.43,4.54s1.59,3,2.37,4.57a.91.91,0,0,0,.07.14c.57,1.14,1.14,2.27,1.69,3.42q1.62,3.25,3.15,6.56Q544.2,464.55,545.19,466.78Z"/>
      <g>
        <g>
          <path class="mint-strawberry-d" d="M540,455.77q1.62,3.25,3.15,6.56c-4.17,1-7.34-1.06-9.61-3.89,0-.05-.09-.11-.14-.17a21,21,0,0,1-2-3.12,10.11,10.11,0,0,1,2-12c.83,1.5,1.64,3,2.43,4.54s1.59,3,2.37,4.57a.91.91,0,0,0,.07.14C538.89,453.49,539.46,454.62,540,455.77Z"/>
          <path class="mint-strawberry-e" d="M540,455.77a5.32,5.32,0,0,1-3.17-1.36,5.19,5.19,0,0,1-1.16-1.49,5.31,5.31,0,0,1,.2-5.28q1.2,2.28,2.37,4.57a.91.91,0,0,0,.07.14C538.89,453.49,539.46,454.62,540,455.77Z"/>
        </g>
        <g>
          <path class="mint-strawberry-d" d="M512.89,419.44a10.12,10.12,0,1,1-9.52,17.85c-4.93-2.63-9.83-7.42-6-14.59S508,416.81,512.89,419.44Z"/>
          <circle class="mint-strawberry-e" cx="508.13" cy="428.37" r="5.32"/>
        </g>
        <g>
          <path class="mint-strawberry-d" d="M505.27,442.79a10.12,10.12,0,0,1,16,12.37c-3.42,4.42-9,8.46-15.39,3.49S501.85,447.21,505.27,442.79Z"/>
          <circle class="mint-strawberry-e" cx="513.27" cy="448.98" r="5.32"/>
        </g>
        <g>
          <path class="mint-strawberry-f" d="M538.32,452.35a6.87,6.87,0,0,0-1.07,1.31c-.11.19-.22.38-.32.58l-.09.17c-.09.18-.18.35-.28.52a11.74,11.74,0,0,1-3,3.51,11.12,11.12,0,0,1-6.9,2.47,9.34,9.34,0,0,1-7.38-3.48,10.3,10.3,0,0,1-1.32-2.05,13.68,13.68,0,0,0-1.39-2.23,15.21,15.21,0,0,0-2.16-2.31,10.85,10.85,0,0,0-4-2.28,7.43,7.43,0,0,0-1-.23h0a13,13,0,0,1-1.33-.27,10.7,10.7,0,0,1-4.61-2.48,9.56,9.56,0,0,1-3.12-7.08,9.77,9.77,0,0,1,.43-2.86,11.13,11.13,0,0,1,2.79-4.6l.19-.19c2.28-2.23,4.39-4.73,4.39-7.74v-.06c0-.14,0-.27,0-.41A5,5,0,0,0,508,422l-.08-.55c0-.18,0-.36-.05-.54l0-.27c0-.27,0-.53,0-.79a12.61,12.61,0,0,1,.2-2.24,10.94,10.94,0,0,1,7.9-8.81c.17.43.35.87.53,1.3q3.66,8.87,8.06,17.32c.36.71.74,1.42,1.11,2.12,2.16,4.09,4.48,8.12,6.91,12.06q.36.62.75,1.23s0,0,0,0,.09.17.13.25c.83,1.5,1.64,3,2.43,4.54s1.59,3,2.37,4.57A.91.91,0,0,0,538.32,452.35Z"/>
          <path class="mint-strawberry-g" d="M535.88,447.64q1.2,2.28,2.37,4.57a9.81,9.81,0,0,0-1,1.45,6.55,6.55,0,0,0-.32.58l-.09.17c-.09.18-.18.35-.28.52a10.22,10.22,0,0,1-3.15,3.34,10.33,10.33,0,0,1-5.7,1.7,10.21,10.21,0,0,1-7.64-3.38,10.39,10.39,0,0,1-1.58-2.35,10.8,10.8,0,0,0-1.16-1.84,10.5,10.5,0,0,0-2-1.93,10.34,10.34,0,0,0-4.57-1.85l-.32-.06a7.43,7.43,0,0,0-1-.23h0a9,9,0,0,1-1.29-.47,9.92,9.92,0,0,1-4.09-3.25,10.47,10.47,0,0,1-2.05-6.22,9.45,9.45,0,0,1,.17-1.83,10.36,10.36,0,0,1,2.95-5.48,10.27,10.27,0,0,0,3.1-7.36c0-.22,0-.45,0-.67a1.9,1.9,0,0,0,0-.41A5,5,0,0,0,508,422l-.08-.55c0-.18,0-.36-.05-.54l0-.27c0-.15,0-.3,0-.45a9.67,9.67,0,0,1,.33-2.54,10.4,10.4,0,0,1,8.28-7.55q3.66,8.87,8.06,17.32c.36.71.74,1.42,1.11,2.12,2.16,4.09,4.48,8.12,6.91,12.06q.36.62.75,1.23s0,0,0,0,.09.17.13.25C534.28,444.6,535.09,446.12,535.88,447.64Z"/>
          <path class="mint-strawberry-f" d="M532.54,441.58a8.2,8.2,0,1,1-8-14.18c.36.71.74,1.42,1.11,2.12C527.79,433.61,530.11,437.64,532.54,441.58Z"/>
        </g>
      </g>
    </g>
    <g>
      <path class="mint-strawberry-b" d="M115.33,325.22a37.19,37.19,0,0,1-37.2,37.19,37.9,37.9,0,0,1-4.67-.29c.22-1.27.42-2.55.61-3.84.46-3,.86-6.09,1.19-9.16,0-.35.08-.7.1-1h0c.52-4.9.87-9.86,1-14.84h0q.16-4.19.16-8.4c0-1.95,0-3.9-.08-5.85,0-1.37-.08-2.73-.14-4.09-.07-1.74-.17-3.47-.29-5.19h0c-.08-1.4-.19-2.79-.32-4.18,0-.34,0-.67-.09-1h0c0-.27,0-.53-.07-.81q-.33-3.56-.78-7.1c-.18-1.48-.39-3-.61-4.44-.18-1.28-.38-2.56-.59-3.83a35.78,35.78,0,0,1,4.53-.28A37.19,37.19,0,0,1,115.33,325.22Z"/>
      <path class="mint-strawberry-c" d="M111.45,325.22a33.32,33.32,0,0,1-33.32,33.31,32.07,32.07,0,0,1-4.06-.25c.46-3,.86-6.09,1.19-9.16,0-.35.08-.7.1-1h0c.52-4.9.87-9.86,1-14.84h0q.16-4.19.16-8.4c0-1.95,0-3.9-.08-5.85,0-1.37-.08-2.73-.14-4.09-.07-1.74-.17-3.47-.29-5.19h0c-.08-1.4-.19-2.79-.32-4.18,0-.34,0-.67-.09-1h0c0-.27,0-.53-.07-.81q-.33-3.56-.78-7.1c-.18-1.48-.39-3-.61-4.44a34.17,34.17,0,0,1,3.94-.23A33.32,33.32,0,0,1,111.45,325.22Z"/>
      <g>
        <g>
          <path class="mint-strawberry-d" d="M88.55,306.38a9.06,9.06,0,0,1-12.2,8.5c-.07-1.74-.17-3.47-.29-5.19h0c-.08-1.4-.19-2.79-.32-4.18,0-.34,0-.67-.09-1h0c0-.27,0-.53-.07-.81q-.33-3.56-.78-7.1a9.19,9.19,0,0,1,4.63-1.09c6,0,8.27,3.88,8.91,8,0,.12,0,.23,0,.35A19.76,19.76,0,0,1,88.55,306.38Z"/>
          <path class="mint-strawberry-e" d="M84.25,306.38a4.77,4.77,0,0,1-8.19,3.31h0c-.08-1.4-.19-2.79-.32-4.18,0-.34,0-.67-.09-1h0c0-.27,0-.53-.07-.81a4.76,4.76,0,0,1,8.15.54v0A4.67,4.67,0,0,1,84.25,306.38Z"/>
        </g>
        <g>
          <path class="mint-strawberry-d" d="M101.5,329a9.06,9.06,0,0,1-9-15.75c4.35-2.47,10.32-3.89,13.92,2.43S105.85,326.5,101.5,329Z"/>
          <circle class="mint-strawberry-e" cx="97.02" cy="321.11" r="4.76"/>
        </g>
        <g>
          <path class="mint-strawberry-d" d="M81.51,344.19a9.06,9.06,0,0,1,16-8.4c2.32,4.43,3.53,10.45-2.92,13.83S83.83,348.62,81.51,344.19Z"/>
          <circle class="mint-strawberry-e" cx="89.53" cy="339.99" r="4.76"/>
        </g>
        <g>
          <path class="mint-strawberry-f" d="M101.8,330.3a8.58,8.58,0,0,1-7.53,8.77H94.2a15.85,15.85,0,0,0-4.5,1.24,6.74,6.74,0,0,0-3,2.54,5.29,5.29,0,0,0-.29.52.83.83,0,0,1-.09.16,10.79,10.79,0,0,1-2.93,3.6,10,10,0,0,1-6.18,2.21,8.24,8.24,0,0,1-2-.23c0-.35.08-.7.1-1h0c.52-4.9.87-9.86,1-14.84h0q.16-4.19.16-8.4c0-1.95,0-3.9-.08-5.85,0-1.37-.08-2.73-.14-4.09-.07-1.74-.17-3.47-.29-5.19h0c-.08-1.4-.19-2.79-.32-4.18,0-.34,0-.67-.09-1a10.56,10.56,0,0,0,4,1,6,6,0,0,0,2.4-.48c.13-.06.26-.12.38-.19l.64-.31.62-.26a11,11,0,0,1,4.61-.71c4.46.29,8.28,3.38,8.64,7.93a9.14,9.14,0,0,1-.11,2.37,24.87,24.87,0,0,0-.31,2.58q0,.42,0,.84a7.47,7.47,0,0,0,1.62,5.08l.33.34.67.72a4,4,0,0,1,.27.34,7.4,7.4,0,0,1,.73,1,10.7,10.7,0,0,1,1.55,4.17A10,10,0,0,1,101.8,330.3Z"/>
          <path class="mint-strawberry-g" d="M101.27,329.1v.08a9.31,9.31,0,0,1-3.41,7.21A8.92,8.92,0,0,1,94,338.23a5.4,5.4,0,0,1-.58.11A9.28,9.28,0,0,0,89.28,340a9.09,9.09,0,0,0-2.55,2.86,5.29,5.29,0,0,0-.29.52.83.83,0,0,1-.09.16A9,9,0,0,1,83.29,347a9.21,9.21,0,0,1-5.11,1.53,9.37,9.37,0,0,1-2.82-.43h0c.52-4.9.87-9.86,1-14.84h0q.16-4.19.16-8.4c0-1.95,0-3.9-.08-5.85,0-1.37-.08-2.73-.14-4.09-.07-1.74-.17-3.47-.29-5.19h0c-.08-1.4-.19-2.79-.32-4.18a8.82,8.82,0,0,0,2.44.34,9.33,9.33,0,0,0,3.91-.87c.13-.06.26-.12.38-.19l.64-.31q.31-.14.63-.24a9,9,0,0,1,4.65-.38,9.3,9.3,0,0,1,7.51,7.88,9.52,9.52,0,0,1-.07,2.76A9.09,9.09,0,0,0,95.7,316c0,.16,0,.33,0,.49a9.25,9.25,0,0,0,2.44,5.77l.33.34.67.72a4,4,0,0,1,.27.34,7.33,7.33,0,0,1,.67,1A8.82,8.82,0,0,1,101.27,329.1Z"/>
          <path class="mint-strawberry-f" d="M85.52,326.11a7.34,7.34,0,0,1-7.34,7.34,6.92,6.92,0,0,1-1.77-.22h0q.16-4.19.16-8.4c0-1.95,0-3.9-.08-5.85a7.24,7.24,0,0,1,1.69-.2A7.34,7.34,0,0,1,85.52,326.11Z"/>
        </g>
      </g>
    </g>
    <g>
      <path class="mint-strawberry-b" d="M104,231.7a37.2,37.2,0,0,1-34.44,37.1c-.27-1.28-.53-2.56-.76-3.85q-.89-4.57-1.56-9.22c0-.25-.07-.5-.1-.75Q66,247.47,65.46,239.8q-.52-7.08-.59-14.28c0-.76,0-1.53,0-2.3s0-1.27,0-1.91c0-1.64,0-3.27.09-4.9h0c0-1.42.1-2.83.17-4.24,0-.28,0-.56,0-.85,0-.75.09-1.51.13-2.27q.22-3.45.54-6.87c.12-1.26.25-2.52.39-3.77s.29-2.6.46-3.9h.09A37.19,37.19,0,0,1,104,231.7Z"/>
      <path class="mint-strawberry-c" d="M100.08,231.7A33.31,33.31,0,0,1,68.76,265q-.89-4.57-1.56-9.22c0-.25-.07-.5-.1-.75Q66,247.47,65.46,239.8q-.52-7.08-.59-14.28c0-.76,0-1.53,0-2.3s0-1.27,0-1.91c0-1.64,0-3.27.09-4.9h0c0-1.42.1-2.83.17-4.24,0-.28,0-.56,0-.85,0-.75.09-1.51.13-2.27q.22-3.45.54-6.87c.12-1.26.25-2.52.39-3.77h.55A33.31,33.31,0,0,1,100.08,231.7Z"/>
      <g>
        <g>
          <path class="mint-strawberry-d" d="M77.18,212.86a9.05,9.05,0,0,1-12.32,8.45c0-1.64,0-3.27.09-4.9h0c0-1.42.1-2.83.17-4.24,0-.28,0-.56,0-.85,0-.75.09-1.51.13-2.27q.22-3.45.54-6.87a11,11,0,0,1,2.23-.21c6,0,8.27,3.88,8.91,8,0,.12,0,.23,0,.35A19.76,19.76,0,0,1,77.18,212.86Z"/>
          <path class="mint-strawberry-e" d="M72.89,212.86A4.77,4.77,0,0,1,65,216.41h0c0-1.42.1-2.83.17-4.24,0-.28,0-.56,0-.85,0-.75.09-1.51.13-2.27a4.76,4.76,0,0,1,7.08,1.65v0A4.67,4.67,0,0,1,72.89,212.86Z"/>
        </g>
        <g>
          <path class="mint-strawberry-d" d="M90.13,235.46a9.06,9.06,0,1,1-8.95-15.75c4.34-2.47,10.32-3.89,13.91,2.43S94.48,233,90.13,235.46Z"/>
          <circle class="mint-strawberry-e" cx="85.65" cy="227.59" r="4.76"/>
        </g>
        <g>
          <path class="mint-strawberry-d" d="M70.14,250.67a9.06,9.06,0,0,1,16-8.4c2.32,4.44,3.53,10.46-2.92,13.83S72.46,255.1,70.14,250.67Z"/>
          <circle class="mint-strawberry-e" cx="78.17" cy="246.47" r="4.76"/>
        </g>
        <g>
          <path class="mint-strawberry-f" d="M90.44,236.78A8.77,8.77,0,0,1,87,243.94a9.06,9.06,0,0,1-4.07,1.61h-.07a15.94,15.94,0,0,0-4.5,1.24,6.74,6.74,0,0,0-3,2.54,5.29,5.29,0,0,0-.29.52L75,250a10.76,10.76,0,0,1-2.94,3.61,10,10,0,0,1-4.85,2.11c0-.25-.07-.5-.1-.75Q66,247.47,65.46,239.8q-.52-7.08-.59-14.28c0-.76,0-1.53,0-2.3s0-1.27,0-1.91c0-1.64,0-3.27.09-4.9h0c0-1.42.1-2.83.17-4.24,0-.28,0-.56,0-.85a9.34,9.34,0,0,0,3.16.62,6,6,0,0,0,2.4-.48c.13-.06.26-.12.38-.19l.64-.31c.21-.1.42-.18.63-.26A10.94,10.94,0,0,1,77,210c4.46.29,8.28,3.38,8.64,7.93a9.14,9.14,0,0,1-.11,2.37,24.87,24.87,0,0,0-.31,2.58q0,.42,0,.84a7.47,7.47,0,0,0,1.62,5.08l.33.34.67.72c.1.11.19.23.28.34a8.3,8.3,0,0,1,.72,1,10.72,10.72,0,0,1,1.56,4.17A10,10,0,0,1,90.44,236.78Z"/>
          <path class="mint-strawberry-g" d="M89.9,235.58v.08a9.34,9.34,0,0,1-3.41,7.22,9,9,0,0,1-3.91,1.84l-.57.1a9.28,9.28,0,0,0-4.09,1.66,9.12,9.12,0,0,0-2.56,2.86,5.29,5.29,0,0,0-.29.52L75,250a8.91,8.91,0,0,1-3.07,3.45A9.06,9.06,0,0,1,67.1,255Q66,247.47,65.46,239.8q-.52-7.08-.59-14.28c0-.76,0-1.53,0-2.3s0-1.27,0-1.91c0-1.64,0-3.27.09-4.9h0c0-1.42.1-2.83.17-4.24a8.82,8.82,0,0,0,1.7.16,9.31,9.31,0,0,0,3.9-.87c.13-.06.26-.12.38-.19l.64-.31c.21-.09.42-.17.64-.24a8.94,8.94,0,0,1,4.64-.38,9.28,9.28,0,0,1,7.51,7.88,9.52,9.52,0,0,1-.07,2.76,9.09,9.09,0,0,0-.13,1.55c0,.16,0,.33,0,.49a9.25,9.25,0,0,0,2.44,5.77l.33.34.67.72a9.35,9.35,0,0,1,1,1.37A9,9,0,0,1,89.9,235.58Z"/>
          <path class="mint-strawberry-f" d="M74.16,232.59a7.34,7.34,0,0,1-7.34,7.34,6.75,6.75,0,0,1-1.36-.13q-.52-7.08-.59-14.28a7,7,0,0,1,1.95-.27A7.34,7.34,0,0,1,74.16,232.59Z"/>
        </g>
      </g>
    </g>
    <g>
      <path class="mint-strawberry-b" d="M117,145a37.22,37.22,0,0,1-48,35.59c.25-1.28.5-2.56.78-3.83q1.14-5.42,2.55-10.74h0l.33-1.24q1.29-4.78,2.8-9.48c.31-1,.63-2,1-3q2.31-6.91,5.06-13.62c.5-1.24,1-2.46,1.54-3.68q2.52-5.87,5.37-11.55l.09-.18c.36-.72.72-1.43,1.09-2.14h0q1.74-3.39,3.6-6.7c.63-1.14,1.28-2.27,1.94-3.4A37.21,37.21,0,0,1,117,145Z"/>
      <path class="mint-strawberry-c" d="M113.08,145A33.34,33.34,0,0,1,69.69,176.8q1.14-5.42,2.55-10.74h0l.33-1.24q1.29-4.78,2.8-9.48c.31-1,.63-2,1-3q2.31-6.91,5.06-13.62c.5-1.24,1-2.46,1.54-3.68q2.52-5.87,5.37-11.55l.09-.18c.36-.72.72-1.43,1.09-2.14h0q1.74-3.39,3.6-6.7A33.32,33.32,0,0,1,113.08,145Z"/>
      <g>
        <path class="mint-strawberry-d" d="M90.18,126.2a9.06,9.06,0,0,1-7.25,8.88q2.52-5.87,5.37-11.55l.09-.18c.36-.72.72-1.43,1.09-2.14a13.87,13.87,0,0,1,.49,2.12c0,.12,0,.23,0,.35A19.49,19.49,0,0,1,90.18,126.2Z"/>
        <g>
          <path class="mint-strawberry-d" d="M103.13,148.8a9.06,9.06,0,1,1-9-15.74c4.35-2.48,10.33-3.9,13.92,2.43S107.48,146.33,103.13,148.8Z"/>
          <circle class="mint-strawberry-e" cx="98.65" cy="140.93" r="4.76"/>
        </g>
        <g>
          <path class="mint-strawberry-d" d="M83.14,164a9.06,9.06,0,0,1,16-8.39c2.32,4.43,3.53,10.45-2.92,13.82S85.46,168.45,83.14,164Z"/>
          <circle class="mint-strawberry-e" cx="91.16" cy="159.81" r="4.76"/>
        </g>
        <path class="mint-strawberry-d" d="M74.05,164c-.34.43-.69.86-1.08,1.28-.23.26-.47.51-.72.76h0l.33-1.24q1.29-4.78,2.8-9.48A9,9,0,0,1,74.05,164Z"/>
        <g>
          <path class="mint-strawberry-f" d="M103.43,150.12a8.58,8.58,0,0,1-7.53,8.77h-.07a15.94,15.94,0,0,0-4.5,1.24,6.74,6.74,0,0,0-3,2.54,5.29,5.29,0,0,0-.29.52l-.08.15A10.76,10.76,0,0,1,85.05,167a10,10,0,0,1-6.18,2.21,8.4,8.4,0,0,1-6.62-3.11h0l.33-1.24q1.29-4.78,2.8-9.48c.31-1,.63-2,1-3q2.31-6.91,5.06-13.62c.5-1.24,1-2.46,1.54-3.68q2.52-5.87,5.37-11.55l.09-.18a10.44,10.44,0,0,1,1.58,0c4.45.29,8.27,3.37,8.64,7.92a9.21,9.21,0,0,1-.11,2.38,24.68,24.68,0,0,0-.31,2.57c0,.28,0,.57,0,.85a7.41,7.41,0,0,0,1.6,5s0,0,0,.06a3,3,0,0,0,.3.32l.67.72c.12.14.23.28.34.43a7.75,7.75,0,0,1,.66.91,10.72,10.72,0,0,1,1.55,4.16A10,10,0,0,1,103.43,150.12Z"/>
          <path class="mint-strawberry-g" d="M102.9,148.92V149a9.36,9.36,0,0,1-3.41,7.23,9,9,0,0,1-3.91,1.83,5.4,5.4,0,0,1-.58.11,9.18,9.18,0,0,0-6.64,4.51,5.29,5.29,0,0,0-.29.52l-.08.15a8.91,8.91,0,0,1-3.07,3.45,9.23,9.23,0,0,1-12-1.5,6.12,6.12,0,0,1-.4-.49q1.29-4.78,2.8-9.48c.31-1,.63-2,1-3q2.31-6.91,5.06-13.62c.5-1.24,1-2.46,1.54-3.68q2.52-5.87,5.37-11.55a8.22,8.22,0,0,1,1.72.15,9.27,9.27,0,0,1,7.51,7.87,9.52,9.52,0,0,1-.07,2.76,9.09,9.09,0,0,0-.13,1.55c0,.16,0,.33,0,.49a9.15,9.15,0,0,0,2.42,5.73s0,0,0,.06a3,3,0,0,0,.3.32l.67.72c.12.14.23.28.34.43a8,8,0,0,1,.61.95A9,9,0,0,1,102.9,148.92Z"/>
          <path class="mint-strawberry-f" d="M87.15,145.93a7.33,7.33,0,0,1-7.33,7.34,7.24,7.24,0,0,1-3.49-.89q2.31-6.91,5.06-13.62A7.35,7.35,0,0,1,87.15,145.93Z"/>
        </g>
      </g>
    </g>
    <g>
      <path class="mint-strawberry-b" d="M133.85,61.85h0q-2.42,2.3-4.76,4.68-5,5.11-9.75,10.55c-.46.53-.92,1.06-1.37,1.6q-1.58,1.84-3.1,3.72c-.75.92-1.49,1.85-2.23,2.78l-.54.69c-.58.74-1.16,1.49-1.72,2.25-1.38,1.8-2.73,3.63-4,5.47-.84,1.17-1.67,2.34-2.48,3.53s-1.45,2.14-2.17,3.22a37.2,37.2,0,0,0,50.19-54q-1.55,1.19-3.06,2.4-3.63,2.9-7.12,5.93l-1,.88c-.66.57-1.31,1.14-1.95,1.73Z"/>
      <path class="mint-strawberry-c" d="M133.85,61.85h0q-2.42,2.3-4.76,4.68-5,5.11-9.75,10.55c-.46.53-.92,1.06-1.37,1.6q-1.58,1.84-3.1,3.72c-.75.92-1.49,1.85-2.23,2.78l-.54.69c-.58.74-1.16,1.49-1.72,2.25-1.38,1.8-2.73,3.63-4,5.47-.84,1.17-1.67,2.34-2.48,3.53a33.31,33.31,0,0,0,45-48.37q-3.63,2.9-7.12,5.93l-1,.88c-.66.57-1.31,1.14-1.95,1.73Z"/>
      <g>
        <g>
          <path class="mint-strawberry-d" d="M133.85,61.85h0a9.05,9.05,0,0,0,12.39,12,2.53,2.53,0,0,0,.23-.12l.2-.12c4.28-2.5,8.36-6.87,4.76-13.2-2.47-4.34-6.06-5-9.48-4.23a10.87,10.87,0,0,0-1.08.3,16,16,0,0,0-2.11.85Z"/>
          <circle class="mint-strawberry-e" cx="141.98" cy="65.82" r="4.76"/>
        </g>
        <g>
          <path class="mint-strawberry-d" d="M126.47,88.91a9.06,9.06,0,0,1,16.05-8.4c2.32,4.43,3.53,10.45-2.92,13.83S128.79,93.34,126.47,88.91Z"/>
          <circle class="mint-strawberry-e" cx="134.49" cy="84.71" r="4.76"/>
        </g>
        <g>
          <path class="mint-strawberry-d" d="M117.38,88.92a15.8,15.8,0,0,1-1.08,1.27,10.44,10.44,0,0,1-.73.76c-2.44,2.38-5.63,4-9.24,2.65,1.31-1.84,2.66-3.67,4-5.47.56-.76,1.14-1.51,1.72-2.25l.54-.69c.74-.93,1.48-1.86,2.23-2.78q1.53-1.87,3.1-3.72A9,9,0,0,1,117.38,88.92Z"/>
          <path class="mint-strawberry-e" d="M114,86.29l-.14.16a4.37,4.37,0,0,1-.69.67,4.73,4.73,0,0,1-2.78,1c.56-.76,1.14-1.51,1.72-2.25l.54-.69c.74-.93,1.48-1.86,2.23-2.78A4.67,4.67,0,0,1,114,86.29Z"/>
        </g>
        <g>
          <path class="mint-strawberry-f" d="M133.85,61.85h0q-2.42,2.3-4.76,4.68-5,5.11-9.75,10.55c-.46.53-.92,1.06-1.37,1.6q-1.58,1.84-3.1,3.72c-.75.92-1.49,1.85-2.23,2.78l-.54.69a11.21,11.21,0,0,1,1.06,1.24,12,12,0,0,1,1.25,2A9.87,9.87,0,0,0,115.57,91a8.39,8.39,0,0,0,6.63,3.12,10,10,0,0,0,6.18-2.21,10.79,10.79,0,0,0,2.93-3.6.83.83,0,0,0,.09-.16,5.29,5.29,0,0,1,.29-.52,6.74,6.74,0,0,1,3-2.54,15.85,15.85,0,0,1,4.5-1.24h.07A8.58,8.58,0,0,0,146.76,75a10,10,0,0,0-.1-1.44,10.7,10.7,0,0,0-1.55-4.17,8.3,8.3,0,0,0-.72-1c-.09-.11-.18-.23-.28-.34l-.67-.72-.33-.34a7.47,7.47,0,0,1-1.62-5.08q0-.42,0-.84a24.87,24.87,0,0,1,.31-2.58,9.14,9.14,0,0,0,.11-2.37,7.68,7.68,0,0,0-.25-1.46l-1,.88c-.66.57-1.31,1.14-1.95,1.73Z"/>
          <path class="mint-strawberry-g" d="M133.85,61.85h0q-2.42,2.3-4.76,4.68-5,5.11-9.75,10.55c-.46.53-.92,1.06-1.37,1.6q-1.58,1.84-3.1,3.72c-.75.92-1.49,1.85-2.23,2.78a9,9,0,0,1,1.21,1.26,8.55,8.55,0,0,1,1,1.65,9.16,9.16,0,0,0,8.25,5.13,9.21,9.21,0,0,0,5.11-1.53,8.93,8.93,0,0,0,3.06-3.44.83.83,0,0,0,.09-.16,5.29,5.29,0,0,1,.29-.52,9.09,9.09,0,0,1,2.55-2.86,9.28,9.28,0,0,1,4.09-1.66,5.4,5.4,0,0,0,.58-.11,8.85,8.85,0,0,0,3.91-1.83,9.34,9.34,0,0,0,3.41-7.22v-.08a9,9,0,0,0-1.17-4.37,10.63,10.63,0,0,0-.67-1c-.09-.11-.18-.23-.28-.34l-.67-.72-.33-.34a9.25,9.25,0,0,1-2.44-5.77c0-.16,0-.33,0-.49a9.09,9.09,0,0,1,.13-1.55,9.52,9.52,0,0,0,.07-2.76,8.52,8.52,0,0,0-.16-.88c-.66.57-1.31,1.14-1.95,1.73Z"/>
          <path class="mint-strawberry-f" d="M130.48,70.83a7.34,7.34,0,0,1-7.34,7.34,7.2,7.2,0,0,1-3.81-1.08q4.71-5.43,9.75-10.55A7.2,7.2,0,0,1,130.48,70.83Z"/>
        </g>
      </g>
    </g>
    <g>
      <path class="mint-strawberry-b" d="M229.69,21a37.2,37.2,0,0,1-69.18,19c1.07-.75,2.14-1.48,3.22-2.2q3-2,6-3.9l2.4-1.48.59-.36q5.13-3.12,10.45-5.95h0c.86-.46,1.73-.92,2.6-1.36q6.5-3.36,13.24-6.3c1.1-.48,2.2-.95,3.31-1.4,1.52-.64,3.06-1.26,4.6-1.86,1.11-.44,2.23-.86,3.36-1.28l.61-.23,2.74-1q3.26-1.16,6.57-2.2c1.17-.38,2.33-.74,3.51-1.1h0c1.24-.37,2.49-.73,3.74-1.08A37,37,0,0,1,229.69,21Z"/>
      <path class="mint-strawberry-c" d="M225.8,21a33.31,33.31,0,0,1-62.07,16.81q3-2,6-3.9l2.4-1.48.59-.36q5.13-3.12,10.45-5.95h0c.86-.46,1.73-.92,2.6-1.36q6.5-3.36,13.24-6.3c1.1-.48,2.2-.95,3.31-1.4,1.52-.64,3.06-1.26,4.6-1.86,1.11-.44,2.23-.86,3.36-1.28l.61-.23,2.74-1q3.26-1.16,6.57-2.2c1.17-.38,2.33-.74,3.51-1.1h0A33.27,33.27,0,0,1,225.8,21Z"/>
      <g>
        <g>
          <path class="mint-strawberry-d" d="M216.06,24.65l-.21.12a2.53,2.53,0,0,1-.23.12,9,9,0,0,1-13.29-7.82c1.52-.64,3.06-1.26,4.6-1.86,1.11-.44,2.23-.86,3.36-1.28l.61-.23,2.74-1q3.26-1.16,6.57-2.2a8.14,8.14,0,0,1,.61,1C224.42,17.79,220.34,22.16,216.06,24.65Z"/>
          <path class="mint-strawberry-e" d="M214.5,20.49l-.05,0a4.66,4.66,0,0,1-.72.51,4.76,4.76,0,0,1-6.8-5.83c1.11-.44,2.23-.86,3.36-1.28l.61-.23,2.74-1a4.77,4.77,0,0,1,.86,7.78Z"/>
        </g>
        <g>
          <path class="mint-strawberry-d" d="M195.86,40a9.06,9.06,0,1,1,16-8.4C214.23,36,215.44,42,209,45.41S198.18,44.42,195.86,40Z"/>
          <circle class="mint-strawberry-e" cx="203.89" cy="35.79" r="4.76"/>
        </g>
        <g>
          <path class="mint-strawberry-d" d="M186.77,40a15.8,15.8,0,0,1-1.08,1.27A10.44,10.44,0,0,1,185,42c-3,2.95-7.24,4.75-12,1.09-3.67-2.84-4.16-6.15-3.26-9.2l2.4-1.48.59-.36q5.13-3.12,10.45-5.95h0a9.54,9.54,0,0,1,2,1.16A9.06,9.06,0,0,1,186.77,40Z"/>
          <circle class="mint-strawberry-e" cx="179.6" cy="34.46" r="4.76"/>
        </g>
        <g>
          <path class="mint-strawberry-f" d="M216.16,26.09a8.74,8.74,0,0,1-3.48,7.16,8.91,8.91,0,0,1-4.06,1.61h-.07a15.94,15.94,0,0,0-4.5,1.24,6.68,6.68,0,0,0-3.26,3.06l-.08.15a10.76,10.76,0,0,1-2.94,3.61,10,10,0,0,1-6.18,2.22A8.39,8.39,0,0,1,185,42a9.87,9.87,0,0,1-1.17-1.83,12,12,0,0,0-1.25-2,13.4,13.4,0,0,0-1.92-2.07A9.68,9.68,0,0,0,177,34.07a5.08,5.08,0,0,0-.84-.19h0a8,8,0,0,1-1.2-.26,9.46,9.46,0,0,1-2.79-1.18l.59-.36q5.13-3.12,10.45-5.95h0c.86-.46,1.73-.92,2.6-1.36q6.5-3.36,13.24-6.3c1.1-.48,2.2-.95,3.31-1.4,1.52-.64,3.06-1.26,4.6-1.86,1.11-.44,2.23-.86,3.36-1.28l.61-.23a7.26,7.26,0,0,0,1.38,4.1c.09.11.18.23.28.34a2.44,2.44,0,0,0,.27.29l.67.72.32.4a7.45,7.45,0,0,1,.68.94,10.58,10.58,0,0,1,1.56,4.16A10,10,0,0,1,216.16,26.09Z"/>
          <path class="mint-strawberry-g" d="M215.62,24.89V25a9.34,9.34,0,0,1-3.41,7.22A9,9,0,0,1,208.3,34l-.57.1a9.22,9.22,0,0,0-6.94,5l-.08.15a9,9,0,0,1-3.06,3.46,9.21,9.21,0,0,1-5.11,1.53,9.12,9.12,0,0,1-6.85-3,9.52,9.52,0,0,1-1.41-2.1,8.94,8.94,0,0,0-1-1.64,9.16,9.16,0,0,0-5.89-3.39l-.38-.07a5.08,5.08,0,0,0-.84-.19h0a7.37,7.37,0,0,1-1.17-.42,9.18,9.18,0,0,1-2.23-1.38q5.13-3.12,10.45-5.95h0c.86-.46,1.73-.92,2.6-1.36q6.5-3.36,13.24-6.3c1.1-.48,2.2-.95,3.31-1.4,1.52-.64,3.06-1.26,4.6-1.86,1.11-.44,2.23-.86,3.36-1.28a9.19,9.19,0,0,0,2.27,4.21,2.44,2.44,0,0,0,.27.29l.67.72.32.4a7.39,7.39,0,0,1,.63,1A8.94,8.94,0,0,1,215.62,24.89Z"/>
          <path class="mint-strawberry-f" d="M199.88,21.9a7.34,7.34,0,0,1-14.1,2.87q6.5-3.36,13.24-6.3A7.24,7.24,0,0,1,199.88,21.9Z"/>
        </g>
      </g>
    </g>
    <g>
      <path class="mint-strawberry-b" d="M320.51,2.34A37.18,37.18,0,0,1,283.6,35,37.2,37.2,0,0,1,246.89,3.8c1.27-.24,2.54-.47,3.82-.68q4.17-.7,8.4-1.26l1.45-.18c.9-.11,1.8-.22,2.71-.31q3.6-.4,7.24-.69h0c2-.15,4-.28,6-.38h0c3.84-.2,7.69-.3,11.58-.3l2.77,0q2.64,0,5.28.12,5.31.2,10.55.63c.13,0,.26,0,.38,0l1,.08q4.33.39,8.61.93C318,2,319.23,2.15,320.51,2.34Z"/>
      <path class="mint-strawberry-c" d="M316.67,1.81A33.32,33.32,0,0,1,283.6,31.1a33.33,33.33,0,0,1-32.89-28q4.17-.7,8.4-1.26l1.45-.18c.9-.11,1.8-.22,2.71-.31q3.6-.4,7.24-.69h0c2-.15,4-.28,6-.38h0c3.84-.2,7.69-.3,11.58-.3l2.77,0q2.64,0,5.28.12,5.31.2,10.55.63c.13,0,.26,0,.38,0l1,.08Q312.4,1.27,316.67,1.81Z"/>
      <g>
        <path class="mint-strawberry-d" d="M308.06.88l-.89.55-.21.12a2.53,2.53,0,0,1-.23.12A9,9,0,0,1,296.13.14q5.31.2,10.55.63c.13,0,.26,0,.38,0Z"/>
        <g>
          <path class="mint-strawberry-d" d="M287,16.76a9.06,9.06,0,0,1,16-8.4c2.32,4.43,3.53,10.45-2.92,13.83S289.29,21.19,287,16.76Z"/>
          <circle class="mint-strawberry-e" cx="294.99" cy="12.56" r="4.76"/>
        </g>
        <path class="mint-strawberry-d" d="M270.51.68a9,9,0,0,1-7.24.69Q266.87,1,270.51.68Z"/>
        <g>
          <path class="mint-strawberry-d" d="M263.54,5.7a9.06,9.06,0,0,1,14.34,11.07c-3.06,4-8,7.57-13.78,3.12S260.49,9.65,263.54,5.7Z"/>
          <circle class="mint-strawberry-e" cx="270.71" cy="11.23" r="4.76"/>
        </g>
        <g>
          <path class="mint-strawberry-f" d="M307.27,2.87A8.77,8.77,0,0,1,303.8,10a9.06,9.06,0,0,1-4.07,1.61h-.07a15.85,15.85,0,0,0-4.5,1.24,6.85,6.85,0,0,0-3,2.54,5.29,5.29,0,0,0-.29.52l-.08.15a10.76,10.76,0,0,1-2.94,3.61,10,10,0,0,1-6.18,2.21,8.4,8.4,0,0,1-6.63-3.12A9.87,9.87,0,0,1,274.9,17a12,12,0,0,0-1.25-2,13,13,0,0,0-1.92-2.07,9.68,9.68,0,0,0-3.65-2.06,5.08,5.08,0,0,0-.84-.19h0A9.26,9.26,0,0,1,266,10.4a9.42,9.42,0,0,1-4.12-2.21,8.6,8.6,0,0,1-2.79-6.33l1.45-.18c.9-.11,1.8-.22,2.71-.31q3.6-.4,7.24-.69h0c2-.15,4-.28,6-.38h0c3.84-.2,7.69-.3,11.58-.3l2.77,0q2.64,0,5.28.12,5.31.2,10.55.63c.13,0,.26,0,.38,0,0,.21.08.42.11.63A10,10,0,0,1,307.27,2.87Z"/>
          <path class="mint-strawberry-g" d="M306.73,1.67v.08A9.34,9.34,0,0,1,303.32,9a9,9,0,0,1-3.91,1.83,5.4,5.4,0,0,1-.58.11,9.19,9.19,0,0,0-4.08,1.67,9,9,0,0,0-2.56,2.85,5.29,5.29,0,0,0-.29.52l-.08.15a8.91,8.91,0,0,1-3.07,3.45,9.21,9.21,0,0,1-5.11,1.53A9.16,9.16,0,0,1,275.39,16a9.32,9.32,0,0,0-2.84-3.37,9.18,9.18,0,0,0-4.09-1.67l-.38-.07a5.08,5.08,0,0,0-.84-.19h0a8.49,8.49,0,0,1-1.17-.41,9,9,0,0,1-3.65-2.91,9.37,9.37,0,0,1-1.85-5.58V1.68c.9-.11,1.8-.22,2.71-.31q3.6-.4,7.24-.69h0c2-.15,4-.28,6-.38h0c3.84-.2,7.69-.3,11.58-.3l2.77,0q2.64,0,5.28.12,5.31.2,10.55.63C306.71,1.07,306.73,1.37,306.73,1.67Z"/>
          <path class="mint-strawberry-f" d="M290.85,0a7.32,7.32,0,0,1-7.2,6A7.33,7.33,0,0,1,276.5.3c3.84-.2,7.69-.3,11.58-.3Z"/>
        </g>
      </g>
    </g>
    <g>
      <path class="mint-strawberry-b" d="M358.41,6.91c0-.13,0-.27,0-.4,0,.13,0,.27,0,.4Z"/>
      <path class="mint-strawberry-b" d="M408.25,35.07a37.2,37.2,0,0,1-68-28.94c1.26.3,2.52.61,3.77.94s2.73.71,4.08,1.09q3,.83,5.92,1.73h0c1,.32,2.05.65,3.06,1h0q.32.09.63.21c1.78.57,3.54,1.17,5.3,1.8h0c1.35.48,2.69,1,4,1.49.66.24,1.33.5,2,.76q6.82,2.66,13.44,5.75h0c1.13.53,2.24,1.06,3.36,1.62q4.86,2.35,9.59,5h0l.39.21,1,.57Q401,30.56,405,33Z"/>
      <path class="mint-strawberry-c" d="M358.41,6.91c0-.13,0-.27,0-.4,0,.13,0,.27,0,.4Z"/>
      <path class="mint-strawberry-c" d="M405,33A33.32,33.32,0,0,1,344,7.07c1.37.35,2.73.71,4.08,1.09q3,.83,5.92,1.73h0c1,.32,2.05.65,3.06,1h0q.32.09.63.21c1.78.57,3.54,1.17,5.3,1.8h0c1.35.48,2.69,1,4,1.49.66.24,1.33.5,2,.76q6.82,2.66,13.44,5.75h0c1.13.53,2.24,1.06,3.36,1.62q4.86,2.35,9.59,5h0l.39.21,1,.57Q401,30.56,405,33Z"/>
      <g>
        <g>
          <path class="mint-strawberry-d" d="M392.42,41.08c-5.06,2.64-8.74.62-11.22-2.48a1,1,0,0,1-.13-.16,17.54,17.54,0,0,1-1.78-2.79,9.06,9.06,0,0,1,6.57-13.14q4.86,2.35,9.59,5h0l.19.38c.16.34.32.69.46,1.05C397.84,33.1,398.1,38.11,392.42,41.08Z"/>
          <circle class="mint-strawberry-e" cx="387.31" cy="31.45" r="4.76"/>
        </g>
        <g>
          <path class="mint-strawberry-d" d="M358.41,6.91c0-.13,0-.27,0-.4,0,.13,0,.27,0,.4Z"/>
          <path class="mint-strawberry-d" d="M367.06,14.38a8.31,8.31,0,0,1-.64,1.55,9,9,0,0,1-12.25,3.73c-.38-.2-.77-.42-1.14-.65a14.54,14.54,0,0,1-1.22-.83c-3.05-2.24-5.32-5.56-3.72-10q3,.83,5.92,1.73h0c1,.32,2.05.65,3.06,1h0q.32.09.63.21c1.78.57,3.54,1.17,5.3,1.8h0C364.38,13.37,365.72,13.87,367.06,14.38Z"/>
          <path class="mint-strawberry-e" d="M363,12.89a4,4,0,0,1-.39,1,4.76,4.76,0,0,1-6.44,2,4.7,4.7,0,0,1-1.26-1,4.5,4.5,0,0,1-.61-.84A4.73,4.73,0,0,1,354,9.89h0c1,.32,2.05.65,3.06,1h0q.32.09.63.21C359.5,11.66,361.26,12.26,363,12.89Z"/>
        </g>
        <g>
          <path class="mint-strawberry-d" d="M355.86,24.59A9.06,9.06,0,0,1,370.2,35.66c-3.06,4-8,7.58-13.78,3.13S352.81,28.55,355.86,24.59Z"/>
          <circle class="mint-strawberry-e" cx="363.03" cy="30.13" r="4.76"/>
        </g>
        <g>
          <path class="mint-strawberry-f" d="M358.41,6.91c0-.13,0-.27,0-.4,0,.13,0,.27,0,.4Z"/>
          <path class="mint-strawberry-f" d="M396.88,28.26a5.2,5.2,0,0,1-.77.65,8.81,8.81,0,0,1-4.06,1.62H392a15.85,15.85,0,0,0-4.5,1.24,6.74,6.74,0,0,0-3,2.54,5.29,5.29,0,0,0-.29.52.83.83,0,0,1-.09.16,10.79,10.79,0,0,1-2.93,3.6A10,10,0,0,1,375,40.81a8.4,8.4,0,0,1-6.62-3.11,9.2,9.2,0,0,1-1.18-1.84,12.62,12.62,0,0,0-1.24-2,13.91,13.91,0,0,0-1.93-2.06,10,10,0,0,0-3.54-2,6.23,6.23,0,0,0-.95-.22l-.12,0h0a9.13,9.13,0,0,1-1.09-.23,9.42,9.42,0,0,1-4.12-2.21,8.58,8.58,0,0,1-2.79-6.34,8.73,8.73,0,0,1,.38-2.56,10,10,0,0,1,2.51-4.12,1.14,1.14,0,0,1,.15-.16,18.48,18.48,0,0,0,2.61-3h0q.32.09.63.21c1.78.57,3.54,1.17,5.3,1.8h0c1.35.48,2.69,1,4,1.49.66.24,1.33.5,2,.76q6.82,2.66,13.44,5.75h0c1.13.53,2.24,1.06,3.36,1.62q4.86,2.35,9.59,5h0l.39.21Z"/>
          <path class="mint-strawberry-g" d="M395.85,27.69l-.2.17a9,9,0,0,1-3.92,1.84,5.4,5.4,0,0,1-.58.11,9.06,9.06,0,0,0-4.09,1.66,8.94,8.94,0,0,0-2.55,2.85,5.29,5.29,0,0,0-.29.52.83.83,0,0,1-.09.16,9,9,0,0,1-3.06,3.44,9.23,9.23,0,0,1-11.95-1.5,9.52,9.52,0,0,1-1.41-2.1,8.48,8.48,0,0,0-1-1.64,8.69,8.69,0,0,0-1.8-1.73,9.06,9.06,0,0,0-4.09-1.66l-.26,0a7.55,7.55,0,0,1-1.07-.24h0c-.36-.11-.71-.24-1.05-.38a9,9,0,0,1-3.66-2.91,9.42,9.42,0,0,1-1.84-5.58A9.1,9.1,0,0,1,353,19a9,9,0,0,1,1.9-4.11c.23-.27.47-.54.74-.8a9.05,9.05,0,0,0,2.05-3c1.78.57,3.54,1.17,5.3,1.8h0c1.35.48,2.69,1,4,1.49.66.24,1.33.5,2,.76q6.82,2.66,13.44,5.75h0c1.13.53,2.24,1.06,3.36,1.62q4.86,2.35,9.59,5h0Z"/>
          <path class="mint-strawberry-f" d="M382.49,20.89a7.32,7.32,0,0,1-13.44-5.75Q375.88,17.8,382.49,20.89Z"/>
        </g>
      </g>
    </g>
    <g>
      <path class="mint-strawberry-b" d="M472.84,97.92a37.2,37.2,0,0,1-51.4-53.72c1.05.78,2.09,1.57,3.12,2.38q3.62,2.79,7.1,5.73l.36.3q6.71,5.66,12.94,11.82,5,4.91,9.64,10.14c.56.62,1.11,1.25,1.66,1.88q1.61,1.83,3.15,3.69,1.41,1.67,2.76,3.36c.2.25.4.49.59.74.47.58.93,1.17,1.39,1.76,1.39,1.78,2.74,3.57,4.09,5.39h0c.8,1.09,1.59,2.19,2.36,3.29S472.1,96.83,472.84,97.92Z"/>
      <path class="mint-strawberry-c" d="M470.6,94.69a33.3,33.3,0,0,1-46-48.11q3.62,2.79,7.1,5.73l.36.3q6.71,5.66,12.94,11.82,5,4.91,9.64,10.14c.56.62,1.11,1.25,1.66,1.88q1.61,1.83,3.15,3.69,1.41,1.67,2.76,3.36c.2.25.4.49.59.74.47.58.93,1.17,1.39,1.76,1.39,1.78,2.74,3.57,4.09,5.39h0C469,92.49,469.83,93.59,470.6,94.69Z"/>
      <g>
        <g>
          <path class="mint-strawberry-d" d="M468.24,91.39h0a9.3,9.3,0,0,1-3.6,3.12c-5.06,2.64-8.75.62-11.23-2.48a.79.79,0,0,1-.12-.15,18.16,18.16,0,0,1-1.79-2.8,9.06,9.06,0,0,1,3.83-12.22,9.53,9.53,0,0,1,.93-.42q1.61,1.83,3.15,3.69,1.41,1.67,2.76,3.36c.2.25.4.49.59.74.47.58.93,1.17,1.39,1.76C465.54,87.78,466.89,89.57,468.24,91.39Z"/>
          <path class="mint-strawberry-e" d="M464.15,86a4.75,4.75,0,0,1-7.8,2.44,4.75,4.75,0,0,1,3.06-8.3q1.41,1.67,2.76,3.36c.2.25.4.49.59.74C463.23,84.82,463.69,85.41,464.15,86Z"/>
        </g>
        <g>
          <path class="mint-strawberry-d" d="M434.91,57.12a9.06,9.06,0,1,1-8.53,16C422,70.75,417.58,66.46,421,60S430.49,54.76,434.91,57.12Z"/>
          <circle class="mint-strawberry-e" cx="430.64" cy="65.11" r="4.76"/>
        </g>
        <g>
          <path class="mint-strawberry-d" d="M428.08,78A9.05,9.05,0,1,1,442.41,89.1c-3.05,4-8,7.58-13.78,3.13S425,82,428.08,78Z"/>
          <circle class="mint-strawberry-e" cx="435.25" cy="83.57" r="4.76"/>
        </g>
        <g>
          <path class="mint-strawberry-f" d="M462.76,84.24a13.35,13.35,0,0,0-3.06,1,6.74,6.74,0,0,0-3,2.54,5.29,5.29,0,0,0-.29.52.83.83,0,0,1-.09.16,10.72,10.72,0,0,1-2.94,3.6,10,10,0,0,1-6.18,2.21,8.4,8.4,0,0,1-6.62-3.11,9.2,9.2,0,0,1-1.18-1.84,12.54,12.54,0,0,0-1.24-2,14,14,0,0,0-1.93-2.08,9.68,9.68,0,0,0-3.65-2.06,5.08,5.08,0,0,0-.84-.19h0a10.41,10.41,0,0,1-5.32-2.45,8.6,8.6,0,0,1-2.8-6.35,8.73,8.73,0,0,1,.38-2.56,10,10,0,0,1,2.51-4.12l.16-.17c2.05-2,3.94-4.23,3.94-6.94v0c0-.13,0-.27,0-.4a5.35,5.35,0,0,0-.07-.56,11.74,11.74,0,0,1-.17-1.94,10.83,10.83,0,0,1,1.29-5.14l.36.3q6.71,5.66,12.94,11.82,5,4.91,9.64,10.14c.56.62,1.11,1.25,1.66,1.88q1.61,1.83,3.15,3.69,1.41,1.67,2.76,3.36C462.37,83.75,462.57,84,462.76,84.24Z"/>
          <path class="mint-strawberry-g" d="M462.17,83.5a9.05,9.05,0,0,0-5.44,4.26,5.29,5.29,0,0,0-.29.52.83.83,0,0,1-.09.16,9.12,9.12,0,0,1-3.06,3.45,9.29,9.29,0,0,1-5.11,1.52,9.11,9.11,0,0,1-6.84-3,9.22,9.22,0,0,1-1.42-2.1,9,9,0,0,0-1-1.65A9.16,9.16,0,0,0,433,83.24l-.38-.07a5.08,5.08,0,0,0-.84-.19h0a8.84,8.84,0,0,1-1.16-.41,9,9,0,0,1-3.66-2.91,9.42,9.42,0,0,1-1.84-5.58,9.07,9.07,0,0,1,2-5.73,8,8,0,0,1,.74-.81,9.22,9.22,0,0,0,2.78-6.6c0-.2,0-.39,0-.59s0-.27,0-.4a5.35,5.35,0,0,0-.07-.56,10,10,0,0,1-.14-1.62A9,9,0,0,1,432,52.61q6.71,5.66,12.94,11.82,5,4.91,9.64,10.14c.56.62,1.11,1.25,1.66,1.88q1.61,1.83,3.15,3.69Q460.82,81.81,462.17,83.5Z"/>
          <path class="mint-strawberry-f" d="M454.6,74.57A7.34,7.34,0,1,1,445,64.43Q449.94,69.34,454.6,74.57Z"/>
        </g>
      </g>
    </g>
    <g>
      <path class="mint-strawberry-b" d="M506.61,177.46a37.21,37.21,0,0,1-27.16-69.22c.67,1.12,1.34,2.25,2,3.38q2.28,3.93,4.39,7.95l.66,1.28.27.52c1.73,3.37,3.38,6.77,4.93,10.24h0q1,2.15,1.9,4.32,2.78,6.51,5.13,13.21c.19.54.37,1.08.55,1.62.63,1.81,1.23,3.62,1.81,5.45,0,0,0,0,0,0,.43,1.39.86,2.78,1.26,4.18a3.31,3.31,0,0,1,.12.42h0c.66,2.26,1.28,4.52,1.86,6.8q.78,3,1.45,6C506.06,174.9,506.34,176.18,506.61,177.46Z"/>
      <path class="mint-strawberry-c" d="M505.77,173.63a33.32,33.32,0,0,1-24.33-62q2.28,3.93,4.39,7.95l.66,1.28.27.52c1.73,3.37,3.38,6.77,4.93,10.24h0q1,2.15,1.9,4.32,2.78,6.51,5.13,13.21c.19.54.37,1.08.55,1.62.63,1.81,1.23,3.62,1.81,5.45,0,0,0,0,0,0,.43,1.39.86,2.78,1.26,4.18a3.31,3.31,0,0,1,.12.42h0c.66,2.26,1.28,4.52,1.86,6.8Q505.1,170.62,505.77,173.63Z"/>
      <g>
        <path class="mint-strawberry-d" d="M486.76,121.37c1.73,3.37,3.38,6.77,4.93,10.24a9.05,9.05,0,0,1-5-8.12A18.94,18.94,0,0,1,486.76,121.37Z"/>
        <g>
          <path class="mint-strawberry-d" d="M504.32,167.65a9.62,9.62,0,0,1-4.69-3.39,1,1,0,0,1-.12-.16,17.35,17.35,0,0,1-1.79-2.79,9.06,9.06,0,0,1,1.55-10.54c.63,1.81,1.23,3.62,1.81,5.45,0,0,0,0,0,0,.43,1.39.86,2.78,1.26,4.18a3.31,3.31,0,0,1,.12.42h0C503.12,163.11,503.74,165.37,504.32,167.65Z"/>
          <path class="mint-strawberry-e" d="M501.08,156.24c.43,1.39.86,2.78,1.26,4.18a4.53,4.53,0,0,1-.81-1.11A4.61,4.61,0,0,1,501.08,156.24Z"/>
        </g>
        <g>
          <path class="mint-strawberry-d" d="M481.12,129.33a9.06,9.06,0,0,1-8.52,16c-4.41-2.36-8.81-6.65-5.38-13.07S476.71,127,481.12,129.33Z"/>
          <circle class="mint-strawberry-e" cx="476.86" cy="137.33" r="4.76"/>
        </g>
        <g>
          <path class="mint-strawberry-d" d="M474.3,150.24a9.06,9.06,0,1,1,14.33,11.08c-3.06,4-8,7.57-13.78,3.12S471.24,154.2,474.3,150.24Z"/>
          <circle class="mint-strawberry-e" cx="481.46" cy="155.78" r="4.76"/>
        </g>
        <g>
          <path class="mint-strawberry-f" d="M502.46,160.84h0a1.82,1.82,0,0,1-.15.27c-.09.16-.19.31-.28.46a10.52,10.52,0,0,1-2.4,2.68,10,10,0,0,1-6.18,2.21,8.39,8.39,0,0,1-6.63-3.12,9.87,9.87,0,0,1-1.17-1.83,12,12,0,0,0-1.25-2,13.4,13.4,0,0,0-1.92-2.07,9.68,9.68,0,0,0-3.65-2.06,5.08,5.08,0,0,0-.84-.19h0a9.26,9.26,0,0,1-1.21-.25,9.43,9.43,0,0,1-4.11-2.2,8.6,8.6,0,0,1-2.8-6.35,8.73,8.73,0,0,1,.38-2.56,10,10,0,0,1,2.51-4.12l.16-.17c2-2,3.93-4.23,3.93-6.93v-.05c0-.13,0-.26,0-.39a5.54,5.54,0,0,0-.07-.57,7.64,7.64,0,0,1-.1-.82,10.32,10.32,0,0,1-.06-1.11,10.86,10.86,0,0,1,.18-2c.86-4.66,4.65-8.17,9.06-8.11l.66,1.28.27.52c1.73,3.37,3.38,6.77,4.93,10.24h0q1,2.15,1.9,4.32,2.78,6.51,5.13,13.21c.19.54.37,1.08.55,1.62.63,1.81,1.23,3.62,1.81,5.45,0,0,0,0,0,0,.43,1.39.86,2.78,1.26,4.18A3.31,3.31,0,0,1,502.46,160.84Z"/>
          <path class="mint-strawberry-g" d="M502.46,160.84h0a1.82,1.82,0,0,1-.15.27c-.09.16-.19.31-.28.46a9,9,0,0,1-2.52,2.52,9.21,9.21,0,0,1-5.11,1.53,9.16,9.16,0,0,1-8.26-5.13,8.55,8.55,0,0,0-1.05-1.65,8.89,8.89,0,0,0-1.79-1.73,9.28,9.28,0,0,0-4.09-1.66l-.38-.07a5.08,5.08,0,0,0-.84-.19h0a7.37,7.37,0,0,1-1.17-.42,8.91,8.91,0,0,1-3.65-2.91,9.42,9.42,0,0,1-1.84-5.58,8.88,8.88,0,0,1,.15-1.62,9,9,0,0,1,1.9-4.11,8,8,0,0,1,.74-.81,9.17,9.17,0,0,0,2.78-6.57c0-.2,0-.41,0-.61a1.72,1.72,0,0,0,0-.39,5.54,5.54,0,0,0-.07-.57,7.64,7.64,0,0,1-.1-.82,7.14,7.14,0,0,1,0-.8,9,9,0,0,1,.29-2.28,9.29,9.29,0,0,1,9.59-6.86l.27.52c1.73,3.37,3.38,6.77,4.93,10.24h0q1,2.15,1.9,4.32,2.78,6.51,5.13,13.21c.19.54.37,1.08.55,1.62.63,1.81,1.23,3.62,1.81,5.45,0,0,0,0,0,0,.43,1.39.86,2.78,1.26,4.18A3.31,3.31,0,0,1,502.46,160.84Z"/>
          <path class="mint-strawberry-f" d="M498.72,149.15a7.33,7.33,0,1,1-5.13-13.21Q496.37,142.45,498.72,149.15Z"/>
        </g>
      </g>
    </g>
    <g>
      <path class="mint-strawberry-b" d="M511.27,219.68q0,1.77,0,3.54,0,5.57-.28,11.07-.36,7.53-1.21,14.91l-.12,1q-.56,4.57-1.29,9.07c-.2,1.29-.42,2.56-.66,3.84a37.2,37.2,0,0,1,1-74.07c.19,1.28.38,2.57.55,3.86s.35,2.64.5,4c.26,2.13.48,4.27.68,6.43l.21,2.62c0,.25,0,.51.05.77.12,1.62.23,3.26.31,4.89s.14,3,.19,4.57C511.23,217.31,511.25,218.5,511.27,219.68Z"/>
      <path class="mint-strawberry-c" d="M511.27,219.68q0,1.77,0,3.54,0,5.57-.28,11.07-.36,7.53-1.21,14.91l-.12,1q-.56,4.57-1.29,9.07a33.31,33.31,0,0,1,.85-66.37c.18,1.32.35,2.64.5,4,.26,2.13.48,4.27.68,6.43l.21,2.62c0,.25,0,.51.05.77.12,1.62.23,3.26.31,4.89s.14,3,.19,4.57C511.23,217.31,511.25,218.5,511.27,219.68Z"/>
      <g>
        <g>
          <path class="mint-strawberry-d" d="M511,211.56c.08,1.52.14,3,.19,4.57a9.06,9.06,0,0,1-7.21-8.87,19.17,19.17,0,0,1,.17-2.61q.09-.6.21-1.2c.64-2.92,2.19-5.57,5.39-6.6.26,2.13.48,4.27.68,6.43l.21,2.62c0,.25,0,.51.05.77C510.81,208.29,510.92,209.93,511,211.56Z"/>
          <path class="mint-strawberry-e" d="M510.69,206.67c.12,1.62.23,3.26.31,4.89a4.75,4.75,0,0,1-2.58-5.44,4.21,4.21,0,0,1,.34-.94,4.72,4.72,0,0,1,1.67-1.9l.21,2.62C510.66,206.15,510.68,206.41,510.69,206.67Z"/>
        </g>
        <g>
          <path class="mint-strawberry-d" d="M498.46,213.1a9.06,9.06,0,0,1-8.53,16c-4.41-2.36-8.81-6.65-5.38-13.07S494,210.75,498.46,213.1Z"/>
          <circle class="mint-strawberry-e" cx="494.19" cy="221.09" r="4.76"/>
        </g>
        <g>
          <path class="mint-strawberry-d" d="M491.63,234A9.06,9.06,0,1,1,506,245.09c-3,4-8,7.57-13.78,3.12S488.57,238,491.63,234Z"/>
          <circle class="mint-strawberry-e" cx="498.8" cy="239.55" r="4.76"/>
        </g>
        <g>
          <path class="mint-strawberry-f" d="M511.27,219.68q0,1.77,0,3.54,0,5.57-.28,11.07-.36,7.53-1.21,14.91l-.12,1a8.39,8.39,0,0,1-5.54-3.06,9.87,9.87,0,0,1-1.17-1.83,12.62,12.62,0,0,0-1.24-2,13.5,13.5,0,0,0-1.93-2.07,9.68,9.68,0,0,0-3.65-2.06,5.08,5.08,0,0,0-.84-.19h0a10.41,10.41,0,0,1-5.32-2.45,8.6,8.6,0,0,1-2.8-6.35,8.73,8.73,0,0,1,.38-2.56,10,10,0,0,1,2.51-4.12l.16-.17c2.05-2,3.93-4.23,3.93-6.93v0c0-.13,0-.27,0-.4a5.54,5.54,0,0,0-.07-.57c0-.27-.08-.55-.1-.82a10.28,10.28,0,0,1-.06-1.1,10.86,10.86,0,0,1,.18-2c.94-5.08,5.35-8.79,10.26-8a9.21,9.21,0,0,1,2.83,1c.51.27,1,.53,1.57.77a15.43,15.43,0,0,0,1.88.72c0,.25,0,.51.05.77.12,1.62.23,3.26.31,4.89s.14,3,.19,4.57C511.23,217.31,511.25,218.5,511.27,219.68Z"/>
          <path class="mint-strawberry-g" d="M511.27,219.68q0,1.77,0,3.54,0,5.57-.28,11.07-.36,7.53-1.21,14.91a8.9,8.9,0,0,1-4.92-2.83,9.22,9.22,0,0,1-1.42-2.1,8.55,8.55,0,0,0-1.05-1.65,8.89,8.89,0,0,0-1.79-1.73,9.06,9.06,0,0,0-4.09-1.66l-.38-.07a5.08,5.08,0,0,0-.84-.19h0a8.84,8.84,0,0,1-1.16-.41,9,9,0,0,1-3.66-2.92,9.42,9.42,0,0,1-1.84-5.58,8.88,8.88,0,0,1,.15-1.62,9,9,0,0,1,1.9-4.11,8,8,0,0,1,.74-.81,9.18,9.18,0,0,0,2.78-6.58q0-.3,0-.6a1.75,1.75,0,0,0,0-.4,5.54,5.54,0,0,0-.07-.57c0-.27-.08-.55-.1-.82a7.14,7.14,0,0,1,0-.8,8.88,8.88,0,0,1,.29-2.27,9.28,9.28,0,0,1,9.92-6.83,9.15,9.15,0,0,1,3.29,1,9.57,9.57,0,0,0,1,.45,9.41,9.41,0,0,0,2.27.55c.12,1.62.23,3.26.31,4.89s.14,3,.19,4.57C511.23,217.31,511.25,218.5,511.27,219.68Z"/>
          <path class="mint-strawberry-f" d="M511.3,223.22q0,5.57-.28,11.07a7.33,7.33,0,0,1,.25-14.61Q511.3,221.45,511.3,223.22Z"/>
        </g>
      </g>
    </g>
    <g>
      <path class="mint-strawberry-b" d="M499.8,315.05q-.23,4.86-.22,9.77c0,1.6,0,3.2.06,4.79.1,5,.37,10,.81,15,0,.21,0,.41.05.61.29,3.16.64,6.31,1.06,9.43.17,1.29.35,2.57.55,3.85-1.09.1-2.19.15-3.31.15a37.2,37.2,0,1,1,0-74.39,37.88,37.88,0,0,1,4.42.26c-.24,1.27-.46,2.55-.66,3.83s-.39,2.34-.56,3.52c-.3,2-.58,4.06-.82,6.1-.15,1.23-.28,2.47-.41,3.7a1.49,1.49,0,0,0,0,.21c-.19,1.83-.35,3.66-.5,5.5-.11,1.42-.2,2.85-.28,4.29C499.9,312.77,499.84,313.91,499.8,315.05Z"/>
      <path class="mint-strawberry-c" d="M499.8,315.05q-.23,4.86-.22,9.77c0,1.6,0,3.2.06,4.79.1,5,.37,10,.81,15,0,.21,0,.41.05.61.29,3.16.64,6.31,1.06,9.43q-1.37.12-2.76.12a33.32,33.32,0,1,1,3.76-66.42c-.2,1.17-.39,2.34-.56,3.52-.3,2-.58,4.06-.82,6.1-.15,1.23-.28,2.47-.41,3.7a1.49,1.49,0,0,0,0,.21c-.19,1.83-.35,3.66-.5,5.5-.11,1.42-.2,2.85-.28,4.29C499.9,312.77,499.84,313.91,499.8,315.05Z"/>
      <g>
        <g>
          <path class="mint-strawberry-d" d="M502,291.84c-.3,2-.58,4.06-.82,6.1-.15,1.23-.28,2.47-.41,3.7a1.49,1.49,0,0,0,0,.21c-.19,1.83-.35,3.66-.5,5.5-.11,1.42-.2,2.85-.28,4.29a9,9,0,0,1-8.87-9.05,18.07,18.07,0,0,1,.18-2.63c.05-.4.12-.8.2-1.19.83-3.76,3.16-7.08,8.61-7.08A11.47,11.47,0,0,1,502,291.84Z"/>
          <path class="mint-strawberry-e" d="M501.18,297.94c-.15,1.23-.28,2.47-.41,3.7a1.49,1.49,0,0,0,0,.21c-.19,1.83-.35,3.66-.5,5.5h-.09a4.76,4.76,0,0,1-4.76-4.76,4.37,4.37,0,0,1,.15-1.15,3.89,3.89,0,0,1,.33-.94,4.76,4.76,0,0,1,4.28-2.67A4.9,4.9,0,0,1,501.18,297.94Z"/>
        </g>
        <g>
          <path class="mint-strawberry-d" d="M485.57,308.43a9.05,9.05,0,0,1-8.52,16c-4.41-2.35-8.81-6.64-5.38-13.07S481.16,306.07,485.57,308.43Z"/>
          <circle class="mint-strawberry-e" cx="481.31" cy="316.42" r="4.76"/>
        </g>
        <g>
          <path class="mint-strawberry-d" d="M478.75,329.34a9.05,9.05,0,0,1,14.33,11.07c-3.06,4-8,7.57-13.78,3.13S475.69,333.3,478.75,329.34Z"/>
          <circle class="mint-strawberry-e" cx="485.91" cy="334.87" r="4.76"/>
        </g>
        <g>
          <path class="mint-strawberry-f" d="M499.8,315.05q-.23,4.86-.22,9.77c0,1.6,0,3.2.06,4.79.1,5,.37,10,.81,15,0,.21,0,.41.05.61a9.28,9.28,0,0,1-2.6.37,8.4,8.4,0,0,1-6.63-3.12,9.87,9.87,0,0,1-1.17-1.83,12,12,0,0,0-1.25-2,13,13,0,0,0-1.92-2.07,9.68,9.68,0,0,0-3.65-2.06,5.08,5.08,0,0,0-.84-.19h0a9.26,9.26,0,0,1-1.21-.25,9.43,9.43,0,0,1-4.11-2.2,8.6,8.6,0,0,1-2.8-6.35,8.73,8.73,0,0,1,.38-2.56,10,10,0,0,1,2.5-4.12l.17-.17c2-2,3.93-4.23,3.93-6.93v0c0-.13,0-.26,0-.4a5.35,5.35,0,0,0-.07-.56c0-.28-.08-.55-.1-.82a3.22,3.22,0,0,1,0-.43c0-.22,0-.45,0-.68a10.83,10.83,0,0,1,.18-2c.93-5.08,5.35-8.8,10.26-8a9.21,9.21,0,0,1,2.83,1c.51.27,1,.53,1.57.77a11,11,0,0,0,4.47,1.16,3,3,0,0,0,.42,0,1.49,1.49,0,0,0,0,.21c-.19,1.83-.35,3.66-.5,5.5-.11,1.42-.2,2.85-.28,4.29C499.9,312.77,499.84,313.91,499.8,315.05Z"/>
          <path class="mint-strawberry-g" d="M499.8,315.05q-.23,4.86-.22,9.77c0,1.6,0,3.2.06,4.79.1,5,.37,10,.81,15a9.61,9.61,0,0,1-1.6.14,9.09,9.09,0,0,1-6.84-3,9.22,9.22,0,0,1-1.42-2.1,9.32,9.32,0,0,0-2.84-3.37,9.18,9.18,0,0,0-4.09-1.67l-.38-.07a5.08,5.08,0,0,0-.84-.19h0a7.37,7.37,0,0,1-1.17-.42,9,9,0,0,1-3.65-2.89,9.4,9.4,0,0,1-1.85-5.59,9.11,9.11,0,0,1,2.05-5.74c.23-.27.48-.54.74-.8a9.22,9.22,0,0,0,2.79-6.58c0-.2,0-.4,0-.61a1.87,1.87,0,0,0,0-.4,5.35,5.35,0,0,0-.07-.56c0-.28-.08-.55-.1-.82a7.26,7.26,0,0,1,0-.8,8.88,8.88,0,0,1,.29-2.27A9.16,9.16,0,0,1,494.56,301a8.83,8.83,0,0,0,1,.45,9.09,9.09,0,0,0,3.29.61,9.46,9.46,0,0,0,1.91-.2c-.19,1.83-.35,3.66-.5,5.5-.11,1.42-.2,2.85-.28,4.29C499.9,312.77,499.84,313.91,499.8,315.05Z"/>
          <path class="mint-strawberry-f" d="M499.58,324.82c0,1.6,0,3.2.06,4.79a5.16,5.16,0,0,1-.79.05,7.34,7.34,0,0,1,0-14.68,6,6,0,0,1,.95.07Q499.57,319.91,499.58,324.82Z"/>
        </g>
      </g>
    </g>
  </g>
  <g>
    <path class="mint-strawberry-h" d="M491.6,583.79A35.9,35.9,0,0,1,473,615.23a35.87,35.87,0,0,1-23.11,56,35.64,35.64,0,0,1,2.81,13.92,36,36,0,0,1-34.25,35.89,35.61,35.61,0,0,1,1.21,9.23,36,36,0,0,1-36.12,36,36.74,36.74,0,0,1-6.07-.52A36.17,36.17,0,0,1,321,792.48a36.2,36.2,0,0,1-66.21,1,36.16,36.16,0,0,1-53.21-31.68c0-.12,0-.23,0-.35a36.13,36.13,0,0,1-45.88-34.61,35.92,35.92,0,0,1,1.4-9.89,35.89,35.89,0,0,1-25.82-57,35.86,35.86,0,0,1-13.92-62,35.88,35.88,0,0,1-4.8-65.89,35.85,35.85,0,0,1-2.86-62.18,35.88,35.88,0,0,1,15.54-62.83,35.61,35.61,0,0,1-6.21-20.15,36.17,36.17,0,0,1,59.47-27.43,188.06,188.06,0,0,1,21.2-22.64,145.52,145.52,0,0,0,176.27.31,189.72,189.72,0,0,1,21.73,23.42,36.17,36.17,0,0,1,56.64,29.59,35.7,35.7,0,0,1-9.89,24.7,35.9,35.9,0,0,1,16.44,67.05,35.9,35.9,0,0,1,8.5,68.69A35.94,35.94,0,0,1,491.6,583.79Z"/>
    <path class="mint-strawberry-f" d="M484.68,583.45a34.66,34.66,0,0,1-18,30.35,34.62,34.62,0,0,1-22.3,54.09A34.68,34.68,0,0,1,414.05,716a34.68,34.68,0,0,1-33.7,43.61,35.28,35.28,0,0,1-5.86-.5A34.92,34.92,0,0,1,320,784.89a34.95,34.95,0,0,1-63.91,1,34.91,34.91,0,0,1-51.36-30.58c0-.11,0-.22,0-.33a34.88,34.88,0,0,1-44.28-33.41,34.65,34.65,0,0,1,1.35-9.55,34.64,34.64,0,0,1-24.92-55,34.61,34.61,0,0,1-13.44-59.82,34.63,34.63,0,0,1-4.63-63.6,34.59,34.59,0,0,1-2.76-60,34.63,34.63,0,0,1,15-60.65,34.33,34.33,0,0,1-6-19.45A34.91,34.91,0,0,1,182.49,367a180.34,180.34,0,0,1,24.17-25.1,145.6,145.6,0,0,0,162.59.16,180.92,180.92,0,0,1,24.83,26,34.91,34.91,0,0,1,54.67,28.56,34.45,34.45,0,0,1-9.55,23.84,34.65,34.65,0,0,1,15.87,64.72,34.65,34.65,0,0,1,8.21,66.3A34.71,34.71,0,0,1,484.68,583.45Z"/>
    <circle class="mint-strawberry-e" cx="128.25" cy="442.73" r="4.96"/>
    <circle class="mint-strawberry-e" cx="144.23" cy="392.03" r="4.41"/>
    <circle class="mint-strawberry-e" cx="118.33" cy="501.7" r="4.41"/>
    <circle class="mint-strawberry-e" cx="117.23" cy="563.42" r="4.96"/>
    <circle class="mint-strawberry-e" cx="126.04" cy="625.7" r="5.51"/>
    <circle class="mint-strawberry-e" cx="144.23" cy="683.01" r="4.96"/>
    <circle class="mint-strawberry-e" cx="173.44" cy="733.16" r="2.76"/>
    <circle class="mint-strawberry-e" cx="397.73" cy="735.92" r="3.31"/>
    <circle class="mint-strawberry-e" cx="430.25" cy="690.73" r="4.96"/>
    <circle class="mint-strawberry-e" cx="453.94" cy="638.37" r="4.96"/>
    <circle class="mint-strawberry-e" cx="463.86" cy="581.06" r="4.96"/>
    <circle class="mint-strawberry-e" cx="461.66" cy="516.03" r="4.41"/>
    <circle class="mint-strawberry-e" cx="450.09" cy="449.35" r="4.41"/>
    <circle class="mint-strawberry-e" cx="428.59" cy="394.79" r="5.51"/>
  </g>
  <path class="mint-strawberry-i" d="M433.6,220.35a145.57,145.57,0,0,1-277.19,62l0-.07a145.54,145.54,0,1,1,277.23-62Z"/>
  <g>
    <path class="mint-strawberry-c" d="M437.78,857.23h0c-43.62,22.55-94.87,34.14-149.69,34.14-53.06,0-102.77-10.85-145.46-32l-.05,0s82-19.43,89.91-125.26h130.9S382.22,827,437.78,857.23Z"/>
    <path class="mint-strawberry-b" d="M410.81,869.41c-37.23,14.54-78.84,22-122.73,22-41.68,0-81.3-6.7-117.07-19.82,12.33-5.29,65.84-34.06,71.6-137.47H350.53S365.82,835.15,410.81,869.41Z"/>
    <path class="mint-strawberry-c" d="M378,880.08a351.2,351.2,0,0,1-89.94,11.3,356.39,356.39,0,0,1-80.19-8.87c16.1-16.81,41.57-57.5,45-148.42h84.86S348.17,834.32,378,880.08Z"/>
    <path class="mint-strawberry-b" d="M355,885.29a360.85,360.85,0,0,1-66.89,6.09,369.14,369.14,0,0,1-47.19-3c9.78-25.61,19.69-71.85,17.34-152.52l75.71-10.38S336.6,827.54,355,885.29Z"/>
    <path class="mint-strawberry-c" d="M330,889.05a372.77,372.77,0,0,1-41.93,2.33q-15.37,0-30.36-1.22c7.74-24.78,20.16-53.95,37.53-126.19,0,0,6.2,17.61,14,43.89C316,830.42,323.84,859.37,330,889.05Z"/>
    <path class="mint-strawberry-b" d="M316.49,890.32q-14,1.06-28.41,1.06-7.8,0-15.49-.32c5.33-18,12.71-42.31,22.24-88.21,0,0,4.31,14.18,9.72,35.33C308.35,853,312.68,871.17,316.49,890.32Z"/>
  </g>
  <g>
    <path class="mint-strawberry-e" d="M435.25,575.88c10.5-4.82,17.88-16.19,17.88-29.44,0-16-10.73-29.22-24.75-31.54,8.74-5.51,14.62-15.83,14.62-27.65,0-17.16-12.37-31.14-27.88-31.88a33.45,33.45,0,0,0,8-21.92c0-17.62-13.05-31.91-29.15-31.91a27.28,27.28,0,0,0-16.55,5.65,152.79,152.79,0,0,0-28.54-30.65A119.63,119.63,0,0,1,319.26,389a117.87,117.87,0,0,1-61.34,0,120,120,0,0,1-29.6-12.44,152.47,152.47,0,0,0-27.82,29.67,27.56,27.56,0,0,0-18.82-7.55c-16.11,0-29.16,14.28-29.16,31.91a33.91,33.91,0,0,0,5,17.88c-13.19,3.06-23.08,15.87-23.08,31.21A33.1,33.1,0,0,0,145,504.23a32.68,32.68,0,0,0-13.44,26.87c0,12.33,6.4,23,15.76,28.33-9.36,5.31-15.76,16-15.76,28.34,0,14,8.21,25.83,19.62,30.15A33.13,33.13,0,0,0,141,642.17c0,14.7,9.09,27.07,21.45,30.77a33.81,33.81,0,0,0-5.64,18.85c0,16.64,11.63,30.29,26.48,31.77a34.71,34.71,0,0,0-1.13,8.79c0,17.62,13,31.91,29.15,31.91a26.62,26.62,0,0,0,7.86-1.19c0,.11,0,.21,0,.31,0,17.62,13.06,31.91,29.16,31.91a27.1,27.1,0,0,0,13.78-3.79c4.6,11,14.74,18.67,26.53,18.67,12.11,0,22.5-8.08,26.9-19.59A27.31,27.31,0,0,0,332,796.16c15.3,0,27.84-12.91,29-29.32a26.32,26.32,0,0,0,4.89.46c16.1,0,29.16-14.29,29.16-31.91a34.4,34.4,0,0,0-1-8.19c15.4-.87,27.64-14.8,27.64-31.87A34.39,34.39,0,0,0,419.46,683c13.62-2.69,24-15.72,24-31.4a33.79,33.79,0,0,0-5.32-18.35c9-5.44,15-15.9,15-27.92C453.13,592.06,445.75,580.7,435.25,575.88Z"/>
    <path class="mint-strawberry-g" d="M432.17,577c10.28-4.72,17.5-15.84,17.5-28.8,0-15.64-10.51-28.6-24.22-30.87,8.55-5.39,14.3-15.49,14.3-27.06,0-16.78-12.1-30.47-27.27-31.18a32.77,32.77,0,0,0,7.8-21.45c0-17.25-12.77-31.22-28.52-31.22a26.72,26.72,0,0,0-16.2,5.52,149.75,149.75,0,0,0-27.91-30,117.48,117.48,0,0,1-29,12.18,115.41,115.41,0,0,1-60,0,117.47,117.47,0,0,1-29-12.18,149.48,149.48,0,0,0-27.22,29,27,27,0,0,0-18.42-7.4c-15.75,0-28.53,14-28.53,31.22a33.16,33.16,0,0,0,4.91,17.51c-12.91,3-22.59,15.52-22.59,30.54a32.37,32.37,0,0,0,10.32,24A32,32,0,0,0,135,533.13c0,12.07,6.26,22.53,15.41,27.73-9.15,5.19-15.41,15.65-15.41,27.72,0,13.67,8,25.27,19.19,29.5a32.45,32.45,0,0,0-10,23.73c0,14.39,8.89,26.49,21,30.11a33,33,0,0,0-5.52,18.44c0,16.28,11.38,29.64,25.91,31.09a33.65,33.65,0,0,0-1.11,8.59c0,17.25,12.77,31.23,28.53,31.23a26.23,26.23,0,0,0,7.69-1.16c0,.1,0,.2,0,.3,0,17.24,12.77,31.22,28.53,31.22a26.37,26.37,0,0,0,13.48-3.71c4.5,10.78,14.43,18.28,26,18.28,11.85,0,22-7.92,26.32-19.18a26.7,26.7,0,0,0,16.12,5.47c15,0,27.25-12.64,28.43-28.69a26.18,26.18,0,0,0,4.79.44c15.75,0,28.52-14,28.52-31.22a33.92,33.92,0,0,0-1-8c15.06-.85,27-14.49,27-31.18a33.64,33.64,0,0,0-2.22-12.09c13.33-2.63,23.44-15.38,23.44-30.72a33,33,0,0,0-5.2-18c8.77-5.32,14.71-15.56,14.71-27.31C449.67,592.78,442.45,581.67,432.17,577Z"/>
  </g>
  <g>
    <path class="mint-strawberry-b" d="M389.72,563.58c0,118.17-45.5,214-101.64,214h0c-56.12,0-101.62-95.82-101.62-214,0-39.83,5.17-77.12,14.18-109.06,17.69,37.76,50.25,63.07,87.47,63.07s69.77-25.31,87.46-63.07C384.55,486.46,389.72,523.75,389.72,563.58Z"/>
    <path class="mint-strawberry-c" d="M376.06,548.57c0,114.47-39.39,207.28-88,207.29h0c-48.57,0-88-92.82-88-207.29,0-38.59,4.48-74.71,12.27-105.65,15.32,36.58,43.5,61.1,75.72,61.1s60.39-24.52,75.71-61.1C371.58,473.86,376.06,510,376.06,548.57Z"/>
    <path class="mint-strawberry-b" d="M363.82,555.64c0,98.54-33.91,178.44-75.74,178.45h0c-41.82,0-75.73-79.91-75.73-178.45,0-33.22,3.86-64.31,10.57-90.95,13.18,31.49,37.44,52.6,65.18,52.6s52-21.11,65.17-52.6C360,491.33,363.82,522.42,363.82,555.64Z"/>
    <path class="mint-strawberry-c" d="M344.92,541.88c0,87.58-25.45,158.6-56.84,158.6h0c-31.38,0-56.83-71-56.83-158.6,0-29.52,2.89-57.16,7.93-80.83,9.89,28,28.1,46.74,48.92,46.74S327.1,489,337,461.05C342,484.72,344.92,512.36,344.92,541.88Z"/>
    <path class="mint-strawberry-b" d="M333.94,534.07c0,79.13-20.53,143.28-45.86,143.29h0c-25.32,0-45.85-64.16-45.85-143.29a396.4,396.4,0,0,1,6.4-73c8,25.28,22.67,42.23,39.47,42.23s31.48-16.95,39.46-42.23A396.4,396.4,0,0,1,333.94,534.07Z"/>
  </g>
  <g>
    <circle class="mint-strawberry-e" cx="178.5" cy="353.13" r="18.43"/>
    <circle class="mint-strawberry-g" cx="178.5" cy="353.13" r="5.74"/>
    <circle class="mint-strawberry-e" cx="181.39" cy="383.43" r="15.15"/>
    <circle class="mint-strawberry-g" cx="182.43" cy="382.4" r="7.19"/>
    <circle class="mint-strawberry-e" cx="186.09" cy="432.73" r="15.15"/>
    <circle class="mint-strawberry-g" cx="185.54" cy="432.18" r="5.61"/>
    <circle class="mint-strawberry-e" cx="194.3" cy="455.62" r="11.55"/>
    <circle class="mint-strawberry-g" cx="194.89" cy="457.97" r="4.69"/>
    <circle class="mint-strawberry-e" cx="209.56" cy="475.58" r="14.49"/>
    <circle class="mint-strawberry-g" cx="209.56" cy="475.58" r="4.82"/>
    <circle class="mint-strawberry-e" cx="189.63" cy="477.66" r="14.49"/>
    <circle class="mint-strawberry-g" cx="191.7" cy="474.55" r="4.51"/>
    <circle class="mint-strawberry-e" cx="201.41" cy="494.57" r="11.55"/>
    <circle class="mint-strawberry-e" cx="216.81" cy="508.79" r="14.49"/>
    <circle class="mint-strawberry-g" cx="203.57" cy="495.65" r="4.69"/>
    <circle class="mint-strawberry-e" cx="287.82" cy="542.53" r="17.12"/>
    <circle class="mint-strawberry-g" cx="285.56" cy="539.92" r="6.18"/>
    <circle class="mint-strawberry-e" cx="260.33" cy="530.42" r="14.49"/>
    <circle class="mint-strawberry-g" cx="260.33" cy="530.42" r="4.82"/>
    <circle class="mint-strawberry-e" cx="276.25" cy="518.24" r="14.49"/>
    <circle class="mint-strawberry-g" cx="274.78" cy="514.81" r="3.97"/>
    <circle class="mint-strawberry-e" cx="256.06" cy="512.16" r="11.55"/>
    <circle class="mint-strawberry-e" cx="236.82" cy="505.88" r="14.49"/>
    <circle class="mint-strawberry-g" cx="254.97" cy="510.18" r="4.69"/>
    <circle class="mint-strawberry-e" cx="238.46" cy="520.15" r="10.8"/>
    <circle class="mint-strawberry-g" cx="235.3" cy="521.94" r="2.81"/>
    <circle class="mint-strawberry-e" cx="226.15" cy="494.17" r="14.49"/>
    <circle class="mint-strawberry-g" cx="239.08" cy="504.45" r="4.51"/>
    <circle class="mint-strawberry-g" cx="226.49" cy="495.88" r="4.82"/>
    <circle class="mint-strawberry-g" cx="214.13" cy="508.83" r="4.51"/>
    <circle class="mint-strawberry-e" cx="185.65" cy="407.1" r="12.31"/>
    <circle class="mint-strawberry-g" cx="185.65" cy="407.1" r="2.84"/>
    <circle class="mint-strawberry-e" cx="176.77" cy="456.07" r="12.31"/>
    <circle class="mint-strawberry-g" cx="176.77" cy="456.07" r="2.84"/>
    <circle class="mint-strawberry-e" cx="157.72" cy="373.49" r="15.15"/>
    <circle class="mint-strawberry-g" cx="157.72" cy="373.49" r="4.26"/>
    <circle class="mint-strawberry-e" cx="397.84" cy="353.13" r="18.43"/>
    <circle class="mint-strawberry-g" cx="397.84" cy="353.13" r="5.74"/>
    <circle class="mint-strawberry-e" cx="394.94" cy="383.43" r="15.15"/>
    <circle class="mint-strawberry-g" cx="393.91" cy="382.4" r="4.68"/>
    <circle class="mint-strawberry-e" cx="390.25" cy="432.73" r="15.15"/>
    <circle class="mint-strawberry-g" cx="390.8" cy="432.18" r="5.61"/>
    <circle class="mint-strawberry-e" cx="382.03" cy="455.62" r="11.55"/>
    <circle class="mint-strawberry-g" cx="381.44" cy="457.97" r="4.69"/>
    <circle class="mint-strawberry-e" cx="366.77" cy="475.58" r="14.49"/>
    <circle class="mint-strawberry-g" cx="366.77" cy="475.58" r="4.82"/>
    <circle class="mint-strawberry-e" cx="386.71" cy="477.66" r="14.49"/>
    <circle class="mint-strawberry-g" cx="384.64" cy="474.55" r="4.51"/>
    <circle class="mint-strawberry-e" cx="374.93" cy="494.57" r="11.55"/>
    <circle class="mint-strawberry-e" cx="359.53" cy="508.79" r="14.49"/>
    <circle class="mint-strawberry-g" cx="372.76" cy="495.65" r="4.69"/>
    <circle class="mint-strawberry-e" cx="316" cy="530.42" r="14.49"/>
    <circle class="mint-strawberry-g" cx="316" cy="530.42" r="4.82"/>
    <circle class="mint-strawberry-e" cx="300.08" cy="518.24" r="14.49"/>
    <circle class="mint-strawberry-g" cx="300.23" cy="521.97" r="4.51"/>
    <circle class="mint-strawberry-e" cx="320.27" cy="512.16" r="11.55"/>
    <circle class="mint-strawberry-e" cx="339.51" cy="505.88" r="14.49"/>
    <circle class="mint-strawberry-g" cx="321.37" cy="510.18" r="4.69"/>
    <circle class="mint-strawberry-e" cx="337.88" cy="520.15" r="10.8"/>
    <circle class="mint-strawberry-g" cx="341.04" cy="521.94" r="4.82"/>
    <circle class="mint-strawberry-e" cx="350.19" cy="494.17" r="14.49"/>
    <circle class="mint-strawberry-g" cx="338.25" cy="506.44" r="3.6"/>
    <circle class="mint-strawberry-g" cx="348.6" cy="491.89" r="3.48"/>
    <circle class="mint-strawberry-g" cx="362.2" cy="508.83" r="4.51"/>
    <circle class="mint-strawberry-e" cx="390.68" cy="407.1" r="12.31"/>
    <circle class="mint-strawberry-g" cx="390.68" cy="407.1" r="2.84"/>
    <circle class="mint-strawberry-e" cx="399.56" cy="456.07" r="12.31"/>
    <circle class="mint-strawberry-g" cx="399.56" cy="456.07" r="2.84"/>
    <circle class="mint-strawberry-e" cx="418.62" cy="373.49" r="15.15"/>
    <circle class="mint-strawberry-g" cx="418.62" cy="373.49" r="4.26"/>
  </g>
  <g>
    <path class="mint-strawberry-b" d="M389.72,389c0,71-45.51,128.59-101.64,128.59S186.43,460,186.43,389q0-3.53.15-7a155.49,155.49,0,0,1,9.58-48,145.42,145.42,0,0,0,183.83,0,155.37,155.37,0,0,1,9.58,48Q389.72,385.48,389.72,389Z"/>
    <path class="mint-strawberry-c" d="M376.06,392.15c0,61.73-39.39,111.78-88,111.78s-88-50.05-88-111.78a136.83,136.83,0,0,1,8.81-48.81,145.59,145.59,0,0,0,158.35,0A136.83,136.83,0,0,1,376.06,392.15Z"/>
    <path class="mint-strawberry-b" d="M357.28,386.94c0,55.14-31,99.85-69.21,99.85s-69.2-44.71-69.2-99.85a139.24,139.24,0,0,1,4.47-35.35,145.79,145.79,0,0,0,129.47,0A139.24,139.24,0,0,1,357.28,386.94Z"/>
    <path class="mint-strawberry-c" d="M344.92,366.21c0,52.37-25.45,94.84-56.85,94.84s-56.84-42.47-56.84-94.84c0-3.66.13-7.27.37-10.83a137.66,137.66,0,0,0,113,0Q344.92,360.72,344.92,366.21Z"/>
    <path class="mint-strawberry-b" d="M333.94,364c0,43.58-20.53,78.92-45.87,78.92S242.2,407.58,242.2,364c0-1.55,0-3.08.08-4.61a133.74,133.74,0,0,0,91.59,0C333.92,360.93,333.94,362.46,333.94,364Z"/>
  </g>
  <g>
    <path class="mint-strawberry-j" d="M304.92,891q-8.35.38-16.84.37l-3.88,0c-1.53,0-3.06,0-4.58-.08,8.87-96.85,8.46-373.69,8.46-373.69.66,23.38,2.06,58.75,3.79,98.58a0,0,0,0,0,0,0C296.83,730.92,304.49,882.56,304.92,891Z"/>
    <path class="mint-strawberry-k" d="M295.49,891.31c4.8-63.77-4.3-188.12-3.62-275.1,5,114.71,12.62,266.35,13.05,274.8Q300.23,891.22,295.49,891.31Z"/>
  </g>
  <path class="mint-strawberry-l" d="M433.6,221.23a145.65,145.65,0,0,1-6.09,41.8l0,.06c-6.84-47-21.57-63.6-47.69-80.85-29.21-19.28-90.15-7.7-105-31.68-5-8.05-4.67-27-4.67-27s-2.3,30.07-14.05,47.13-83.18,12.92-95.55,32.68-4.1,79.93-4.1,79.93l0-.07a145.54,145.54,0,1,1,277.23-62Z"/>
  <path class="mint-strawberry-m" d="M219.4,325a33.13,33.13,0,0,1-7.05,20.49,146.11,146.11,0,0,1-47.21-46.39A33.31,33.31,0,0,1,219.4,325Z"/>
  <path class="mint-strawberry-m" d="M409.09,302.09a146.35,146.35,0,0,1-50.25,46.33,34.41,34.41,0,0,1,50.25-46.33Z"/>
  <ellipse class="mint-strawberry-e" cx="285.94" cy="307.35" rx="12.44" ry="19.06"/>
  <path class="mint-strawberry-n" d="M284.2,280.85l.85-4.54s5.74-1.75,7.49-3.85,4.1,4.2,4.1,4.2S288,281.85,284.2,280.85Z"/>
  <g>
    <circle class="mint-strawberry-o" cx="365.63" cy="240.38" r="24.35"/>
    <circle class="mint-strawberry-o" cx="210.52" cy="240.38" r="24.35"/>
  </g>
  <circle class="mint-strawberry-p" cx="378.37" cy="227.59" r="4.06"/>
  <ellipse class="mint-strawberry-p" cx="383.43" cy="240.38" rx="7.82" ry="4.11" transform="translate(117.84 606.79) rotate(-86.15)"/>
  <circle class="mint-strawberry-p" cx="194.87" cy="233.86" r="3.37"/>
  <ellipse class="mint-strawberry-p" cx="192.84" cy="245.58" rx="3.19" ry="6.99" transform="translate(-48.17 47.06) rotate(-12.38)"/>
  <path class="mint-strawberry-o" d="M387.62,234.89s1-8.93,6.73-11.71c0,0-6.34,3-7.91,6.31,0,0,1.1-6.13,4.25-10.36,0,0-3.15,4.23-6.14,6.14Z"/>
  <path class="mint-strawberry-o" d="M187.46,236.31s-1-8.94-6.74-11.72c0,0,6.34,3,7.91,6.31,0,0-1.1-6.12-4.25-10.36,0,0,3.15,4.24,6.14,6.14Z"/>
  <path class="mint-strawberry-q" d="M576.15,612.41v1.45q0,4.6-.11,9.13-.09,3.32-.22,6.59c0,.15,0,.3,0,.45q-.21,4.71-.54,9.33-.27,3.72-.61,7.4-.27,2.93-.59,5.8-1.42,12.78-3.77,24.91t-5.64,23.83c-.18.64-.36,1.28-.55,1.92q-2.37,8.19-5.18,16-1.14,3.18-2.35,6.3-1.35,3.51-2.79,6.94c-1,2.34-2,4.64-3,6.93q-3.35,7.35-7.09,14.36l-.8,1.47a244.54,244.54,0,0,1-36.24,50.3l-2.24,2.34c-1.93,2-3.9,4-5.9,5.91q-3.25,3.18-6.63,6.21l-.83.74c-2,1.77-4,3.5-6,5.21q-4.58,3.82-9.34,7.42c-2,1.49-3.94,3-5.94,4.36s-4.12,2.91-6.22,4.31a264.43,264.43,0,0,1-25.71,15.17h0q-5.17,2.68-10.49,5.15,4.59-2.8,9.05-5.8c2.2-1.47,4.37-3,6.52-4.52s4.18-3,6.24-4.57q5-3.76,9.79-7.79,3.21-2.69,6.33-5.46l.87-.78q3.54-3.18,6.95-6.51,3.15-3,6.19-6.2l2.35-2.46a256,256,0,0,0,38-52.76l.83-1.54q3.93-7.35,7.44-15.06c1.09-2.41,2.15-4.82,3.18-7.27s2-4.83,2.93-7.28c.85-2.19,1.66-4.39,2.46-6.61q2.94-8.24,5.44-16.83l.57-2q3.43-12.15,5.92-25t3.95-26.13q.33-3,.62-6.08.36-3.86.64-7.76c.23-3.23.42-6.5.57-9.79,0-.16,0-.31,0-.47.09-2.29.17-4.6.23-6.91.07-3.17.12-6.36.12-9.58V615.7q0-3.21-.09-6.41-.06-3.52-.21-7c-.25-6.93-.7-13.82-1.33-20.63q-.25-2.77-.55-5.52-.78-7.43-1.84-14.75h0c0-.2-.07-.4-.1-.6a2.7,2.7,0,0,0,0-.28h0q-1.19-8.06-2.7-16c-.26-1.28-.51-2.56-.77-3.84q-2-10.1-4.62-20c-.45-1.77-.92-3.54-1.41-5.29q-2-7.41-4.36-14.64l-.61-1.92c-.62-1.9-1.25-3.78-1.91-5.67q-1.56-4.57-3.26-9.1-1-2.6-2-5.17-2.33-5.94-4.85-11.77c-.6-1.39-1.21-2.79-1.84-4.17-.69-1.57-1.41-3.12-2.13-4.67q-1.6-3.47-3.3-6.88c-.58-1.21-1.18-2.39-1.78-3.59a.69.69,0,0,1-.07-.15c-.82-1.6-1.65-3.19-2.49-4.79s-1.67-3.19-2.55-4.76a2.1,2.1,0,0,0-.13-.26s0,0,0,0c-.28-.43-.54-.86-.79-1.29-2.55-4.13-5-8.36-7.25-12.65-.39-.73-.78-1.48-1.16-2.22q-4.62-8.86-8.46-18.17c-.19-.45-.37-.91-.55-1.36-1.25-3.05-2.43-6.15-3.54-9.26-.51-1.43-1-2.87-1.5-4.32a231.92,231.92,0,0,1-9.46-39.19c-.21-1.35-.4-2.69-.58-4-.44-3.28-.8-6.58-1.11-9.89,0-.21,0-.42,0-.64q-.69-7.78-.85-15.71c0-1.67-.06-3.34-.06-5,0-3.43.07-6.85.23-10.25,0-1.2.1-2.39.18-3.58.08-1.51.17-3,.29-4.5.16-1.93.32-3.85.52-5.77a.89.89,0,0,1,0-.22c.13-1.29.27-2.59.43-3.88.25-2.14.54-4.28.86-6.4.17-1.23.37-2.46.58-3.69s.44-2.68.69-4q.57-3.15,1.23-6.28,1-4.72,2.21-9.4.71-3.36,1.31-6.75h0c.25-1.35.48-2.68.69-4q.76-4.73,1.35-9.52c0-.33.09-.68.13-1q.88-7.74,1.27-15.64c.2-3.85.29-7.72.29-11.62,0-1.23,0-2.47,0-3.71s0-2.48-.08-3.72c-.06-1.61-.12-3.2-.2-4.8s-.2-3.43-.33-5.13c0-.27,0-.54,0-.8-.08-.93-.15-1.84-.22-2.75-.21-2.27-.44-4.51-.72-6.75-.15-1.39-.33-2.78-.52-4.16s-.38-2.71-.58-4q-.94-6.12-2.19-12.13c-.28-1.34-.58-2.68-.88-4q-.71-3.16-1.52-6.28c-.61-2.39-1.26-4.76-2-7.13h0a3.66,3.66,0,0,0-.13-.44c-.42-1.47-.87-2.93-1.32-4.38,0,0,0,0,0,0-.61-1.92-1.24-3.81-1.9-5.71-.19-.57-.38-1.14-.58-1.7q-2.46-7-5.38-13.86-1-2.28-2-4.53h0c-1.63-3.64-3.36-7.21-5.17-10.74-.1-.18-.19-.37-.28-.55l-.7-1.34q-2.22-4.22-4.6-8.34c-.68-1.18-1.39-2.37-2.09-3.54-2.21-3.68-4.53-7.29-6.93-10.83-.78-1.14-1.55-2.27-2.35-3.39s-1.64-2.31-2.48-3.45h0c-1.41-1.91-2.83-3.79-4.29-5.65-.48-.62-1-1.24-1.46-1.85l-.61-.78c-.95-1.18-1.91-2.36-2.9-3.52s-2.18-2.59-3.3-3.87c-.58-.66-1.16-1.32-1.75-2-3.25-3.64-6.6-7.19-10.08-10.61,1.52,1.07,3,2.17,4.52,3.28,1.05.78,2.09,1.57,3.12,2.38q3.62,2.79,7.1,5.73l.36.3q6.71,5.66,12.94,11.82,5,4.91,9.64,10.14c.56.62,1.11,1.25,1.66,1.88q1.61,1.83,3.15,3.69,1.41,1.67,2.76,3.36c.2.25.4.49.59.74.47.58.93,1.17,1.39,1.76,1.39,1.78,2.74,3.57,4.09,5.39h0c.8,1.09,1.59,2.19,2.36,3.29s1.5,2.14,2.24,3.23c2.29,3.37,4.5,6.82,6.61,10.32.67,1.12,1.34,2.25,2,3.38q2.28,3.93,4.39,7.95l.66,1.28.27.52c1.73,3.37,3.38,6.77,4.93,10.24h0q1,2.15,1.9,4.32,2.78,6.51,5.13,13.21c.19.54.37,1.08.55,1.62.63,1.81,1.23,3.62,1.81,5.45,0,0,0,0,0,0,.43,1.39.86,2.78,1.26,4.18a3.31,3.31,0,0,1,.12.42h0c.66,2.26,1.28,4.52,1.86,6.8q.78,3,1.45,6c.29,1.27.57,2.55.84,3.83q1.18,5.73,2.09,11.56c.19,1.28.38,2.57.55,3.86s.35,2.64.5,4c.26,2.13.48,4.27.68,6.43l.21,2.62c0,.25,0,.51.05.77.12,1.62.23,3.26.31,4.89s.14,3,.19,4.57c0,1.18.06,2.37.08,3.55s0,2.36,0,3.54q0,5.57-.28,11.07-.36,7.53-1.21,14.91l-.12,1q-.56,4.57-1.29,9.07c-.2,1.29-.42,2.56-.66,3.84h0c-.38,2.16-.8,4.3-1.25,6.44q-1.15,4.45-2.1,9c-.42,2-.81,4-1.17,6-.24,1.27-.46,2.55-.66,3.83s-.39,2.34-.56,3.52c-.3,2-.58,4.06-.82,6.1-.15,1.23-.28,2.47-.41,3.7a1.49,1.49,0,0,0,0,.21c-.19,1.83-.35,3.66-.5,5.5-.11,1.42-.2,2.85-.28,4.29-.07,1.13-.13,2.27-.17,3.41q-.23,4.86-.22,9.77c0,1.6,0,3.2.06,4.79.1,5,.37,10,.81,15,0,.21,0,.41.05.61.29,3.16.64,6.31,1.06,9.43.17,1.29.35,2.57.55,3.85a221,221,0,0,0,9,37.37c.46,1.38.94,2.75,1.43,4.11q1.59,4.46,3.37,8.83c.17.43.35.87.53,1.3q3.66,8.87,8.06,17.32c.36.71.74,1.42,1.11,2.12,2.16,4.09,4.48,8.12,6.91,12.06q.36.62.75,1.23s0,0,0,0,.09.17.13.25c.83,1.5,1.64,3,2.43,4.54s1.59,3,2.37,4.57a.91.91,0,0,0,.07.14c.57,1.14,1.14,2.27,1.69,3.42q1.62,3.25,3.15,6.56,1,2.22,2,4.45c.6,1.32,1.18,2.65,1.75,4q2.41,5.55,4.63,11.22,1,2.46,1.9,4.93c1.07,2.87,2.11,5.76,3.1,8.67.63,1.8,1.23,3.6,1.82,5.41l.59,1.83q2.22,6.9,4.15,13.95c.47,1.67.92,3.36,1.35,5.05q2.46,9.39,4.4,19c.25,1.22.49,2.44.73,3.66,1,5,1.83,10.11,2.58,15.23h0a2.51,2.51,0,0,1,0,.27l.09.57h0q1,7,1.76,14.06c.19,1.75.36,3.5.52,5.26q.9,9.75,1.27,19.67.14,3.35.2,6.71Q576.13,609.35,576.15,612.41Z"/>
</svg>
