<svg xmlns="http://www.w3.org/2000/svg" viewBox="0 0 576.15 891.38">
  <defs>
    <style>
      .viola-flower-a {
        fill: #ffbdb5;
      }

      .viola-flower-b {
        fill: #42385a;
      }

      .viola-flower-c {
        fill: #ff7b4a;
      }

      .viola-flower-d {
        fill: #6ba59c;
      }

      .viola-flower-e {
        fill: none;
        stroke: #fdefdc;
        stroke-miterlimit: 10;
        stroke-width: 9px;
      }

      .viola-flower-f {
        fill: #f81e57;
      }

      .viola-flower-g {
        fill: #fdefdc;
      }

      .viola-flower-h {
        fill: #ffe4dc;
      }

      .viola-flower-i {
        fill: #181831;
      }

      .viola-flower-j {
        fill: #e5cfca;
      }

      .viola-flower-k {
        fill: #ff8280;
      }

      .viola-flower-l {
        fill: #fab0bf;
      }

      .viola-flower-m {
        fill: #fff;
      }
    </style>
  </defs>
  <title>viola-flower-doll</title>
  <path class="viola-flower-a" d="M576.15,612.41v1.45q0,4.6-.11,9.13-.09,3.32-.22,6.59c0,.15,0,.3,0,.45q-.21,4.71-.54,9.33-.27,3.72-.61,7.4-.27,2.93-.59,5.8-1.42,12.78-3.77,24.91t-5.64,23.83c-.18.64-.36,1.28-.55,1.92q-2.37,8.19-5.18,16-1.14,3.18-2.35,6.3-1.35,3.51-2.79,6.94c-1,2.34-2,4.64-3,6.93q-3.35,7.35-7.09,14.36l-.8,1.47a244.54,244.54,0,0,1-36.24,50.3l-2.24,2.34c-1.93,2-3.9,4-5.9,5.91q-3.25,3.18-6.63,6.21l-.83.74c-2,1.77-4,3.5-6,5.21q-4.58,3.82-9.34,7.42c-2,1.49-3.94,3-5.94,4.36s-4.12,2.91-6.22,4.31a264.43,264.43,0,0,1-25.71,15.17h0a278,278,0,0,1-27,12.17A300.52,300.52,0,0,1,378,880.08q-10.08,2.67-20.46,4.71l-2.59.5q-12.29,2.33-25,3.76-6.7.76-13.52,1.27-5.76.43-11.57.69-4.69.21-9.43.3-3.69.08-7.41.07-4.24,0-8.46-.1-3.53-.07-7-.22-7.48-.3-14.87-.9-8.49-.67-16.83-1.76-16.84-2.16-33-5.89a311.32,311.32,0,0,1-36.88-11,285.82,285.82,0,0,1-28.39-12.17,266.35,266.35,0,0,1-29.22-16.83q-3.16-2.09-6.25-4.29-3.29-2.31-6.48-4.74Q96,830,91.46,826.22q-2.85-2.36-5.62-4.84-.51-.42-1-.9-3.42-3-6.73-6.25-3-2.88-5.89-5.88c-.7-.72-1.39-1.44-2.06-2.16A238.14,238.14,0,0,1,52,784.6h0A242.19,242.19,0,0,1,33.72,756c-.25-.45-.5-.9-.74-1.36q-3.85-7.14-7.29-14.64-1.57-3.43-3.06-6.93-1.74-4.11-3.36-8.33c-.79-2.08-1.56-4.17-2.31-6.29q-2.39-6.71-4.45-13.66c-.5-1.72-1-3.44-1.47-5.18a1.21,1.21,0,0,1,0-.18q-2.53-9.18-4.49-18.78c-.29-1.38-.56-2.77-.82-4.17h0Q3.48,664.9,2.11,652.7c-.22-2-.43-4-.61-5.94-.23-2.49-.44-5-.62-7.52q-.31-4.47-.52-9c0-.29,0-.58,0-.87h0q-.12-3-.2-6.07Q0,618.62,0,613.86v-1.35q0-3.15.08-6.28.06-3.36.2-6.7.36-9.71,1.24-19.24c.15-1.75.32-3.5.51-5.24q.66-6.39,1.55-12.69c.07-.51.14-1,.22-1.53q1.41-9.8,3.35-19.38,1.95-9.8,4.44-19.36c.43-1.66.87-3.3,1.32-4.94.64-2.35,1.3-4.68,2-7h0c.69-2.4,1.43-4.77,2.19-7.13.11-.37.23-.74.35-1.1a.08.08,0,0,1,0-.05q1.24-3.9,2.61-7.74,1.15-3.35,2.4-6.66c.61-1.65,1.23-3.29,1.88-4.92q2.4-6.19,5.05-12.26c.57-1.34,1.16-2.66,1.77-4h0q1.2-2.68,2.46-5.34c1.09-2.34,2.22-4.67,3.38-7,.26-.55.53-1.09.81-1.63l.49-1c.66-1.29,1.32-2.56,2-3.83q1.23-2.37,2.51-4.69s0,0,0,0l.15-.27c.31-.57.62-1.14.94-1.7q3.18-5.74,6.58-11.32c.44-.82.87-1.64,1.29-2.47.76-1.47,1.51-2.94,2.22-4.43h0q3.06-6.23,5.71-12.66a2.6,2.6,0,0,0,.1-.25q.39-.92.75-1.83,1.65-4.12,3.14-8.33c.49-1.36,1-2.73,1.42-4.11a221,221,0,0,0,8.3-33.31c.22-1.27.42-2.55.61-3.84.46-3,.86-6.09,1.19-9.16,0-.35.08-.7.1-1h0c.52-4.9.87-9.86,1-14.84h0q.16-4.19.16-8.4c0-1.95,0-3.9-.08-5.85,0-1.37-.08-2.73-.14-4.09-.07-1.74-.17-3.47-.29-5.19h0c-.08-1.4-.19-2.79-.32-4.18,0-.34,0-.67-.09-1h0c0-.27,0-.53-.07-.81q-.33-3.56-.78-7.1c-.18-1.48-.39-3-.61-4.44-.18-1.28-.38-2.56-.59-3.83q-.81-4.94-1.84-9.8c-.77-3-1.46-6-2.09-9l-.15-.74c-.27-1.28-.53-2.56-.76-3.85q-.89-4.57-1.56-9.22c0-.25-.07-.5-.1-.75Q66,247.47,65.46,239.8q-.52-7.08-.59-14.28c0-.76,0-1.53,0-2.3s0-1.27,0-1.91c0-1.64,0-3.27.09-4.9h0c0-1.42.1-2.83.17-4.24,0-.28,0-.56,0-.85,0-.75.09-1.51.13-2.27q.22-3.45.54-6.87c.12-1.26.25-2.52.39-3.77s.29-2.6.46-3.9q.9-7,2.23-13.87c.25-1.28.5-2.56.78-3.83q1.14-5.42,2.55-10.74h0l.33-1.24q1.29-4.78,2.8-9.48c.31-1,.63-2,1-3q2.31-6.91,5.06-13.62c.5-1.24,1-2.46,1.54-3.68q2.52-5.87,5.37-11.55l.09-.18c.36-.72.72-1.43,1.09-2.14h0q1.74-3.39,3.6-6.7c.63-1.14,1.28-2.27,1.94-3.4q3.18-5.47,6.66-10.75c.72-1.08,1.44-2.15,2.17-3.22s1.64-2.36,2.48-3.53c1.31-1.84,2.66-3.67,4-5.47.56-.76,1.14-1.51,1.72-2.25l.54-.69c.74-.93,1.48-1.86,2.23-2.78q1.53-1.87,3.1-3.72c.45-.54.91-1.07,1.37-1.6q4.71-5.43,9.75-10.55,2.34-2.39,4.76-4.68h0c1.61-1.55,3.24-3.06,4.9-4.55.64-.59,1.29-1.16,1.95-1.73l1-.88q3.5-3,7.12-5.93,1.51-1.21,3.06-2.4,4.24-3.27,8.64-6.34c1.07-.75,2.14-1.48,3.22-2.2q3-2,6-3.9l2.4-1.48.59-.36q5.13-3.12,10.45-5.95h0c.86-.46,1.73-.92,2.6-1.36q6.5-3.36,13.24-6.3c1.1-.48,2.2-.95,3.31-1.4,1.52-.64,3.06-1.26,4.6-1.86,1.11-.44,2.23-.86,3.36-1.28l.61-.23,2.74-1q3.26-1.16,6.57-2.2c1.17-.38,2.33-.74,3.51-1.1h0c1.24-.37,2.49-.73,3.74-1.08Q237,5.63,246.89,3.8c1.27-.24,2.54-.47,3.82-.68q4.17-.7,8.4-1.26l1.45-.18c.9-.11,1.8-.22,2.71-.31q3.6-.4,7.24-.69h0c2-.15,4-.28,6-.38h0c3.84-.2,7.69-.3,11.58-.3l2.77,0q2.64,0,5.28.12,5.31.2,10.55.63c.13,0,.26,0,.38,0l1,.08q4.33.39,8.61.93c1.28.17,2.56.34,3.84.53q10,1.46,19.73,3.79c1.26.3,2.52.61,3.77.94s2.73.71,4.08,1.09q3,.83,5.92,1.73h0c1,.32,2.05.65,3.06,1h0q.32.09.63.21c1.78.57,3.54,1.17,5.3,1.8h0c1.35.48,2.69,1,4,1.49.66.24,1.33.5,2,.76q6.82,2.66,13.44,5.75h0c1.13.53,2.24,1.06,3.36,1.62q4.86,2.35,9.59,5h0l.39.21,1,.57Q401,30.56,405,33l3.29,2.06q6.76,4.34,13.19,9.13c1.05.78,2.09,1.57,3.12,2.38q3.62,2.79,7.1,5.73l.36.3q6.71,5.66,12.94,11.82,5,4.91,9.64,10.14c.56.62,1.11,1.25,1.66,1.88q1.61,1.83,3.15,3.69,1.41,1.67,2.76,3.36c.2.25.4.49.59.74.47.58.93,1.17,1.39,1.76,1.39,1.78,2.74,3.57,4.09,5.39h0c.8,1.09,1.59,2.19,2.36,3.29s1.5,2.14,2.24,3.23c2.29,3.37,4.5,6.82,6.61,10.32.67,1.12,1.34,2.25,2,3.38q2.28,3.93,4.39,7.95l.66,1.28.27.52c1.73,3.37,3.38,6.77,4.93,10.24h0q1,2.15,1.9,4.32,2.78,6.51,5.13,13.21c.19.54.37,1.08.55,1.62.63,1.81,1.23,3.62,1.81,5.45,0,0,0,0,0,0,.43,1.39.86,2.78,1.26,4.18a3.31,3.31,0,0,1,.12.42h0c.66,2.26,1.28,4.52,1.86,6.8q.78,3,1.45,6c.29,1.27.57,2.55.84,3.83q1.18,5.73,2.09,11.56c.19,1.28.38,2.57.55,3.86s.35,2.64.5,4c.26,2.13.48,4.27.68,6.43l.21,2.62c0,.25,0,.51.05.77.12,1.62.23,3.26.31,4.89s.14,3,.19,4.57c0,1.18.06,2.37.08,3.55s0,2.36,0,3.54q0,5.57-.28,11.07-.36,7.53-1.21,14.91l-.12,1q-.56,4.57-1.29,9.07c-.2,1.29-.42,2.56-.66,3.84h0c-.38,2.16-.8,4.3-1.25,6.44q-1.15,4.45-2.1,9c-.42,2-.81,4-1.17,6-.24,1.27-.46,2.55-.66,3.83s-.39,2.34-.56,3.52c-.3,2-.58,4.06-.82,6.1-.15,1.23-.28,2.47-.41,3.7a1.49,1.49,0,0,0,0,.21c-.19,1.83-.35,3.66-.5,5.5-.11,1.42-.2,2.85-.28,4.29-.07,1.13-.13,2.27-.17,3.41q-.23,4.86-.22,9.77c0,1.6,0,3.2.06,4.79.1,5,.37,10,.81,15,0,.21,0,.41.05.61.29,3.16.64,6.31,1.06,9.43.17,1.29.35,2.57.55,3.85a221,221,0,0,0,9,37.37c.46,1.38.94,2.75,1.43,4.11q1.59,4.46,3.37,8.83c.17.43.35.87.53,1.3q3.66,8.87,8.06,17.32c.36.71.74,1.42,1.11,2.12,2.16,4.09,4.48,8.12,6.91,12.06q.36.62.75,1.23s0,0,0,0,.09.17.13.25c.83,1.5,1.64,3,2.43,4.54s1.59,3,2.37,4.57a.91.91,0,0,0,.07.14c.57,1.14,1.14,2.27,1.69,3.42q1.62,3.25,3.15,6.56,1,2.22,2,4.45c.6,1.32,1.18,2.65,1.75,4q2.41,5.55,4.63,11.22,1,2.46,1.9,4.93c1.07,2.87,2.11,5.76,3.1,8.67.63,1.8,1.23,3.6,1.82,5.41l.59,1.83q2.22,6.9,4.15,13.95c.47,1.67.92,3.36,1.35,5.05q2.46,9.39,4.4,19c.25,1.22.49,2.44.73,3.66,1,5,1.83,10.11,2.58,15.23h0a2.51,2.51,0,0,1,0,.27l.09.57h0q1,7,1.76,14.06c.19,1.75.36,3.5.52,5.26q.9,9.75,1.27,19.67.14,3.35.2,6.71c0,1.25,0,2.5.06,3.75C576.14,610.84,576.15,611.62,576.15,612.41Z"/>
  <path class="viola-flower-b" d="M576.13,610.05a76.18,76.18,0,0,1-13.55-5.51c-8.7-4.32-21.14-11.7-36-24-17.47-14.42-38.32-35.59-60.45-66.46-59.7-83.28-134.36-97.49-179.89-97.49-22.27,0-48.18,6.83-75.71,22.34l-9.17,5.46c-26.64,16.67-54.56,41.45-82,76A320.25,320.25,0,0,1,95.62,547q-3.75,3.75-7.44,7.19c-47.48,44.37-88.1,52-88.1,52q.06-3.36.2-6.7.36-9.71,1.24-19.24c.15-1.75.32-3.5.51-5.24,0-.26.05-.51.08-.77.42-4,.92-8,1.47-11.92l.15-1.07c0-.15,0-.31.07-.46q1.41-9.8,3.35-19.38,1.95-9.8,4.44-19.36c.43-1.66.87-3.3,1.32-4.94.64-2.35,1.3-4.68,2-7h0c.69-2.4,1.43-4.77,2.19-7.13.11-.37.23-.74.35-1.1a.08.08,0,0,1,0-.05q1.24-3.9,2.61-7.74,1.15-3.35,2.4-6.66c.61-1.65,1.23-3.29,1.88-4.92q2.4-6.19,5.05-12.26c.57-1.34,1.16-2.66,1.77-4h0q1.2-2.68,2.46-5.34c1.09-2.34,2.22-4.67,3.38-7,.26-.55.53-1.09.81-1.63l.49-1c.66-1.29,1.32-2.56,2-3.83q1.23-2.37,2.51-4.69s0,0,0,0l.15-.27c.31-.57.62-1.14.94-1.7q3.18-5.74,6.58-11.32c.44-.82.87-1.64,1.29-2.47.76-1.47,1.51-2.94,2.22-4.43h0q3.06-6.23,5.71-12.66a2.6,2.6,0,0,0,.1-.25q.39-.92.75-1.83,1.65-4.12,3.14-8.33c.49-1.36,1-2.73,1.42-4.11a221,221,0,0,0,8.3-33.31c.22-1.27.42-2.55.61-3.84.12-.77.23-1.55.34-2.33q.48-3.39.85-6.83c0-.35.08-.7.1-1h0c.19-1.76.35-3.52.49-5.3h0c.26-3.16.44-6.34.56-9.53h0q.16-4.19.16-8.4c0-1.95,0-3.9-.08-5.85,0-1.37-.08-2.73-.14-4.09-.07-1.74-.17-3.47-.29-5.19h0c-.08-1.4-.19-2.79-.32-4.18,0-.34,0-.67-.09-1h0c0-.27,0-.53-.07-.81q-.33-3.56-.78-7.1c-.18-1.48-.39-3-.61-4.44-.18-1.28-.38-2.56-.59-3.83q-.81-4.94-1.84-9.8c-.77-3-1.46-6-2.09-9l-.15-.74c-.27-1.28-.53-2.56-.76-3.85q-.89-4.57-1.56-9.22c0-.25-.07-.5-.1-.75Q66,247.47,65.46,239.8q-.52-7.08-.59-14.28c0-.76,0-1.53,0-2.3s0-1.27,0-1.91c0-1.64,0-3.27.09-4.9h0c0-1.42.1-2.83.17-4.24,0-.28,0-.56,0-.85,0-.75.09-1.51.13-2.27q.22-3.45.54-6.87c.12-1.26.25-2.52.39-3.77s.29-2.6.46-3.9q.9-7,2.23-13.87c.25-1.28.5-2.56.78-3.83q.65-3,1.36-6c.38-1.58.78-3.15,1.19-4.71h0l.33-1.24q.75-2.79,1.59-5.55c.39-1.32.79-2.63,1.21-3.93.31-1,.63-2,1-3q2.31-6.91,5.06-13.62c.5-1.24,1-2.46,1.54-3.68q2.52-5.87,5.37-11.55l.09-.18c.36-.72.72-1.43,1.09-2.14h0q1.74-3.39,3.6-6.7c.63-1.14,1.28-2.27,1.94-3.4q3.18-5.47,6.66-10.75c.72-1.08,1.44-2.15,2.17-3.22s1.64-2.36,2.48-3.53c1.31-1.84,2.66-3.67,4-5.47.56-.76,1.14-1.51,1.72-2.25l.54-.69c.74-.93,1.48-1.86,2.23-2.78q1.53-1.87,3.1-3.72c.45-.54.91-1.07,1.37-1.6q4.71-5.43,9.75-10.55,2.34-2.39,4.76-4.68h0c1.61-1.55,3.24-3.06,4.9-4.55.64-.59,1.29-1.16,1.95-1.73l1-.88q3.5-3,7.12-5.93,1.51-1.21,3.06-2.4,3.52-2.72,7.14-5.28l1.5-1.06c1.07-.75,2.14-1.48,3.22-2.2,1.33-.9,2.66-1.78,4-2.63.66-.44,1.32-.85,2-1.27l2.4-1.48.59-.36q5.13-3.12,10.45-5.95h0c.86-.46,1.73-.92,2.6-1.36q6.5-3.36,13.24-6.3c1.1-.48,2.2-.95,3.31-1.4,1.52-.64,3.06-1.26,4.6-1.86,1.11-.44,2.23-.86,3.36-1.28l.61-.23,2.74-1q3.26-1.16,6.57-2.2c1.17-.38,2.33-.74,3.51-1.1h0c1.24-.37,2.49-.73,3.74-1.08Q237,5.63,246.89,3.8c1.27-.24,2.54-.47,3.82-.68q4.17-.7,8.4-1.26l1.45-.18c.9-.11,1.8-.22,2.71-.31q3.6-.4,7.24-.69h0c2-.15,4-.28,6-.38h0c3.84-.2,7.69-.3,11.58-.3l2.77,0q2.64,0,5.28.12,5.31.2,10.55.63c.13,0,.26,0,.38,0l1,.08q4.33.39,8.61.93c1.28.17,2.56.34,3.84.53,1.45.21,2.89.43,4.33.67q7.47,1.25,14.76,3l.64.15c1.26.3,2.52.61,3.77.94s2.73.71,4.08,1.09q3,.83,5.92,1.73h0c1,.32,2.05.65,3.06,1h0q.32.09.63.21c1.78.57,3.54,1.17,5.3,1.8h0c1.35.48,2.69,1,4,1.49.66.24,1.33.5,2,.76q6.82,2.66,13.44,5.75h0c1.13.53,2.24,1.06,3.36,1.62q4.86,2.35,9.59,5h0l.39.21,1,.57Q401,30.56,405,33l3.29,2.06q6.76,4.34,13.19,9.13c1.05.78,2.09,1.57,3.12,2.38q3.62,2.79,7.1,5.73l.36.3q6.71,5.66,12.94,11.82,5,4.91,9.64,10.14c.56.62,1.11,1.25,1.66,1.88q1.61,1.83,3.15,3.69,1.41,1.67,2.76,3.36c.2.25.4.49.59.74.47.58.93,1.17,1.39,1.76,1.39,1.78,2.74,3.57,4.09,5.39h0c.8,1.09,1.59,2.19,2.36,3.29s1.5,2.14,2.24,3.23c2.29,3.37,4.5,6.82,6.61,10.32.67,1.12,1.34,2.25,2,3.38q2.28,3.93,4.39,7.95l.66,1.28.27.52c1.7,3.32,3.33,6.66,4.86,10.08l.07.16h0q1,2.15,1.9,4.32,2.78,6.51,5.13,13.21c.19.54.37,1.08.55,1.62.52,1.48,1,3,1.49,4.46.11.33.21.66.32,1,0,0,0,0,0,0,.43,1.39.86,2.78,1.26,4.18a3.31,3.31,0,0,1,.12.42h0c.66,2.26,1.28,4.52,1.86,6.8q.78,3,1.45,6c.29,1.27.57,2.55.84,3.83q1.18,5.73,2.09,11.56c.19,1.28.38,2.57.55,3.86s.35,2.64.5,4c.26,2.13.48,4.27.68,6.43l.21,2.62c0,.25,0,.51.05.77.12,1.62.23,3.26.31,4.89s.14,3,.19,4.57c0,1.18.06,2.37.08,3.55s0,2.36,0,3.54q0,5.57-.28,11.07-.36,7.53-1.21,14.91l-.12,1q-.56,4.57-1.29,9.07c-.2,1.29-.42,2.56-.66,3.84h0c-.38,2.16-.8,4.3-1.25,6.44q-1.15,4.45-2.1,9c-.42,2-.81,4-1.17,6-.24,1.27-.46,2.55-.66,3.83s-.39,2.34-.56,3.52c-.3,2-.58,4.06-.82,6.1-.15,1.23-.28,2.47-.41,3.7a1.49,1.49,0,0,0,0,.21c-.19,1.83-.35,3.66-.5,5.5-.11,1.42-.2,2.85-.28,4.29-.07,1.13-.13,2.27-.17,3.41q-.23,4.86-.22,9.77c0,1.6,0,3.2.06,4.79.1,5,.37,10,.81,15,0,.21,0,.41.05.61.29,3.16.64,6.31,1.06,9.43.17,1.29.35,2.57.55,3.85a221,221,0,0,0,9,37.37c.46,1.38.94,2.75,1.43,4.11q1.59,4.46,3.37,8.83c.17.43.35.87.53,1.3q3.66,8.87,8.06,17.32c.36.71.74,1.42,1.11,2.12,2.16,4.09,4.48,8.12,6.91,12.06q.36.62.75,1.23s0,0,0,0,.09.17.13.25c.83,1.5,1.64,3,2.43,4.54s1.59,3,2.37,4.57a.91.91,0,0,0,.07.14c.57,1.14,1.14,2.27,1.69,3.42q1.62,3.25,3.15,6.56,1,2.22,2,4.45c.6,1.32,1.18,2.65,1.75,4q2.41,5.55,4.63,11.22,1,2.46,1.9,4.93c1.07,2.87,2.11,5.76,3.1,8.67.63,1.8,1.23,3.6,1.82,5.41l.59,1.83q2.22,6.9,4.15,13.95c.47,1.67.92,3.36,1.35,5.05q2.46,9.39,4.4,19c.25,1.22.49,2.44.73,3.66,1,5,1.83,10.11,2.58,15.23h0a2.51,2.51,0,0,1,0,.27l.09.57h0q1,7,1.76,14.06c.19,1.75.36,3.5.52,5.26q.9,9.75,1.27,19.67.14,3.35.2,6.71C576.09,607.55,576.12,608.8,576.13,610.05Z"/>
  <g>
    <path class="viola-flower-c" d="M253.19,651.83V779.26a34.92,34.92,0,0,0,69.83,0V651.83Z"/>
    <path class="viola-flower-d" d="M435,610a34.52,34.52,0,0,0-24.09-32.91,34.53,34.53,0,0,0-32.93-57,34.52,34.52,0,0,0-57-32.89,34.52,34.52,0,0,0-65.81,0,34.52,34.52,0,0,0-57,32.92,34.52,34.52,0,0,0-32.89,57,34.52,34.52,0,0,0,0,65.81,34.53,34.53,0,0,0,32.93,57,34.52,34.52,0,0,0,57,32.89,34.52,34.52,0,0,0,65.81,0,34.52,34.52,0,0,0,57-32.92,34.52,34.52,0,0,0,32.89-57A34.52,34.52,0,0,0,435,610Z"/>
    <circle class="viola-flower-e" cx="288.08" cy="610.05" r="112.74"/>
    <circle class="viola-flower-a" cx="288.08" cy="610.05" r="79.72"/>
    <circle class="viola-flower-f" cx="288.08" cy="610.05" r="56.37"/>
    <path class="viola-flower-d" d="M461.58,754a140.66,140.66,0,0,1-162,110.81A235.41,235.41,0,0,1,461.58,754Z"/>
    <path class="viola-flower-d" d="M114.57,754a140.66,140.66,0,0,0,162,110.81A235.41,235.41,0,0,0,114.57,754Z"/>
  </g>
  <g>
    <path class="viola-flower-b" d="M234.61,506a75.59,75.59,0,0,1,35.82-88.87,74.46,74.46,0,0,1,11.94-5.27A126.61,126.61,0,0,1,234.61,506Z"/>
    <path class="viola-flower-b" d="M336.94,506a75.59,75.59,0,0,0-35.82-88.87,74.56,74.56,0,0,0-11.95-5.27A126.65,126.65,0,0,0,336.94,506Z"/>
    <circle class="viola-flower-f" cx="286.4" cy="416.47" r="23.83"/>
  </g>
  <g>
    <g>
      <circle class="viola-flower-g" cx="143" cy="722.79" r="15.21"/>
      <circle class="viola-flower-g" cx="103.45" cy="708.98" r="12.13"/>
      <circle class="viola-flower-g" cx="127.93" cy="683.24" r="12.13"/>
      <circle class="viola-flower-g" cx="111.61" cy="650.6" r="10.24"/>
      <circle class="viola-flower-g" cx="70.81" cy="695.8" r="10.24"/>
      <circle class="viola-flower-g" cx="39.42" cy="681.99" r="7.1"/>
      <circle class="viola-flower-g" cx="99.06" cy="624.23" r="7.1"/>
    </g>
    <g>
      <circle class="viola-flower-g" cx="433.15" cy="722.79" r="15.21"/>
      <circle class="viola-flower-g" cx="472.7" cy="708.98" r="12.13"/>
      <circle class="viola-flower-g" cx="448.22" cy="683.24" r="12.13"/>
      <circle class="viola-flower-g" cx="464.54" cy="650.6" r="10.24"/>
      <circle class="viola-flower-g" cx="505.34" cy="695.8" r="10.24"/>
      <circle class="viola-flower-g" cx="536.73" cy="681.99" r="7.1"/>
      <circle class="viola-flower-g" cx="477.09" cy="624.23" r="7.1"/>
    </g>
  </g>
  <path class="viola-flower-h" d="M417.94,222a131.54,131.54,0,0,1-1.76,21.51q-.65,4-1.53,7.83A131.61,131.61,0,0,1,230.23,341h0a131.89,131.89,0,0,1-72-89.31q-.93-4-1.62-8.21A133.08,133.08,0,0,1,154.85,222a131.55,131.55,0,1,1,263.09,0Z"/>
  <g>
    <path class="viola-flower-g" d="M95.62,547q-3.75,3.75-7.44,7.19L62.87,528.88a5.17,5.17,0,0,1,7.31-7.31Z"/>
    <path class="viola-flower-g" d="M9.2,574.08a5.15,5.15,0,0,1-7.09.2c.42-4,.92-8,1.47-11.92l.15-1.07,5.47,5.47A5.18,5.18,0,0,1,9.2,574.08Z"/>
    <path class="viola-flower-g" d="M82.77,418.71a5.18,5.18,0,0,0,0,7.32L114,457.29a5.18,5.18,0,0,0,7.32-7.32L90.09,418.71A5.18,5.18,0,0,0,82.77,418.71Z"/>
    <path class="viola-flower-g" d="M210.49,438.92l-9.17,5.46-29-29a5.17,5.17,0,1,1,7.31-7.31Z"/>
    <path class="viola-flower-g" d="M175.67,315.86a5.18,5.18,0,0,0,0,7.32l31.26,31.25a5.17,5.17,0,0,0,7.32-7.31L183,315.86A5.18,5.18,0,0,0,175.67,315.86Z"/>
    <path class="viola-flower-g" d="M312.46,373a5.18,5.18,0,0,1-7.32,0l-19.47-19.46h.73a131.94,131.94,0,0,0,13.25-.66l12.81,12.81A5.17,5.17,0,0,1,312.46,373Z"/>
    <path class="viola-flower-g" d="M361.47,398.14a5.18,5.18,0,0,0,0,7.32l31.26,31.26a5.18,5.18,0,0,0,7.32-7.32l-31.26-31.26A5.18,5.18,0,0,0,361.47,398.14Z"/>
    <path class="viola-flower-g" d="M418,331.87a5.17,5.17,0,0,1-7.31,0l-24.32-24.32q3.38-3.94,6.46-8.17L418,324.56A5.17,5.17,0,0,1,418,331.87Z"/>
    <path class="viola-flower-g" d="M453.05,224.29a5.17,5.17,0,0,0,0,7.31l31.26,31.26a5.17,5.17,0,1,0,7.31-7.31l-31.26-31.26A5.17,5.17,0,0,0,453.05,224.29Z"/>
    <path class="viola-flower-g" d="M392,109.49a5.18,5.18,0,0,0,0,7.32l31.26,31.25a5.17,5.17,0,0,0,7.31-7.31l-31.26-31.26A5.17,5.17,0,0,0,392,109.49Z"/>
    <path class="viola-flower-g" d="M500.76,155.23,477.6,132.07a5.18,5.18,0,1,1,7.32-7.32l6.7,6.7.07.16h0q1,2.15,1.9,4.32,2.78,6.51,5.13,13.21c.19.54.37,1.08.55,1.62C499.79,152.25,500.28,153.73,500.76,155.23Z"/>
    <path class="viola-flower-g" d="M339.6,6l25.28,25.28a5.17,5.17,0,1,1-7.32,7.31L326.31,7.32A5.14,5.14,0,0,1,324.84,3Z"/>
    <path class="viola-flower-g" d="M288.72,90.47l-2.32,0q-6,0-11.81.52l-17.3-17.3a5.17,5.17,0,0,1,7.32-7.31Z"/>
    <path class="viola-flower-g" d="M187,61.8a5.17,5.17,0,0,1-7.31,0L159,41.08l1.5-1.06c1.07-.75,2.14-1.48,3.22-2.2,1.33-.9,2.66-1.78,4-2.63L187,54.48A5.18,5.18,0,0,1,187,61.8Z"/>
    <path class="viola-flower-g" d="M182,142q-2.82,3.68-5.37,7.53a5.11,5.11,0,0,1-2.86-1.45L142.5,116.81a5.17,5.17,0,0,1,7.31-7.32l31.26,31.26A5.09,5.09,0,0,1,182,142Z"/>
    <path class="viola-flower-g" d="M96.13,188.54a5.17,5.17,0,0,1-7.31,0L71.05,170.77c.38-1.58.78-3.15,1.19-4.71h0l.33-1.24q.75-2.79,1.59-5.55l22,22A5.17,5.17,0,0,1,96.13,188.54Z"/>
    <path class="viola-flower-g" d="M90.07,254.15a5.17,5.17,0,0,0,0,7.31l31.26,31.26a5.17,5.17,0,1,0,7.32-7.31L97.39,254.15A5.18,5.18,0,0,0,90.07,254.15Z"/>
    <path class="viola-flower-g" d="M85.51,359.74a5.17,5.17,0,0,1-7.31,0L74.41,356q.48-3.39.85-6.83c0-.35.08-.7.1-1h0c.19-1.76.35-3.52.49-5.3l9.66,9.66A5.15,5.15,0,0,1,85.51,359.74Z"/>
    <path class="viola-flower-g" d="M458.36,374.92a5.17,5.17,0,0,0,0,7.31l31.25,31.26a5.17,5.17,0,0,0,7.32-7.31l-31.26-31.26A5.17,5.17,0,0,0,458.36,374.92Z"/>
    <path class="viola-flower-g" d="M475.61,460.52a5.18,5.18,0,0,0,0,7.32l31.26,31.25a5.17,5.17,0,0,0,7.31-7.31l-31.25-31.26A5.18,5.18,0,0,0,475.61,460.52Z"/>
    <path class="viola-flower-g" d="M562.58,604.54c-8.7-4.32-21.14-11.7-36-24a5.17,5.17,0,0,1,8.81-3.22Z"/>
  </g>
  <path class="viola-flower-i" d="M417.94,222a131.54,131.54,0,0,1-1.76,21.51c-27.42-13-127.4-62.92-129.78-102.65C284,180.59,184,230.5,156.59,243.46A133.08,133.08,0,0,1,154.85,222a131.55,131.55,0,1,1,263.09,0Z"/>
  <circle class="viola-flower-i" cx="358.8" cy="246.71" r="22.01"/>
  <circle class="viola-flower-i" cx="207.57" cy="246.71" r="22.01"/>
  <path class="viola-flower-i" d="M373.49,232.47a8.52,8.52,0,0,0,6.93-3.47s-.22,4.55-1.95,6.72c0,0,2.82-.65,3.9-2.38,0,0-1.3,5-3,7.15S373.49,232.47,373.49,232.47Z"/>
  <path class="viola-flower-i" d="M192.58,232.47a8.52,8.52,0,0,1-6.93-3.47s.22,4.55,1.95,6.72c0,0-2.82-.65-3.9-2.38,0,0,1.3,5,3,7.15S192.58,232.47,192.58,232.47Z"/>
  <path class="viola-flower-j" d="M286.39,284.17l6.85-2.61s2.61,5.21,4.24,5.21-8.48,4.9-10.76,4.57Z"/>
  <circle class="viola-flower-k" cx="286.39" cy="310.83" r="9.12"/>
  <path class="viola-flower-l" d="M383.62,310.59a131.38,131.38,0,0,1-41.83,30.75,26.09,26.09,0,0,1,41.83-30.75Z"/>
  <path class="viola-flower-l" d="M233.66,328.05A26,26,0,0,1,230.23,341h0a131.71,131.71,0,0,1-41.54-30.92,26.09,26.09,0,0,1,45,18Z"/>
  <circle class="viola-flower-m" cx="368.78" cy="236.47" r="2.89"/>
  <ellipse class="viola-flower-m" cx="373.12" cy="243.42" rx="5.21" ry="2.89" transform="translate(9.62 500.97) rotate(-68.44)"/>
  <circle class="viola-flower-m" cx="191.52" cy="242.35" r="2.1"/>
  <ellipse class="viola-flower-m" cx="193.1" cy="249.18" rx="3.81" ry="2.23" transform="translate(-119.25 291.82) rotate(-60)"/>
</svg>
