<svg xmlns="http://www.w3.org/2000/svg" viewBox="0 0 107.69 186.19">
  <defs>
    <style>
      .logo-a {
        fill: none;
        stroke: #000;
        stroke-miterlimit: 10;
        stroke-width: 6px;
      }
    </style>
  </defs>
  <title>logo</title>
  <path class="logo-a" d="M128.25,49.7A28.25,28.25,0,1,1,100,21.45,28.25,28.25,0,0,1,128.25,49.7Z" transform="translate(-46.15 -6.87)"/>
  <path class="logo-a" d="M73.18,40.81S99.77,42.9,100,22.16c0,0,0,23.85,26.83,18.67,0,0-6-19.38-26.83-19.38S73.18,40.81,73.18,40.81Z" transform="translate(-46.15 -6.87)"/>
  <path class="logo-a" d="M147.28,114.48c-1.51-3.45-1-2.28-1.51-3.45-4.66-11.26-7.33-19.8-7.33-33.82a108.17,108.17,0,0,1,1.45-17.68c.17-1,.35-2,.54-3a.24.24,0,0,0,0-.08,42.4,42.4,0,0,0,.4-5.78,40.85,40.85,0,1,0-81.7,0,42.4,42.4,0,0,0,.4,5.78.24.24,0,0,0,0,.08c.19,1,.37,2,.54,3a108.17,108.17,0,0,1,1.45,17.68c0,14-2.67,22.56-7.33,33.82-.48,1.17,0,0-1.51,3.45-2.28,5.77-3.57,16.74-3.57,23.32,0,27.8,11.68,41.81,27,50.84,6.16,1.07,16.64,1.42,23.88,1.42s17.72-.35,23.88-1.42c15.29-9,27-23,27-50.84C150.85,131.22,149.56,120.25,147.28,114.48ZM100,21.45A28.26,28.26,0,1,1,71.75,49.7,28.25,28.25,0,0,1,100,21.45ZM80.13,131.93a10.72,10.72,0,0,1-6.08-19.55c-.06-.13-.11-.27-.17-.41a10.12,10.12,0,0,1-2.93.41,10.69,10.69,0,0,1-10.65-9.65,72.85,72.85,0,0,0,21.18-3c9.6-3.08,18.44-9.27,18.52-21.59,0,1.61.56,14.72,18.62,21.09a68.68,68.68,0,0,0,21.07,3.4A10.68,10.68,0,0,1,129,112.43a9.86,9.86,0,0,1-2.19-.23l-.35.66a10.71,10.71,0,1,1-16,13.65l-.1,0a10.46,10.46,0,0,1,.1,1.49,10.69,10.69,0,0,1-21.38,0" transform="translate(-46.15 -6.87)"/>
  <path class="logo-a" d="M73.88,112a30.54,30.54,0,0,1-2.13-10m55.09,10.21a32.18,32.18,0,0,0,3-10.21m-72.4.67s1.06.07,2.85.07m82.25-.07c-1,0-1.93,0-2.86,0" transform="translate(-46.15 -6.87)"/>
  <path class="logo-a" d="M130.5,121.21a10.71,10.71,0,0,1-20,5.3,26.46,26.46,0,0,0,16-13.65A10.69,10.69,0,0,1,130.5,121.21Z" transform="translate(-46.15 -6.87)"/>
  <path class="logo-a" d="M89.15,127a10.72,10.72,0,1,1-15.1-14.61" transform="translate(-46.15 -6.87)"/>
  <path class="logo-a" d="M139.69,102.62A10.68,10.68,0,0,1,129,112.43a9.86,9.86,0,0,1-2.19-.23l-.35.66a26.46,26.46,0,0,1-16,13.65l-.1,0A35.6,35.6,0,0,1,99.78,128a34.53,34.53,0,0,1-10.37-1.46,1.29,1.29,0,0,1-.21-.06,23.8,23.8,0,0,1-15.15-14.13c-.06-.13-.11-.27-.17-.41a10.12,10.12,0,0,1-2.93.41,10.69,10.69,0,0,1-10.65-9.65,72.85,72.85,0,0,0,21.18-3c9.6-3.08,18.44-9.27,18.52-21.59,0,1.61.56,14.72,18.62,21.09A68.68,68.68,0,0,0,139.69,102.62Z" transform="translate(-46.15 -6.87)"/>
</svg>
